# Blender v2.78 (sub 0) OBJ File: ''
# www.blender.org
mtllib podstavka.mtl
o Плоскость.001
v 0.174466 0.000066 -0.419042
v 0.174466 0.044134 -0.419042
v 0.174466 0.044134 -0.548740
v 0.174466 0.000066 -0.548740
v 0.253597 0.044134 -0.548740
v 0.253597 0.000066 -0.548740
v 0.253597 0.044134 -0.419042
v 0.253597 0.000066 -0.419042
v -0.254567 0.000066 0.443973
v -0.254567 0.044134 0.443973
v -0.254567 0.044134 0.314274
v -0.254567 0.000066 0.314274
v -0.175435 0.044134 0.314274
v -0.175435 0.000066 0.314274
v -0.175435 0.044134 0.443973
v -0.175435 0.000066 0.443973
v -0.282853 0.068514 0.361526
v 0.287946 0.068514 0.361526
v 0.287946 0.068514 -0.512739
v -0.282853 0.068514 -0.512739
v -0.358500 0.117929 0.478217
v -0.358500 0.117929 0.627290
v -0.006843 1.870294 0.612854
v -0.006843 1.870294 0.463781
v -0.285057 0.117929 0.627290
v -0.358500 0.030063 0.627290
v -0.285057 0.030063 0.627290
v 0.285057 0.030063 0.627290
v 0.358500 0.030063 0.627290
v 0.358500 0.117929 0.627290
v 0.285057 0.117929 0.627290
v -0.005441 1.870294 0.463781
v -0.005441 1.870294 0.612854
v 0.358500 0.117929 0.478217
v 0.006843 1.870294 0.463781
v 0.006843 1.870294 0.612854
v -0.285057 0.117929 0.478217
v 0.005441 1.870294 0.612854
v 0.285057 0.117929 0.478217
v 0.005441 1.870294 0.463781
v 0.285057 0.117929 -0.565294
v -0.285057 0.117929 -0.565294
v -0.358500 0.117929 -0.565294
v -0.358500 0.117929 -0.478843
v -0.285057 0.117929 -0.478843
v 0.285057 0.117929 -0.478843
v 0.358500 0.117929 -0.478843
v 0.358500 0.117929 -0.565294
v -0.358500 0.030063 -0.565295
v -0.358500 0.030063 -0.478843
v -0.358500 0.030063 -0.267148
v -0.358500 0.030063 0.030998
v -0.358500 0.030063 0.329144
v -0.358500 0.030063 0.394140
v -0.358500 0.030063 0.478217
v -0.358500 0.117929 0.394140
v -0.358500 0.117929 0.329144
v -0.358500 0.117929 0.030998
v -0.358500 0.117929 -0.267148
v 0.285057 0.117929 0.030998
v 0.285057 0.117929 0.329144
v 0.285057 0.117929 0.394140
v 0.358500 0.117929 0.394140
v 0.358500 0.117929 0.329144
v 0.358500 0.117929 0.030998
v 0.358500 0.117929 -0.267148
v 0.285057 0.117929 -0.267148
v -0.285057 0.117929 0.394140
v 0.358500 0.030063 -0.565295
v 0.285057 0.030063 -0.565295
v -0.285057 0.030063 -0.565295
v 0.358500 0.030063 0.478217
v 0.285057 0.030063 0.478217
v 0.285057 0.030063 0.394140
v 0.285057 0.030063 0.329144
v 0.285057 0.030063 0.030998
v 0.285057 0.030063 -0.267148
v 0.285057 0.030063 -0.478843
v 0.358500 0.030063 -0.478843
v 0.358500 0.030063 -0.267148
v 0.358500 0.030063 0.030998
v 0.358500 0.030063 0.329144
v 0.358500 0.030063 0.394140
v -0.285057 0.030063 0.478217
v -0.285057 0.030063 0.394140
v -0.285057 0.030063 0.329144
v -0.285057 0.030063 0.030998
v -0.285057 0.030063 -0.267148
v -0.285057 0.030063 -0.478843
v -0.285057 0.117929 -0.267148
v -0.285057 0.117929 0.030998
v -0.285057 0.117929 0.329144
v -0.252092 0.000066 -0.419042
v -0.252092 0.044134 -0.419042
v -0.252092 0.044134 -0.548740
v -0.252092 0.000066 -0.548740
v -0.172960 0.044134 -0.548740
v -0.172960 0.000066 -0.548740
v -0.172960 0.044134 -0.419042
v -0.172960 0.000066 -0.419042
v 0.171990 0.000066 0.443973
v 0.171990 0.044134 0.443973
v 0.171990 0.044134 0.314274
v 0.171990 0.000066 0.314274
v 0.251123 0.044134 0.314274
v 0.251123 0.000066 0.314274
v 0.251123 0.044134 0.443973
v 0.251123 0.000066 0.443973
v 0.039018 1.017297 0.470808
v 0.039018 1.017297 0.619881
v -0.039018 1.017297 0.470808
v -0.039018 1.017297 0.619881
v 0.000000 1.021140 0.470776
v 0.000000 1.021140 0.619849
v -0.076536 1.005916 0.470901
v -0.076536 1.005916 0.619974
v 0.076537 1.005916 0.470901
v 0.076537 1.005916 0.619974
v -0.111114 0.987434 0.471054
v -0.111114 0.987434 0.620127
v -0.166294 0.932254 0.471508
v -0.166294 0.932254 0.620581
v -0.152422 0.949157 0.620442
v -0.141421 0.962562 0.471258
v -0.141421 0.962562 0.620331
v -0.152422 0.949157 0.471369
v 0.166294 0.932254 0.620581
v 0.166294 0.932254 0.471508
v 0.152422 0.949157 0.471369
v 0.196157 0.860158 0.621175
v 0.196157 0.860158 0.472102
v 0.184776 0.897677 0.620866
v 0.184776 0.897677 0.471793
v 0.200000 0.821140 0.621496
v 0.200000 0.821140 0.472423
v 0.196157 0.782122 0.621818
v 0.196157 0.782122 0.472745
v -0.196157 0.860159 0.472102
v -0.196157 0.860158 0.621175
v -0.200000 0.821140 0.472423
v -0.200000 0.821140 0.621496
v -0.184776 0.897677 0.471793
v -0.184776 0.897677 0.620866
v 0.141421 0.962561 0.471258
v 0.141421 0.962561 0.620331
v 0.152422 0.949157 0.620442
v -0.196157 0.782122 0.472745
v -0.196157 0.782122 0.621818
v 0.111114 0.987434 0.471054
v 0.111114 0.987434 0.620127
v -0.076537 0.636364 0.473946
v -0.076537 0.636364 0.623019
v -0.039018 0.624983 0.474039
v -0.039018 0.624983 0.623112
v -0.184776 0.744604 0.473054
v -0.184963 0.745220 0.473049
v -0.184963 0.745220 0.622122
v -0.184776 0.744604 0.622127
v 0.111114 0.654846 0.473793
v 0.111114 0.654846 0.622866
v -0.166294 0.710026 0.473339
v -0.166294 0.710026 0.622412
v -0.111114 0.654846 0.473793
v -0.111114 0.654846 0.622866
v -0.141421 0.679719 0.473589
v -0.141421 0.679719 0.622662
v 0.184776 0.744604 0.473054
v 0.184963 0.745220 0.473049
v 0.184776 0.744604 0.622127
v 0.184963 0.745220 0.622122
v 0.166294 0.710026 0.473339
v 0.166294 0.710026 0.622412
v -0.000000 0.621140 0.474071
v -0.000000 0.621140 0.623144
v 0.039018 0.624983 0.474039
v 0.039018 0.624983 0.623112
v 0.141421 0.679719 0.473589
v 0.141421 0.679719 0.622662
v 0.076537 0.636364 0.473946
v 0.076537 0.636364 0.623019
vt 0.0000 0.0000
vt 0.0000 0.0000
vt 0.0000 0.0000
vt 0.0000 0.0000
vt 0.0000 0.0000
vt 0.0000 0.0000
vt 0.0000 0.0000
vt 0.0000 0.0000
vt 0.0000 0.0000
vt 0.0000 0.0000
vt 0.0000 0.0000
vt 0.0000 0.0000
vt 0.0000 0.0000
vt 0.0000 0.0000
vt 0.0000 0.0000
vt 0.0000 0.0000
vt 0.0000 0.0000
vt 0.0000 0.0000
vt 0.0000 0.0000
vt 0.0000 0.0000
vt 0.0000 0.0000
vt 0.0000 0.0000
vt 0.0000 0.0000
vt 0.0000 0.0000
vt 0.0000 0.0000
vt 0.0000 0.0000
vt 0.0000 0.0000
vt 0.0000 0.0000
vt 0.0000 0.0000
vt 0.0000 0.0000
vt 0.0000 0.0000
vt 0.0000 0.0000
vt 0.0000 0.0000
vt 0.0000 0.0000
vt 0.0000 0.0000
vt 0.0000 0.0000
vt 0.0000 0.0000
vt 0.0000 0.0000
vt 0.0000 0.0000
vt 0.0000 0.0000
vt 0.0000 0.0000
vt 0.0000 0.0000
vt 0.0000 0.0000
vt 0.0000 0.0000
vt 0.0000 0.0000
vt 0.0000 0.0000
vt 0.0000 0.0000
vt 0.0000 0.0000
vt 0.0000 0.0000
vt 0.0000 0.0000
vt 0.0000 0.0000
vt 0.0000 0.0000
vt 0.0000 0.0000
vt 0.0000 0.0000
vt 0.0000 0.0000
vt 0.0000 0.0000
vt 0.0000 0.0000
vt 0.0000 0.0000
vt 0.0000 0.0000
vt 0.0000 0.0000
vt 0.0000 0.0000
vt 0.0000 0.0000
vt 0.0000 0.0000
vt 0.0000 0.0000
vt 0.0000 0.0000
vt 0.0000 0.0000
vt 0.0000 0.0000
vt 0.0000 0.0000
vt 0.0000 0.0000
vt 0.0000 0.0000
vt 0.0000 0.0000
vt 0.0000 0.0000
vt 0.0000 0.0000
vt 1.0000 0.0000
vt 1.0000 1.0000
vt 0.0000 1.0000
vt 0.0000 0.0000
vt 1.0000 0.0000
vt 1.0000 1.0000
vt 0.0000 1.0000
vt 0.0000 0.0000
vt 1.0000 0.0000
vt 1.0000 1.0000
vt 0.0000 1.0000
vt 0.0000 0.0000
vt 1.0000 0.0000
vt 1.0000 1.0000
vt 0.0000 1.0000
vt 0.0000 0.0000
vt 1.0000 0.0000
vt 1.0000 1.0000
vt 0.0000 1.0000
vt 1.0000 0.0000
vt 1.0000 1.0000
vt 0.0000 0.0000
vt 0.0000 1.0000
vt 0.0000 0.0000
vt 1.0000 0.0000
vt 1.0000 1.0000
vt 0.0000 1.0000
vt 0.0000 0.0000
vt 1.0000 0.0000
vt 1.0000 1.0000
vt 0.0000 1.0000
vt 0.0000 0.0000
vt 1.0000 0.0000
vt 1.0000 1.0000
vt 0.0000 1.0000
vt 0.0000 0.0000
vt 1.0000 0.0000
vt 1.0000 1.0000
vt 0.0000 1.0000
vt 1.0000 0.0000
vt 1.0000 1.0000
vt 0.0000 0.0000
vt 0.0000 1.0000
vt 0.7208 0.0244
vt 0.7689 0.0244
vt 0.7642 0.5175
vt 0.7162 0.5175
vt 0.7925 0.0245
vt 0.7689 0.0245
vt 0.7689 0.0000
vt 0.7925 0.0000
vt 0.9763 0.0000
vt 1.0000 0.0000
vt 1.0000 0.0245
vt 0.9763 0.0245
vt 0.6042 0.5590
vt 0.6038 0.5590
vt 0.6038 0.5175
vt 0.6042 0.5175
vt 0.0000 0.0244
vt 0.0481 0.0244
vt 0.0527 0.5175
vt 0.0047 0.5175
vt 0.9763 0.5122
vt 1.0000 0.5122
vt 0.8866 1.0000
vt 0.8862 1.0000
vt 0.9336 0.7436
vt 0.9380 0.7389
vt 0.9440 0.7293
vt 0.9477 0.7188
vt 0.9489 0.7080
vt 0.9477 0.6971
vt 0.9440 0.6868
vt 0.8866 0.5122
vt 0.8862 0.5122
vt 0.9336 0.2558
vt 0.9380 0.2511
vt 0.9440 0.2415
vt 0.9477 0.2311
vt 0.9489 0.2202
vt 0.9477 0.2094
vt 0.9440 0.1991
vt 0.8248 0.1991
vt 0.8212 0.2094
vt 0.8200 0.2202
vt 0.8212 0.2311
vt 0.8249 0.2415
vt 0.8308 0.2511
vt 0.8353 0.2558
vt 0.8827 0.5122
vt 0.8822 0.5122
vt 0.9440 0.1989
vt 0.9380 0.1893
vt 0.9300 0.1809
vt 0.9202 0.1739
vt 0.9091 0.1688
vt 0.8970 0.1656
vt 0.8844 0.1645
vt 0.8718 0.1656
vt 0.8597 0.1688
vt 0.8486 0.1739
vt 0.8388 0.1809
vt 0.8308 0.1893
vt 0.8248 0.1989
vt 0.7689 0.5122
vt 0.7925 0.5122
vt 0.8248 0.6868
vt 0.8212 0.6971
vt 0.8200 0.7080
vt 0.8212 0.7188
vt 0.8249 0.7293
vt 0.8308 0.7389
vt 0.8353 0.7436
vt 0.8827 1.0000
vt 0.8822 1.0000
vt 0.9440 0.6866
vt 0.9380 0.6770
vt 0.9300 0.6686
vt 0.9202 0.6617
vt 0.9091 0.6565
vt 0.8970 0.6533
vt 0.8844 0.6523
vt 0.8718 0.6533
vt 0.8597 0.6565
vt 0.8486 0.6617
vt 0.8388 0.6686
vt 0.8308 0.6770
vt 0.8248 0.6866
vt 0.6082 0.5590
vt 0.6077 0.5590
vt 0.6077 0.5175
vt 0.6082 0.5175
vt 0.2548 0.5175
vt 0.4386 0.5175
vt 0.4623 0.5175
vt 0.4623 0.5416
vt 0.4386 0.5416
vt 0.2548 0.5416
vt 0.2311 0.5416
vt 0.2311 0.5175
vt 0.4123 0.0244
vt 0.3844 0.0244
vt 0.3844 0.0000
vt 0.4123 0.0000
vt 0.4805 0.0000
vt 0.5767 0.0000
vt 0.6728 0.0000
vt 0.6937 0.0000
vt 0.7208 0.0000
vt 0.6937 0.0244
vt 0.6728 0.0244
vt 0.5767 0.0244
vt 0.4805 0.0244
vt 0.2548 0.6835
vt 0.2548 0.7665
vt 0.2548 0.7846
vt 0.2311 0.7846
vt 0.2311 0.7665
vt 0.2311 0.6835
vt 0.2311 0.6005
vt 0.2548 0.6005
vt 0.4386 0.7846
vt 0.4623 0.7846
vt 0.4623 0.8080
vt 0.4386 0.8080
vt 0.2548 0.8080
vt 0.2311 0.8080
vt 0.5188 0.5380
vt 0.5188 0.5175
vt 0.5471 0.5175
vt 0.5471 0.5380
vt 0.5471 0.6967
vt 0.5471 0.7171
vt 0.5188 0.7171
vt 0.5188 0.6967
vt 0.0000 0.5590
vt 0.0000 0.5175
vt 0.0237 0.5175
vt 0.0237 0.5590
vt 0.0237 0.5824
vt 0.0237 0.6005
vt 0.0237 0.6835
vt 0.0237 0.7665
vt 0.0237 0.8254
vt 0.0237 0.8495
vt 0.0000 0.8495
vt 0.0000 0.8254
vt 0.0000 0.7665
vt 0.0000 0.6835
vt 0.0000 0.6005
vt 0.0000 0.5824
vt 0.2075 0.5175
vt 0.2075 0.5590
vt 0.2075 0.5824
vt 0.2075 0.6005
vt 0.2075 0.6835
vt 0.2075 0.7665
vt 0.2075 0.8254
vt 0.2075 0.8495
vt 0.5471 0.5175
vt 0.5754 0.5175
vt 0.5754 0.6762
vt 0.5471 0.6762
vt 0.5754 0.5175
vt 0.6038 0.5175
vt 0.6038 0.6762
vt 0.5754 0.6762
vt 0.4623 0.6595
vt 0.4623 0.5765
vt 0.4623 0.5175
vt 0.4905 0.5175
vt 0.4905 0.5765
vt 0.4905 0.6595
vt 0.4905 0.7424
vt 0.4905 0.7605
vt 0.4623 0.7605
vt 0.4623 0.7424
vt 0.5188 0.5765
vt 0.5188 0.6595
vt 0.5188 0.7424
vt 0.5188 0.7605
vt 0.4905 0.7605
vt 0.4905 0.7424
vt 0.4905 0.6595
vt 0.4905 0.5765
vt 0.4905 0.5175
vt 0.5188 0.5175
vt 0.4623 0.6005
vt 0.4623 0.6835
vt 0.4623 0.7665
vt 0.4386 0.7665
vt 0.4386 0.6835
vt 0.4386 0.6005
vt 0.2311 0.5175
vt 0.2311 0.5590
vt 0.2311 0.5824
vt 0.2311 0.6005
vt 0.2311 0.6835
vt 0.2311 0.7665
vt 0.2311 0.8254
vt 0.2311 0.8495
vt 0.0000 0.0000
vt 0.0481 0.0000
vt 0.0752 0.0000
vt 0.0961 0.0000
vt 0.1922 0.0000
vt 0.2883 0.0000
vt 0.3566 0.0000
vt 0.3844 0.0000
vt 0.3844 0.0244
vt 0.3566 0.0244
vt 0.2883 0.0244
vt 0.1922 0.0244
vt 0.0961 0.0244
vt 0.0752 0.0244
vt 0.8388 0.2596
vt 0.8486 0.2665
vt 0.8598 0.2716
vt 0.8718 0.2748
vt 0.8844 0.2759
vt 0.8970 0.2748
vt 0.9091 0.2716
vt 0.9202 0.2665
vt 0.9300 0.2596
vt 0.8388 0.7473
vt 0.8486 0.7542
vt 0.8598 0.7594
vt 0.8718 0.7626
vt 0.8844 0.7636
vt 0.8970 0.7626
vt 0.9091 0.7594
vt 0.9202 0.7542
vt 0.9300 0.7473
vt 0.0000 0.0000
vt 1.0000 0.0000
vt 1.0000 1.0000
vt 0.0000 1.0000
vt 0.0000 0.0000
vt 1.0000 0.0000
vt 1.0000 1.0000
vt 0.0000 1.0000
vt 0.0000 0.0000
vt 1.0000 0.0000
vt 1.0000 1.0000
vt 0.0000 1.0000
vt 0.0000 0.0000
vt 1.0000 0.0000
vt 1.0000 1.0000
vt 0.0000 1.0000
vt 1.0000 0.0000
vt 1.0000 1.0000
vt 0.0000 0.0000
vt 0.0000 1.0000
vt 0.0000 0.0000
vt 1.0000 0.0000
vt 1.0000 1.0000
vt 0.0000 1.0000
vt 0.0000 0.0000
vt 1.0000 0.0000
vt 1.0000 1.0000
vt 0.0000 1.0000
vt 0.0000 0.0000
vt 1.0000 0.0000
vt 1.0000 1.0000
vt 0.0000 1.0000
vt 0.0000 0.0000
vt 1.0000 0.0000
vt 1.0000 1.0000
vt 0.0000 1.0000
vt 1.0000 0.0000
vt 1.0000 1.0000
vt 0.0000 0.0000
vt 0.0000 1.0000
vn -0.9952 0.0980 0.0000
vn -0.8819 0.4714 0.0000
vn -0.7730 0.6344 -0.0000
vn 0.9952 -0.0980 -0.0000
vn -0.9569 -0.2903 0.0000
vn -0.9952 -0.0980 0.0000
vn -0.7730 -0.6344 -0.0000
vn 0.0980 -0.9952 0.0000
vn 0.0980 0.9952 0.0000
vn 0.8819 -0.4714 0.0000
vn -0.0980 0.9952 0.0000
vn 0.2903 -0.9569 0.0000
vn -0.6344 -0.7730 0.0000
vn 0.4714 0.8819 0.0000
vn -0.4714 -0.8819 0.0000
vn -0.6344 0.7730 -0.0000
vn 0.6344 -0.7730 -0.0000
vn 0.9569 -0.2903 -0.0000
vn 0.6344 0.7730 0.0000
vn -0.4714 0.8819 0.0000
vn 0.8819 0.4714 0.0000
vn -0.0980 -0.9952 0.0000
vn -0.8819 -0.4714 0.0000
vn 0.9952 0.0980 0.0000
vn -0.9569 0.2903 0.0000
vn 0.2903 0.9569 0.0000
vn 0.4714 -0.8819 0.0000
vn -0.2903 0.9569 0.0000
vn -0.2903 -0.9569 0.0000
vn 0.9569 0.2903 -0.0000
vn 0.7730 -0.6344 0.0000
vn 0.7730 0.6344 0.0000
vn 0.0000 1.0000 0.0000
vn -1.0000 0.0000 0.0000
vn 0.0000 0.0000 -1.0000
vn 1.0000 0.0000 0.0000
vn 0.0000 0.0000 1.0000
vn 0.0000 -1.0000 -0.0000
vn -0.9805 0.1968 0.0000
vn -0.0000 0.0082 1.0000
vn 0.0000 0.0080 1.0000
vn 0.9805 0.1968 0.0000
vn 0.0000 -0.0082 -1.0000
vn 0.0019 0.0088 1.0000
vn 0.0016 0.0070 1.0000
vn -0.0009 0.0100 0.9999
usemtl Материал.004
s off
f 137/1/1 136/2/1 134/3/1 135/4/1
f 171/5/2 172/6/2 169/7/2 167/8/2
f 177/9/3 178/10/3 172/6/3 171/5/3
f 138/11/4 139/12/4 141/13/4 140/14/4
f 131/15/5 130/16/5 132/17/5 133/18/5
f 135/4/6 134/3/6 130/16/6 131/15/6
f 128/19/7 127/20/7 146/21/7 145/22/7 144/23/7 129/24/7
f 113/25/8 114/26/8 112/27/8 111/28/8
f 153/29/9 154/30/9 174/31/9 173/32/9
f 121/33/10 122/34/10 143/35/10 142/36/10
f 173/32/11 174/31/11 176/37/11 175/38/11
f 111/28/12 112/27/12 116/39/12 115/40/12
f 144/23/13 145/22/13 150/41/13 149/42/13
f 163/43/14 164/44/14 152/45/14 151/46/14
f 149/42/15 150/41/15 118/47/15 117/48/15
f 159/49/16 160/50/16 178/10/16 177/9/16
f 119/51/17 120/52/17 125/53/17 124/54/17
f 142/36/18 143/35/18 139/12/18 138/11/18
f 165/55/19 166/56/19 164/44/19 163/43/19
f 179/57/20 180/58/20 160/50/20 159/49/20
f 155/59/21 158/60/21 162/61/21 161/62/21
f 109/63/22 110/64/22 114/26/22 113/25/22
f 133/18/23 132/17/23 127/20/23 128/19/23
f 140/14/24 141/13/24 148/65/24 147/66/24
f 167/8/25 169/7/25 170/67/25 136/2/25 137/1/25 168/68/25
f 151/46/26 152/45/26 154/30/26 153/29/26
f 115/40/27 116/39/27 120/52/27 119/51/27
f 175/38/28 176/37/28 180/58/28 179/57/28
f 117/48/29 118/47/29 110/64/29 109/63/29
f 147/66/30 148/65/30 157/69/30 158/60/30 155/59/30 156/70/30
f 124/54/31 125/53/31 123/71/31 122/34/31 121/33/31 126/72/31
f 161/62/32 162/61/32 166/56/32 165/55/32
s 1
f 17/73/33 18/74/33 19/75/33 20/76/33
usemtl Материал.007
f 1/77/34 2/78/34 3/79/34 4/80/34
f 4/81/35 3/82/35 5/83/35 6/84/35
f 6/85/36 5/86/36 7/87/36 8/88/36
f 8/89/37 7/90/37 2/91/37 1/92/37
f 4/81/38 6/93/38 8/94/38 1/92/38
f 5/95/33 3/82/33 2/91/33 7/96/33
usemtl Материал.005
f 9/97/34 10/98/34 11/99/34 12/100/34
f 12/101/35 11/102/35 13/103/35 14/104/35
f 14/105/36 13/106/36 15/107/36 16/108/36
f 16/109/37 15/110/37 10/111/37 9/112/37
f 12/101/38 14/113/38 16/114/38 9/112/38
f 13/115/33 11/102/33 10/111/33 15/116/33
usemtl Материал.002
f 21/117/39 22/118/39 23/119/39 24/120/39
f 25/121/40 22/122/41 26/123/37 27/124/37 28/125/37 29/126/37 30/127/41 31/128/40
f 32/129/33 24/130/33 23/131/33 33/132/33
f 30/133/42 34/134/42 35/135/42 36/136/42
f 37/137/43 21/138/43 24/139/43 32/140/43 126/141/43 121/142/43 142/143/43 138/144/43 140/145/43 147/146/43 156/147/43
f 31/128/40 30/127/41 36/148/40 38/149/40 146/150/44 127/151/40 132/152/40 130/153/40 134/154/40 136/155/40 170/156/45
f 22/122/41 25/121/40 157/157/40 148/158/40 141/159/40 139/160/40 143/161/40 122/162/40 123/163/46 33/164/40 23/165/40
f 25/121/40 31/128/40 170/156/45 169/166/40 172/167/40 178/168/40 160/169/40 180/170/40 176/171/40 174/172/40 154/173/40 152/174/40 164/175/40 166/176/40 162/177/40 158/178/40 157/157/40
f 34/179/43 39/180/43 168/181/43 137/182/43 135/183/43 131/184/43 133/185/43 128/186/43 129/187/43 40/188/43 35/189/43
f 39/180/43 37/137/43 156/147/43 155/190/43 161/191/43 165/192/43 163/193/43 151/194/43 153/195/43 173/196/43 175/197/43 179/198/43 159/199/43 177/200/43 171/201/43 167/202/43 168/181/43
f 35/203/33 40/204/33 38/205/33 36/206/33
f 40/204/33 32/129/33 33/132/33 38/205/33
f 41/207/33 42/208/33 43/209/33 44/210/33 45/211/33 46/212/33 47/213/33 48/214/33
f 44/215/34 43/216/34 49/217/34 50/218/34 51/219/34 52/220/34 53/221/34 54/222/34 55/223/34 26/123/34 22/118/34 21/117/34 56/224/34 57/225/34 58/226/34 59/227/34
f 60/228/33 61/229/33 62/230/33 63/231/33 64/232/33 65/233/33 66/234/33 47/213/33 46/212/33 67/235/33
f 68/236/33 56/237/33 21/238/33 37/239/33 39/240/33 34/241/33 63/231/33 62/230/33
f 41/242/35 48/243/35 69/244/35 70/245/35 71/246/35 49/247/35 43/248/35 42/249/35
f 72/250/38 29/251/38 28/252/38 73/253/38 74/254/38 75/255/38 76/256/38 77/257/38 78/258/38 70/259/38 69/260/38 79/261/38 80/262/38 81/263/38 82/264/38 83/265/38
f 74/254/38 73/253/38 28/252/38 27/266/38 84/267/38 85/268/38 86/269/38 87/270/38 88/271/38 89/272/38 71/273/38 70/259/38 78/258/38 77/257/38 76/256/38 75/255/38
f 62/274/35 74/275/35 85/276/35 68/277/35
f 78/278/37 46/279/37 45/280/37 89/281/37
f 87/282/36 88/283/36 89/284/36 45/285/36 90/286/36 91/287/36 92/288/36 68/289/36 85/290/36 86/291/36
f 77/292/34 76/293/34 75/294/34 74/295/34 62/296/34 61/297/34 60/298/34 67/299/34 46/300/34 78/301/34
f 45/211/33 44/210/33 59/302/33 58/303/33 57/304/33 56/237/33 68/236/33 92/305/33 91/306/33 90/307/33
f 85/268/38 84/267/38 27/266/38 26/308/38 55/309/38 54/310/38 53/311/38 52/312/38 51/313/38 50/314/38 49/315/38 71/273/38 89/272/38 88/271/38 87/270/38 86/269/38
f 34/134/36 30/133/36 29/316/36 72/317/36 83/318/36 82/319/36 81/320/36 80/321/36 79/322/36 69/323/36 48/324/36 47/325/36 66/326/36 65/327/36 64/328/36 63/329/36
f 123/163/46 125/330/40 120/331/40 116/332/40 112/333/40 114/334/40 110/335/40 118/336/40 150/337/40 145/338/40 146/150/44 38/149/40 33/164/40
f 129/187/43 144/339/43 149/340/43 117/341/43 109/342/43 113/343/43 111/344/43 115/345/43 119/346/43 124/347/43 126/141/43 32/140/43 40/188/43
usemtl Материал.006
f 93/348/34 94/349/34 95/350/34 96/351/34
f 96/352/35 95/353/35 97/354/35 98/355/35
f 98/356/36 97/357/36 99/358/36 100/359/36
f 100/360/37 99/361/37 94/362/37 93/363/37
f 96/352/38 98/364/38 100/365/38 93/363/38
f 97/366/33 95/353/33 94/362/33 99/367/33
usemtl Материал.008
f 101/368/34 102/369/34 103/370/34 104/371/34
f 104/372/35 103/373/35 105/374/35 106/375/35
f 106/376/36 105/377/36 107/378/36 108/379/36
f 108/380/37 107/381/37 102/382/37 101/383/37
f 104/372/38 106/384/38 108/385/38 101/383/38
f 105/386/33 103/373/33 102/382/33 107/387/33
