# Blender v2.79 (sub 0) OBJ File: 'untitled.blend'
# www.blender.org
mtllib Door.mtl
o Плоскость.026_Плоскость.064
v -11.778884 0.000000 2.464572
v -11.778884 1.227317 2.464572
v -11.778884 4.107744 2.464572
v -9.454254 0.000000 1.280818
v -9.454254 1.227317 1.280818
v -9.454254 4.107744 1.280818
v -11.694058 4.107744 2.586618
v -9.369429 4.107744 1.402865
v -9.369429 1.227317 1.402865
v -11.694058 1.227317 2.586618
v -9.369429 0.000000 1.402865
v -11.694058 0.000000 2.586618
v -9.521092 2.033700 1.258509
v -9.451075 2.033700 1.381069
v -9.536942 1.977523 1.267564
v -9.466924 1.977523 1.390123
v -9.578435 1.942803 1.291269
v -9.508417 1.942803 1.413829
v -9.629724 1.942803 1.320570
v -9.559706 1.942803 1.443130
v -9.671217 1.977523 1.344276
v -9.601199 1.977523 1.466835
v -9.687066 2.033700 1.353330
v -9.617048 2.033700 1.475890
v -9.671217 2.089878 1.344276
v -9.601199 2.089878 1.466835
v -9.629724 2.124598 1.320570
v -9.559706 2.124598 1.443130
v -9.578435 2.124598 1.291269
v -9.508417 2.124598 1.413829
v -9.536942 2.089878 1.267564
v -9.466924 2.089878 1.390123
v -9.508311 2.033700 1.280882
v -9.524160 1.977523 1.289937
v -9.565653 1.942803 1.313642
v -9.616942 1.942803 1.342943
v -9.658436 1.977523 1.366649
v -9.674285 2.033700 1.375703
v -9.658436 2.089878 1.366649
v -9.616942 2.124598 1.342943
v -9.565653 2.124598 1.313642
v -9.524160 2.089878 1.289937
v -9.893970 2.040793 1.465561
v -9.899032 2.040793 1.456701
v -9.892756 2.063040 1.453115
v -9.887693 2.063040 1.461975
v -9.803228 2.080057 1.409523
v -9.814292 2.040845 1.415843
v -9.812150 2.080057 1.393907
v -9.823214 2.040845 1.400227
v -9.726374 2.037789 1.386863
v -9.712917 2.085485 1.379176
v -9.723769 2.085485 1.360182
v -9.737225 2.037789 1.367869
v -9.441549 1.854320 1.376823
v -9.458948 1.807853 1.384876
v -9.504499 1.779135 1.405962
v -9.560804 1.779135 1.432024
v -9.606356 1.807853 1.453109
v -9.623755 1.854320 1.461163
v -9.606356 1.900786 1.453109
v -9.560804 1.929504 1.432024
v -9.504499 1.929504 1.405962
v -9.458948 1.900786 1.384876
v -9.501605 1.854320 1.295609
v -9.519005 1.807853 1.303663
v -9.564555 1.779135 1.324748
v -9.620859 1.779135 1.350810
v -9.666411 1.807853 1.371896
v -9.683810 1.854320 1.379949
v -9.666411 1.900786 1.371896
v -9.620859 1.929504 1.350810
v -9.564555 1.929504 1.324748
v -9.519005 1.900786 1.303663
vt 0.899917 0.960571
vt 0.899917 0.291867
vt 0.099756 0.291867
vt 0.099756 0.960571
vt 0.899917 0.005238
vt 0.099756 0.005238
vt 0.905547 0.969043
vt 0.097317 0.969043
vt 0.097318 0.290065
vt 0.905546 0.290065
vt 0.097318 0.000760
vt 0.905547 0.000760
vt 0.156117 0.441946
vt 0.156117 0.569954
vt 0.135178 0.569954
vt 0.135178 0.441946
vt 0.156117 0.568305
vt 0.156117 0.441946
vt 0.167204 0.453093
vt 0.167204 0.579451
vt 0.156117 0.870380
vt 0.135178 0.870380
vt 0.808565 0.501790
vt 0.808565 0.373782
vt 0.829504 0.373782
vt 0.829504 0.501790
vt 0.808565 0.802215
vt 0.829504 0.802215
vt 0.000000 0.000000
vt 0.000000 0.000000
vt 0.000000 0.000000
vt 0.000000 0.000000
vt 0.000000 0.000000
vt 0.000000 0.000000
vt 0.000000 0.000000
vt 0.000000 0.000000
vt 0.000000 0.000000
vt 0.000000 0.000000
vt 0.954142 0.916560
vt 0.954665 0.916170
vt 0.954196 0.916517
vt 0.954174 0.916467
vt 0.000000 0.000000
vt 0.000000 0.000000
vt 0.000000 0.000000
vt 0.000000 0.000000
vt 0.953098 0.916945
vt 0.955246 0.914817
vt 0.951267 0.918241
vt 0.956734 0.912946
vt 0.967912 0.923323
vt 0.967593 0.928113
vt 0.967771 0.934043
vt 0.960942 0.937149
vt 0.955101 0.930010
vt 0.955408 0.920731
vt 0.958869 0.915671
vt 0.963105 0.915175
vt 0.964233 0.916340
vt 0.965325 0.918652
vt 0.954740 0.915875
vt 0.954036 0.916644
vt 0.954139 0.916439
vt 0.954114 0.916387
vt 0.956772 0.915578
vt 0.954367 0.918358
vt 0.968465 0.922352
vt 0.976864 0.913676
vt 0.982710 0.920713
vt 0.970095 0.928066
vt 0.988867 0.924342
vt 0.973714 0.932871
vt 0.954216 0.938840
vt 0.926908 0.931981
vt 0.924638 0.920327
vt 0.949703 0.929530
vt 0.928587 0.904823
vt 0.942271 0.896305
vt 0.954159 0.896305
vt 0.962770 0.913001
vt 0.961960 0.901405
vt 0.964054 0.915501
vt 0.969931 0.906778
vt 0.965822 0.917817
vt 0.948227 0.951334
vt 0.953751 0.940137
vt 0.962158 0.946279
vt 0.951865 0.954315
vt 0.968635 0.949254
vt 0.955112 0.958901
vt 0.000000 0.000000
vt 0.000000 0.000000
vt 0.000000 0.000000
vt 0.000000 0.000000
vt 0.952703 0.964005
vt 0.937366 0.974965
vt 0.929920 0.970617
vt 0.945476 0.962476
vt 0.924638 0.960318
vt 0.940599 0.956840
vt 0.924638 0.948461
vt 0.940194 0.951097
vt 0.930504 0.941566
vt 0.941939 0.948055
vt 0.935918 0.941064
vt 0.943767 0.947944
vt 0.943546 0.938858
vt 0.945691 0.948885
vn 0.4538 0.0000 0.8911
vn -0.4538 0.0000 -0.8911
vn 0.8211 0.0000 -0.5707
vn 0.0000 -1.0000 0.0000
vn -0.8211 0.0000 0.5707
vn 0.4961 0.0000 0.8683
vn 0.2954 -0.7243 0.6229
vn 0.1861 0.7483 0.6367
vn -0.1316 0.5973 0.7911
vn -0.2885 -0.4854 0.8253
vn -0.1140 -0.7278 -0.6762
vn 0.2683 -0.9510 -0.1533
vn -0.2683 -0.9510 0.1533
vn -0.5246 -0.7278 -0.4416
vn 0.1589 -0.6795 0.7162
vn 0.1261 0.7367 0.6644
vn -0.6400 -0.2803 0.7154
vn -0.4609 0.7443 0.4834
vn -0.4961 0.0000 -0.8683
vn -0.5969 0.0392 -0.8013
vn -0.3533 -0.0509 -0.9341
vn -0.2832 -0.0742 -0.9562
vn 0.8683 0.0000 -0.4960
vn 0.9838 0.0000 0.1793
vn 0.8569 -0.4498 0.2518
vn 0.7024 -0.5878 -0.4013
vn 0.5246 -0.7278 0.4416
vn 0.1140 -0.7278 0.6762
vn -0.2182 -0.4498 0.8660
vn -0.7024 -0.5878 0.4013
vn -0.3451 0.0000 0.9385
vn -0.2182 0.4498 0.8660
vn 0.1140 0.7278 0.6762
vn -0.2683 0.9510 0.1533
vn 0.5246 0.7278 0.4416
vn 0.2683 0.9510 -0.1533
vn 0.8569 0.4498 0.2518
vn 0.7024 0.5878 -0.4013
vn 0.2182 0.4498 -0.8660
vn 0.3451 0.0000 -0.9385
vn -0.1140 0.7278 -0.6762
vn -0.5246 0.7278 -0.4416
vn -0.5249 0.6211 -0.5820
vn -0.8569 -0.4498 -0.2518
vn -0.6295 -0.4792 -0.6116
vn 0.2182 -0.4498 -0.8660
vn -0.8650 -0.4888 -0.1132
vn -0.7620 0.6126 -0.2097
vn -0.3954 0.6820 -0.6152
vn -0.3820 -0.6718 -0.6346
vn -0.2597 -0.7177 -0.6461
vn -0.2748 0.6760 -0.6837
vn 0.3473 0.0000 -0.9377
vn 0.8040 0.0000 -0.5946
vn 0.6228 -0.6324 -0.4606
vn 0.1845 -0.4896 -0.8522
vn 0.2355 -0.9561 -0.1742
vn -0.1300 -0.7227 -0.6788
vn -0.1848 -0.9732 0.1367
vn -0.4675 -0.7428 -0.4792
vn -0.5939 -0.6741 0.4392
vn -0.8114 -0.5211 -0.2647
vn -0.8040 0.0000 0.5946
vn -0.9884 0.0000 -0.1517
vn -0.5939 0.6741 0.4392
vn -0.8114 0.5211 -0.2647
vn -0.1848 0.9732 0.1367
vn -0.4675 0.7428 -0.4792
vn 0.2355 0.9561 -0.1742
vn -0.1300 0.7227 -0.6788
vn 0.6228 0.6324 -0.4606
vn 0.1845 0.4896 -0.8522
usemtl Материал.087
s off
f 3/1/1 2/2/1 5/3/1 6/4/1
f 2/2/1 1/5/1 4/6/1 5/3/1
f 7/7/2 8/8/2 9/9/2 10/10/2
f 10/10/2 9/9/2 11/11/2 12/12/2
f 1/13/3 2/14/3 10/15/3 12/16/3
f 3/17/4 6/18/4 8/19/4 7/20/4
f 2/14/3 3/21/3 7/22/3 10/15/3
f 5/23/5 4/24/5 11/25/5 9/26/5
f 6/27/5 5/23/5 9/26/5 8/28/5
f 16/29/6 14/30/6 32/31/6 30/32/6 28/33/6 26/34/6 24/35/6 22/36/6 20/37/6 18/38/6
s 1
f 48/39/7 47/40/8 46/41/9 43/42/10
f 17/43/11 35/44/12 36/45/13 19/46/14
f 51/47/15 52/48/16 47/40/8 48/39/7
f 38/49/17 39/50/18 52/48/16 51/47/15
usemtl Материал.088
s off
f 13/51/19 15/52/19 17/53/19 19/54/19 21/55/19 23/56/19 25/57/19 27/58/19 29/59/19 31/60/19
f 49/61/20 50/62/20 44/63/20 45/64/20
f 53/65/21 54/66/21 50/62/21 49/61/21
f 25/57/22 23/56/22 54/66/22 53/65/22
s 1
f 33/67/23 14/68/24 16/69/25 34/70/26
f 34/70/26 16/69/25 18/71/27 35/72/12
f 35/44/12 18/38/27 20/37/28 36/45/13
f 36/73/13 20/74/28 22/75/29 37/76/30
f 37/76/30 22/75/29 24/77/31 38/49/17
f 38/49/17 24/77/31 26/78/32 39/50/18
f 39/50/18 26/78/32 28/79/33 40/80/34
f 40/80/34 28/79/33 30/81/35 41/82/36
f 41/82/36 30/81/35 32/83/37 42/84/38
f 42/84/38 32/83/37 14/68/24 33/67/23
f 31/60/39 42/84/38 33/67/23 13/51/40
f 29/59/41 41/82/36 42/84/38 31/60/39
f 27/58/42 40/80/34 41/82/36 29/59/41
f 25/57/43 39/50/18 40/80/34 27/58/42
f 21/55/44 37/76/30 38/49/17 23/56/45
f 19/54/14 36/73/13 37/76/30 21/55/44
f 15/52/46 34/70/26 35/72/12 17/53/11
f 13/51/40 33/67/23 34/70/26 15/52/46
f 44/63/47 43/42/10 46/41/9 45/64/48
f 47/40/8 49/61/49 45/64/48 46/41/9
f 50/62/50 48/39/7 43/42/10 44/63/47
f 54/66/51 51/47/15 48/39/7 50/62/50
f 52/48/16 53/65/52 49/61/49 47/40/8
f 39/50/18 25/57/43 53/65/52 52/48/16
f 23/56/45 38/49/17 51/47/15 54/66/51
f 65/85/53 55/86/54 56/87/55 66/88/56
f 66/88/56 56/87/55 57/89/57 67/90/58
f 67/91/58 57/92/57 58/93/59 68/94/60
f 68/95/60 58/96/59 59/97/61 69/98/62
f 69/98/62 59/97/61 60/99/63 70/100/64
f 70/100/64 60/99/63 61/101/65 71/102/66
f 71/102/66 61/101/65 62/103/67 72/104/68
f 72/104/68 62/103/67 63/105/69 73/106/70
f 73/106/70 63/105/69 64/107/71 74/108/72
f 74/108/72 64/107/71 55/86/54 65/85/53
f 74/108/72 65/85/53 66/88/56 67/90/58 68/95/60 69/98/62 70/100/64 71/102/66 72/104/68 73/106/70
