# Blender v2.78 (sub 0) OBJ File: 'Room.obj'
# www.blender.org
mtllib Room.mtl
o Плоскость.035_Плоскость.010
v -1.440401 0.001678 -1.804352
v -1.440401 0.001678 1.158486
v 6.254282 0.001677 1.158484
v 6.254282 0.001677 -1.804354
v 6.254282 0.001677 -3.704136
v -1.440401 0.001678 -3.704135
v -1.440401 0.001678 3.058267
v 6.254282 0.001677 3.058267
v 6.254282 1.228994 1.158484
v 6.254282 1.228994 -1.804354
v -1.440401 1.228995 3.058267
v 6.254282 1.228994 3.058267
v 6.254282 1.228994 -3.704136
v -1.440401 1.228995 -3.704135
v -1.440401 1.228995 -1.804352
v -1.440401 1.228995 1.158486
v -1.440401 4.109422 3.058267
v 6.254283 4.109421 3.058267
v 6.254283 4.109421 -3.704136
v -1.440401 4.109422 -3.704135
v -1.440401 4.109422 -1.804352
v 6.254283 4.109421 -1.804354
v 6.254283 4.109421 1.158484
v -1.440401 4.109422 1.158486
v 6.254283 5.298920 1.158484
v 6.254283 5.298920 -1.804354
v -1.440399 5.298921 3.058267
v 6.254283 5.298920 3.058267
v 6.254283 5.298920 -3.704136
v -1.440401 5.298921 -3.704135
v -1.440401 5.298921 -1.804352
v -1.440399 5.298921 1.158486
v -1.440403 4.109422 -1.813928
v -1.440403 5.298921 -1.813928
vt 0.9129 0.3076
vt 0.9129 0.4086
vt 0.6506 0.4086
vt 0.6506 0.3076
vt 0.6506 0.2429
vt 0.9129 0.2429
vt 0.9129 0.4734
vt 0.6506 0.4734
vt 0.4062 0.7242
vt 0.5300 0.7242
vt 0.5300 0.7844
vt 0.4062 0.7844
vt 0.6094 0.7242
vt 0.8129 0.7242
vt 0.8129 0.7844
vt 0.6094 0.7844
vt 0.1562 0.2033
vt 0.4285 0.2033
vt 0.4285 0.2711
vt 0.1562 0.2711
vt 0.0094 0.7242
vt 0.0850 0.7242
vt 0.0850 0.7844
vt 0.0094 0.7844
vt 0.3268 0.7242
vt 0.3268 0.7844
vt 0.8867 0.7242
vt 0.8867 0.7844
vt 0.8129 0.9256
vt 0.6094 0.9256
vt 0.4285 0.4302
vt 0.1562 0.4302
vt 0.0850 0.9256
vt 0.0094 0.9256
vt 0.4062 0.9256
vt 0.3268 0.9256
vt 0.5300 0.9256
vt 0.8867 0.9256
vt 0.5300 0.9839
vt 0.4062 0.9839
vt 0.8129 0.9839
vt 0.6094 0.9839
vt 0.4285 0.4958
vt 0.1562 0.4958
vt 0.0850 0.9839
vt 0.0094 0.9839
vt 0.3268 0.9839
vt 0.8867 0.9839
vt 0.9904 0.9256
vt 0.9904 0.9839
vn 0.0000 1.0000 0.0000
vn -1.0000 0.0000 0.0000
vn 0.0000 0.0000 -1.0000
vn 0.0000 0.0000 1.0000
vn 1.0000 0.0000 0.0000
usemtl Материал.098
s 1
f 1/1/1 2/2/1 3/3/1 4/4/1
f 1/1/1 4/4/1 5/5/1 6/6/1
f 3/3/1 2/2/1 7/7/1 8/8/1
f 4/9/2 3/10/2 9/11/2 10/12/2
f 8/13/3 7/14/3 11/15/3 12/16/3
f 6/17/4 5/18/4 13/19/4 14/20/4
f 1/21/5 6/22/5 14/23/5 15/24/5
f 5/25/2 4/9/2 10/12/2 13/26/2
f 3/10/2 8/13/2 12/16/2 9/11/2
f 7/14/5 2/27/5 16/28/5 11/15/5
f 12/16/3 11/15/3 17/29/3 18/30/3
f 14/20/4 13/19/4 19/31/4 20/32/4
f 15/24/5 14/23/5 20/33/5 21/34/5
f 13/26/2 10/12/2 22/35/2 19/36/2
f 9/11/2 12/16/2 18/30/2 23/37/2
f 11/15/5 16/28/5 24/38/5 17/29/5
f 22/35/2 23/37/2 25/39/2 26/40/2
f 18/30/3 17/29/3 27/41/3 28/42/3
f 20/32/4 19/31/4 29/43/4 30/44/4
f 21/34/5 20/33/5 30/45/5 31/46/5
f 19/36/2 22/35/2 26/40/2 29/47/2
f 23/37/2 18/30/2 28/42/2 25/39/2
f 17/29/5 24/38/5 32/48/5 27/41/5
f 32/48/5 24/38/5 33/49/5 34/50/5
