# Blender v2.79 (sub 0) OBJ File: 'untitled.blend'
# www.blender.org
mtllib Room.mtl
o Плоскость.035_Плоскость.010
v -9.317225 -1.434217 -22.692183
v -6.354387 -1.434217 -22.692183
v -9.317224 -1.434217 -14.997499
v -6.354386 -1.434217 -14.997499
v -11.217006 -1.434217 -22.692183
v -4.454604 -1.434217 -22.692183
v -4.454603 -1.434217 -14.997499
v -11.217006 -1.434217 -14.997499
v -9.317225 -0.206900 -22.692183
v -6.354387 -0.206900 -22.692183
v -9.317224 -0.206900 -14.997499
v -6.354386 -0.206900 -14.997499
v -11.217006 -0.206900 -22.692183
v -4.454604 -0.206900 -22.692183
v -4.454603 -0.206900 -14.997499
v -11.217006 -0.206900 -14.997499
v -9.317225 2.673527 -22.692183
v -6.354387 2.673527 -22.692183
v -6.354386 2.673527 -14.997499
v -9.317224 2.673527 -14.997499
v -11.217006 2.673527 -22.692183
v -4.454604 2.673527 -22.692183
v -4.454603 2.673527 -14.997499
v -11.217006 2.673527 -14.997499
v -9.317225 3.863026 -22.692183
v -6.354387 3.863026 -22.692183
v -6.354386 3.863026 -14.997499
v -9.317224 3.863026 -14.997499
v -11.217006 3.863026 -22.692183
v -4.454604 3.863026 -22.692183
v -4.454603 3.863026 -14.997499
v -11.217006 3.863026 -14.997499
v -6.344811 2.673527 -22.692184
v -6.344811 3.863026 -22.692184
vt 0.912904 0.307620
vt 0.912904 0.408626
vt 0.650585 0.408626
vt 0.650585 0.307620
vt 0.650585 0.242855
vt 0.912904 0.242855
vt 0.912904 0.473391
vt 0.650585 0.473391
vt 0.406215 0.724168
vt 0.530025 0.724169
vt 0.530025 0.784353
vt 0.406215 0.784353
vt 0.609412 0.724169
vt 0.812945 0.724168
vt 0.812945 0.784353
vt 0.609412 0.784353
vt 0.156216 0.203307
vt 0.428514 0.203307
vt 0.428513 0.271084
vt 0.156216 0.271084
vt 0.009420 0.724168
vt 0.085034 0.724168
vt 0.085034 0.784353
vt 0.009420 0.784353
vt 0.326829 0.724168
vt 0.326828 0.784353
vt 0.886700 0.724168
vt 0.886700 0.784353
vt 0.812945 0.925602
vt 0.609412 0.925602
vt 0.428513 0.430152
vt 0.156216 0.430152
vt 0.085034 0.925602
vt 0.009420 0.925602
vt 0.406215 0.925602
vt 0.326828 0.925602
vt 0.530024 0.925602
vt 0.886700 0.925602
vt 0.530024 0.983932
vt 0.406215 0.983932
vt 0.812945 0.983932
vt 0.609412 0.983932
vt 0.428513 0.495841
vt 0.156216 0.495840
vt 0.085034 0.983932
vt 0.009420 0.983932
vt 0.326828 0.983932
vt 0.886700 0.983933
vt 0.990415 0.925602
vt 0.990415 0.983932
vn 0.0000 1.0000 0.0000
vn 0.0000 0.0000 -1.0000
vn 1.0000 0.0000 0.0000
vn -1.0000 0.0000 0.0000
vn 0.0000 0.0000 1.0000
usemtl Материал.098
s off
f 2/1/1 1/2/1 3/3/1 4/4/1
f 2/1/1 4/4/1 7/5/1 6/6/1
f 3/3/1 1/2/1 5/7/1 8/8/1
f 4/9/2 3/10/2 11/11/2 12/12/2
f 8/13/3 5/14/3 13/15/3 16/16/3
f 6/17/4 7/18/4 15/19/4 14/20/4
f 2/21/5 6/22/5 14/23/5 10/24/5
f 7/25/2 4/9/2 12/12/2 15/26/2
f 3/10/2 8/13/2 16/16/2 11/11/2
f 5/14/5 1/27/5 9/28/5 13/15/5
f 16/16/3 13/15/3 21/29/3 24/30/3
f 14/20/4 15/19/4 23/31/4 22/32/4
f 10/24/5 14/23/5 22/33/5 18/34/5
f 15/26/2 12/12/2 19/35/2 23/36/2
f 11/11/2 16/16/2 24/30/2 20/37/2
f 13/15/5 9/28/5 17/38/5 21/29/5
f 19/35/2 20/37/2 28/39/2 27/40/2
f 24/30/3 21/29/3 29/41/3 32/42/3
f 22/32/4 23/31/4 31/43/4 30/44/4
f 18/34/5 22/33/5 30/45/5 26/46/5
f 23/36/2 19/35/2 27/40/2 31/47/2
f 20/37/2 24/30/2 32/42/2 28/39/2
f 21/29/5 17/38/5 25/48/5 29/41/5
f 25/48/5 17/38/5 33/49/5 34/50/5
