# Blender v2.78 (sub 0) OBJ File: ''
# www.blender.org
mtllib tablemetal.mtl
o Cube.029_Cube.000
v 0.441519 1.052489 -0.913179
v -0.441586 1.052489 -0.913145
v -0.389796 1.048470 -0.806032
v 0.389739 1.048470 -0.806061
v 0.441588 1.052489 0.921750
v 0.549362 1.052489 0.921745
v 0.484934 1.048470 0.813667
v 0.389799 1.048470 0.813670
v -0.484876 0.062074 0.679894
v -0.484871 0.062074 0.813703
v -0.484871 0.987968 0.813703
v -0.484876 0.987968 0.679894
v 0.389794 1.048470 0.651004
v -0.389742 1.048470 0.651034
v -0.389736 1.048470 0.813699
v 0.484878 0.884508 -0.679635
v 0.484930 0.884508 0.679857
v 0.389794 0.884508 0.679860
v 0.389743 0.884508 -0.679631
v 0.389743 0.987968 -0.679631
v 0.484878 0.987968 -0.679635
v -0.389791 0.884508 -0.679601
v -0.484926 0.884508 -0.679598
v -0.484926 0.987968 -0.679598
v -0.389791 0.987968 -0.679601
v -0.441586 0.983949 -0.913146
v 0.441519 0.983949 -0.913179
v 0.389739 0.987968 -0.806061
v -0.389796 0.987968 -0.806032
v -0.484926 1.048470 -0.679598
v -0.484931 1.048470 -0.806028
v -0.549359 1.052489 -0.913141
v -0.549354 1.052489 -0.769914
v -0.549297 1.052489 0.737509
v -0.549291 1.052489 0.921787
v -0.484871 1.048470 0.813703
v -0.484877 1.048470 0.651036
v 0.549293 1.052489 -0.913183
v 0.484874 1.048470 -0.806065
v 0.549293 0.983949 -0.913183
v -0.389791 1.048470 -0.679601
v 0.389799 0.884508 0.813670
v 0.389794 0.987968 0.679860
v 0.389799 0.987968 0.813670
v 0.484928 1.048470 0.651001
v 0.484878 1.048470 -0.679635
v 0.389743 1.048470 -0.679631
v 0.389739 0.884508 -0.806061
v -0.389796 0.884508 -0.806032
v -0.389741 0.987968 0.679890
v -0.389741 0.884508 0.679890
v -0.484876 0.884508 0.679894
v -0.389736 0.884508 0.813699
v 0.484934 0.062074 0.813667
v 0.484930 0.062074 0.679857
v 0.484930 0.987968 0.679857
v 0.484934 0.987968 0.813667
v -0.484931 0.987968 -0.806028
v -0.389796 0.062074 -0.806033
v -0.484931 0.062074 -0.806029
v -0.549291 0.983949 0.921787
v -0.549297 0.983949 0.770200
v -0.549354 0.983949 -0.769914
v -0.549359 0.983949 -0.913141
v 0.549355 1.052489 0.737468
v 0.549299 1.052489 -0.769955
v -0.441516 1.052489 0.921782
v 0.484874 0.987968 -0.806065
v 0.484874 0.062074 -0.806067
v 0.389739 0.062074 -0.806061
v 0.441588 0.983949 0.921750
v 0.549362 0.983949 0.921745
v -0.441516 0.983949 0.921782
v -0.389736 0.987968 0.813699
v 0.389794 0.062074 0.679859
v 0.389799 0.062074 0.813669
v -0.484926 0.062074 -0.679598
v -0.389791 0.062074 -0.679601
v 0.389743 0.062074 -0.679631
v 0.484878 0.062074 -0.679635
v -0.389736 0.062074 0.813698
v -0.389741 0.062074 0.679889
v 0.549356 0.983949 0.770158
v 0.549299 0.983949 -0.769955
vt 0.0000 0.6209
vt 0.0000 0.3434
vt 0.0205 0.3597
vt 0.0205 0.6046
vt 0.3518 0.6209
vt 0.3518 0.6548
vt 0.3311 0.6345
vt 0.3311 0.6046
vt 0.5294 0.8739
vt 0.5294 0.9159
vt 0.3518 0.9159
vt 0.3518 0.8739
vt 0.2999 0.6046
vt 0.2999 0.3597
vt 0.3311 0.3597
vt 0.2607 0.1496
vt 0.5214 0.1496
vt 0.5214 0.1795
vt 0.2607 0.1795
vt 0.5412 0.1821
vt 0.5412 0.2120
vt 0.5214 0.2120
vt 0.5214 0.1821
vt 0.5412 0.2120
vt 0.5412 0.2419
vt 0.5214 0.2419
vt 0.5214 0.2120
vt 0.0000 0.9661
vt 0.0000 0.6886
vt 0.0205 0.7049
vt 0.0205 0.9499
vt 0.0448 0.3298
vt 0.0205 0.3298
vt 0.0000 0.3096
vt 0.0275 0.3096
vt 0.3165 0.3096
vt 0.3518 0.3096
vt 0.3311 0.3298
vt 0.2999 0.3298
vt 0.0000 0.6548
vt 0.0205 0.6345
vt 0.2107 0.0000
vt 0.2107 0.0215
vt 0.1900 0.0215
vt 0.1900 0.0000
vt 0.0448 0.3597
vt 0.0207 0.0215
vt 0.0207 0.0000
vt 0.5013 0.6404
vt 0.5270 0.6404
vt 0.5270 0.6729
vt 0.5013 0.6729
vt 0.2999 0.6345
vt 0.0448 0.6345
vt 0.0448 0.6046
vt 0.5013 0.5911
vt 0.5013 0.6309
vt 0.3518 0.6309
vt 0.3518 0.5911
vt 0.0000 0.0646
vt 0.2607 0.0646
vt 0.2607 0.3096
vt 0.0000 0.3096
vt 0.2607 0.1197
vt 0.5214 0.1197
vt 0.5214 0.1496
vt 0.2607 0.1496
vt 0.3518 0.6729
vt 0.3518 0.6309
vt 0.5013 0.6309
vt 0.5013 0.6729
vt 0.3518 1.0000
vt 0.3518 0.9580
vt 0.5294 0.9580
vt 0.5294 1.0000
vt 0.5294 0.3520
vt 0.5294 0.3819
vt 0.3518 0.3819
vt 0.3518 0.3520
vt 0.0448 0.9798
vt 0.3055 0.9798
vt 0.3311 0.9798
vt 0.3518 1.0000
vt 0.3228 1.0000
vt 0.0275 1.0000
vt 0.0000 1.0000
vt 0.0205 0.9798
vt 0.3165 0.6548
vt 0.0275 0.6548
vt 0.3518 0.3434
vt 0.0000 0.0646
vt 0.0000 0.0431
vt 0.0275 0.0431
vt 0.3228 0.0431
vt 0.3518 0.0431
vt 0.3518 0.0646
vt 0.3165 0.0646
vt 0.0275 0.0646
vt 0.5294 0.3819
vt 0.5294 0.4118
vt 0.3518 0.4118
vt 0.3518 0.3819
vt 0.0000 0.0215
vt 0.0000 0.0000
vt 0.5418 0.0431
vt 0.5418 0.0215
vt 0.5625 0.0215
vt 0.5625 0.0431
vt 0.3518 0.0431
vt 0.3518 0.0215
vt 0.3725 0.0215
vt 0.3725 0.0431
vt 0.5270 0.6404
vt 0.5013 0.6404
vt 0.5013 0.6079
vt 0.5270 0.6079
vt 0.5214 0.2744
vt 0.5214 0.2445
vt 0.5412 0.2445
vt 0.5412 0.2744
vt 0.5214 0.3096
vt 0.2607 0.3096
vt 0.2607 0.2770
vt 0.5214 0.2770
vt 0.3518 0.9580
vt 0.3518 0.9159
vt 0.5294 0.9159
vt 0.5294 0.9580
vt 0.3518 0.4716
vt 0.3518 0.4417
vt 0.5294 0.4417
vt 0.5294 0.4716
vt 0.3518 0.5313
vt 0.3518 0.5015
vt 0.5294 0.5015
vt 0.5294 0.5313
vt 0.3518 0.7524
vt 0.3518 0.7126
vt 0.5294 0.7126
vt 0.5294 0.7524
vt 0.3518 0.8739
vt 0.3518 0.8318
vt 0.5294 0.8318
vt 0.5294 0.8739
vt 0.5294 0.5313
vt 0.5294 0.5612
vt 0.3518 0.5612
vt 0.3518 0.5313
vt 0.4101 0.0872
vt 0.5596 0.0872
vt 0.5596 0.1197
vt 0.4101 0.1197
vt 0.3518 0.4417
vt 0.3518 0.4118
vt 0.5294 0.4118
vt 0.5294 0.4417
vt 0.3518 0.0215
vt 0.3518 0.0431
vt 0.3228 0.0431
vt 0.0275 0.0431
vt 0.0000 0.0431
vt 0.0000 0.0215
vt 0.0275 0.0215
vt 0.3165 0.0215
vt 0.5214 0.1795
vt 0.5214 0.1496
vt 0.5412 0.1496
vt 0.5412 0.1795
vt 0.4101 0.1197
vt 0.2607 0.1197
vt 0.2607 0.0872
vt 0.4101 0.0872
vt 0.3518 0.7921
vt 0.3518 0.7524
vt 0.5294 0.7524
vt 0.5294 0.7921
vt 0.5294 0.7921
vt 0.5294 0.8318
vt 0.3518 0.8318
vt 0.3518 0.7921
vt 0.3518 0.6548
vt 0.3518 0.6886
vt 0.3311 0.7049
vt 0.3311 0.6750
vt 0.0000 0.6548
vt 0.0205 0.6750
vt 0.3518 0.9661
vt 0.3311 0.9499
vt 0.3055 0.6750
vt 0.0448 0.6750
vt 0.0275 0.6548
vt 0.3228 0.6548
vt 0.2607 0.2445
vt 0.2607 0.2120
vt 0.5214 0.2120
vt 0.5214 0.2120
vt 0.2607 0.2120
vt 0.2607 0.1795
vt 0.5214 0.1795
vt 0.2607 0.2445
vt 0.5214 0.2445
vt 0.5214 0.2770
vt 0.2607 0.2770
vt 0.3518 0.5911
vt 0.3518 0.5612
vt 0.5294 0.5612
vt 0.5294 0.5911
vt 0.5214 0.2770
vt 0.5456 0.2770
vt 0.5456 0.3096
vt 0.5214 0.3096
vt 0.4101 0.0547
vt 0.5596 0.0547
vt 0.5596 0.0872
vt 0.4101 0.0872
vt 0.5294 0.4716
vt 0.5294 0.5015
vt 0.3518 0.5015
vt 0.3518 0.4716
vt 0.5294 0.7126
vt 0.3518 0.7126
vt 0.3518 0.6729
vt 0.5294 0.6729
vt 0.5013 0.3195
vt 0.5256 0.3195
vt 0.5256 0.3520
vt 0.5013 0.3520
vt 0.5013 0.3520
vt 0.3518 0.3520
vt 0.3518 0.3195
vt 0.5013 0.3195
vn 0.0000 0.9993 0.0375
vn -0.0000 0.9993 -0.0372
vn -1.0000 0.0000 0.0000
vn 0.0000 1.0000 0.0000
vn -0.0000 -1.0000 -0.0000
vn -0.0000 0.0000 -1.0000
vn 0.0000 -0.9993 0.0375
vn 0.0623 0.9981 -0.0000
vn 1.0000 0.0000 -0.0000
vn 0.0623 -0.9981 -0.0000
vn -0.0623 0.9981 0.0000
vn -0.0001 0.0000 -1.0000
vn 0.0000 0.0000 1.0000
vn -0.0000 -0.9993 -0.0372
vn -0.0623 -0.9981 0.0000
usemtl Материал.007
s 1
f 1/1/1 2/2/1 3/3/1 4/4/1
f 5/5/2 6/6/2 7/7/2 8/8/2
f 9/9/3 10/10/3 11/11/3 12/12/3
f 8/8/4 13/13/4 14/14/4 15/15/4
f 16/16/5 17/17/5 18/18/5 19/19/5
f 16/20/6 19/21/6 20/22/6 21/23/6
f 22/24/6 23/25/6 24/26/6 25/27/6
f 26/28/7 27/29/7 28/30/7 29/31/7
f 30/32/8 31/33/8 32/34/8 33/35/8 34/36/8 35/37/8 36/38/8 37/39/8
f 38/40/1 1/1/1 4/4/1 39/41/1
f 38/42/6 40/43/6 27/44/6 1/45/6
f 14/14/4 41/46/4 30/32/4 37/39/4
f 26/47/6 2/48/6 1/45/6 27/44/6
f 42/49/9 18/50/9 43/51/9 44/52/9
f 45/53/4 46/54/4 47/55/4 13/13/4
f 48/56/5 19/57/5 22/58/5 49/59/5
f 46/54/4 39/41/4 4/4/4 47/55/4
f 20/60/5 43/61/5 50/62/5 25/63/5
f 22/64/5 51/65/5 52/66/5 23/67/5
f 18/68/5 42/69/5 53/70/5 51/71/5
f 54/72/9 55/73/9 56/74/9 57/75/9
f 58/76/6 29/77/6 59/78/6 60/79/6
f 24/80/10 12/81/10 11/82/10 61/83/10 62/84/10 63/85/10 64/86/10 58/87/10
f 45/53/11 7/7/11 6/6/11 65/88/11 66/89/11 38/40/11 39/41/11 46/54/11
f 35/37/2 67/90/2 15/15/2 36/38/2
f 41/46/4 3/3/4 31/33/4 30/32/4
f 13/13/4 47/55/4 41/46/4 14/14/4
f 32/91/3 64/92/3 63/93/3 62/94/3 61/95/3 35/96/3 34/97/3 33/98/3
f 28/99/12 68/100/12 69/101/12 70/102/12
f 2/48/6 26/47/6 64/103/6 32/104/6
f 5/105/13 71/106/13 72/107/13 6/108/13
f 35/109/13 61/110/13 73/111/13 67/112/13
f 51/113/3 53/114/3 74/115/3 50/116/3
f 18/117/13 17/118/13 56/119/13 43/120/13
f 19/121/3 18/122/3 43/123/3 20/124/3
f 75/125/3 76/126/3 44/127/3 43/128/3
f 77/129/13 78/130/13 25/131/13 24/132/13
f 79/133/13 80/134/13 21/135/13 20/136/13
f 24/137/3 58/138/3 60/139/3 77/140/3
f 81/141/9 82/142/9 50/143/9 74/144/9
f 10/145/13 81/146/13 74/147/13 11/148/13
f 18/149/6 51/150/6 50/151/6 43/152/6
f 67/90/2 5/5/2 8/8/2 15/15/2
f 76/153/13 54/154/13 57/155/13 44/156/13
f 6/157/9 72/158/9 83/159/9 84/160/9 40/161/9 38/162/9 66/163/9 65/164/9
f 52/165/13 51/166/13 50/167/13 12/168/13
f 29/169/6 28/170/6 48/171/6 49/172/6
f 80/173/9 69/174/9 68/175/9 21/176/9
f 78/177/9 59/178/9 29/179/9 25/180/9
f 2/2/1 32/34/1 31/33/1 3/3/1
f 64/86/7 26/28/7 29/31/7 58/87/7
f 72/181/14 71/182/14 44/183/14 57/184/14
f 27/29/7 40/185/7 68/186/7 28/30/7
f 71/182/14 73/187/14 74/188/14 44/183/14
f 73/187/14 61/83/14 11/82/14 74/188/14
f 57/184/15 56/189/15 21/190/15 68/186/15 40/185/15 84/191/15 83/192/15 72/181/15
f 7/7/4 45/53/4 13/13/4 8/8/4
f 15/15/4 14/14/4 37/39/4 36/38/4
f 47/55/4 4/4/4 3/3/4 41/46/4
f 17/118/9 16/193/9 21/194/9 56/195/9
f 23/196/3 52/197/3 12/198/3 24/199/3
f 51/200/9 22/201/9 25/202/9 50/203/9
f 55/204/6 75/205/6 43/206/6 56/207/6
f 19/208/9 48/209/9 28/210/9 20/211/9
f 22/212/13 19/213/13 20/214/13 25/215/13
f 82/216/6 9/217/6 12/218/6 50/219/6
f 79/220/3 20/221/3 28/222/3 70/223/3
f 67/112/13 73/111/13 71/106/13 5/105/13
f 49/224/3 22/225/3 25/226/3 29/227/3
f 53/228/13 42/229/13 44/230/13 74/231/13
