# Blender v2.78 (sub 0) OBJ File: ''
# www.blender.org
mtllib knopka.mtl
o knoprka_Куб.018
v -3.893548 3.130150 4.144451
v -3.890464 3.130150 4.147535
v -3.893548 3.173544 4.144451
v -3.893548 3.176627 4.147535
v -3.890464 3.173544 4.147535
v -3.890464 3.130150 4.258486
v -3.893548 3.130150 4.261570
v -3.893548 3.176627 4.258486
v -3.893548 3.173544 4.261570
v -3.890464 3.173544 4.258486
v -3.967852 3.130150 4.147535
v -3.964768 3.130150 4.144451
v -3.964768 3.176627 4.147535
v -3.964768 3.173544 4.144451
v -3.967852 3.173544 4.147535
v -3.964768 3.130150 4.261570
v -3.967852 3.130150 4.258486
v -3.964768 3.176627 4.258486
v -3.967852 3.173544 4.258486
v -3.964768 3.173544 4.261570
vn -0.3827 0.0000 -0.9239
vn -0.3416 0.3416 -0.8755
vn 0.3416 0.3416 -0.8755
vn 0.3827 0.0000 -0.9239
vn -0.9239 0.0000 0.3827
vn -0.8756 0.3416 0.3416
vn -0.8756 0.3416 -0.3415
vn -0.9239 0.0000 -0.3826
vn -0.3416 0.8756 0.3415
vn 0.3416 0.8756 0.3415
vn 0.3416 0.8756 -0.3415
vn -0.3416 0.8756 -0.3415
vn 0.3827 0.0000 0.9239
vn 0.3416 0.3416 0.8755
vn -0.3416 0.3416 0.8755
vn -0.3827 0.0000 0.9239
vn 0.8756 0.3416 -0.3415
vn 0.8756 0.3416 0.3416
vn 0.9239 0.0000 -0.3826
vn 0.9239 0.0000 0.3827
usemtl Материал.006
s 1
f 12//1 14//2 3//3 1//4
f 17//5 19//6 15//7 11//8
f 18//9 8//10 4//11 13//12
f 7//13 9//14 20//15 16//16
f 3//3 4//11 5//17
f 8//10 9//14 10//18
f 13//12 14//2 15//7
f 18//9 19//6 20//15
f 1//4 3//3 5//17 2//19
f 4//11 8//10 10//18 5//17
f 9//14 7//13 6//20 10//18
f 8//10 18//9 20//15 9//14
f 19//6 17//5 16//16 20//15
f 18//9 13//12 15//7 19//6
f 14//2 12//1 11//8 15//7
f 13//12 4//11 3//3 14//2
f 2//19 5//17 10//18 6//20
