# Blender v2.80 (sub 51) OBJ File: 'box.blend'
# www.blender.org
mtllib box2.mtl
o Cube_Cube.003
v -0.183331 -0.352359 -0.294199
v -0.183331 0.352359 -0.294199
v -0.171835 -0.352359 -0.294199
v -0.171835 0.352359 -0.294199
v -0.171835 0.348807 0.261347
v -0.183331 0.348807 0.261347
v -0.171835 0.090630 0.399346
v -0.183331 0.090630 0.399346
v -0.171835 -0.007741 0.409035
v -0.183331 -0.007741 0.409035
v -0.171835 0.352359 0.257020
v -0.183331 0.352359 0.257020
v -0.171835 0.185221 0.370652
v -0.183331 0.185221 0.370652
v -0.171835 -0.106113 0.399346
v -0.183331 -0.106113 0.399346
v -0.171835 -0.287880 0.324056
v -0.183331 -0.287880 0.324056
v -0.171835 -0.352359 0.271139
v -0.183331 -0.352359 0.271139
v -0.171835 0.272397 0.324056
v -0.183331 0.272397 0.324056
v -0.171835 -0.200704 0.370652
v -0.183331 -0.200704 0.370652
v 0.191672 -0.000000 -0.062892
v 0.191672 -0.012270 -0.061683
v 0.191672 -0.024068 -0.058104
v 0.191672 -0.034941 -0.052292
v 0.191672 -0.044471 -0.044471
v 0.191672 -0.052292 -0.034941
v 0.191672 -0.058104 -0.024068
v 0.191672 -0.061683 -0.012270
v 0.191672 -0.062892 -0.000000
v 0.191672 -0.061683 0.012270
v 0.191672 -0.058104 0.024068
v 0.191672 -0.052292 0.034941
v 0.191672 -0.044471 0.044471
v 0.191672 -0.034941 0.052292
v 0.191672 -0.024068 0.058104
v 0.191672 -0.012270 0.061683
v 0.191672 -0.000000 0.062891
v 0.191672 0.012269 0.061683
v 0.191672 0.024068 0.058104
v 0.191672 0.034941 0.052292
v 0.191672 0.044471 0.044471
v 0.191672 0.052292 0.034941
v 0.191672 0.058104 0.024067
v 0.191672 0.061683 0.012269
v 0.191672 0.062891 -0.000000
v 0.191672 0.061683 -0.012270
v 0.191672 0.058104 -0.024068
v 0.191672 0.052292 -0.034941
v 0.191672 0.044471 -0.044471
v 0.191672 0.034941 -0.052292
v 0.191672 0.024067 -0.058104
v 0.191672 0.012269 -0.061683
v 0.173978 0.114182 -0.279125
v 0.173978 -0.311313 -0.279125
v 0.173978 0.114182 0.279125
v 0.173978 -0.311313 0.279125
v 0.058502 0.114182 -0.279125
v -0.056974 0.114182 -0.279125
v -0.056974 -0.311313 -0.279125
v 0.058502 -0.311313 -0.279125
v -0.056974 0.114182 0.279125
v 0.058502 0.114182 0.279125
v 0.058502 -0.311313 0.279125
v -0.056974 -0.311313 0.279125
v 0.173978 -0.164943 -0.279125
v 0.173978 -0.164943 0.279125
v 0.058502 -0.164943 0.279125
v -0.056974 -0.164943 0.279125
v -0.056974 -0.164943 -0.279125
v 0.058502 -0.164943 -0.279125
v 0.058502 0.114182 -0.279125
v -0.056974 0.114182 -0.279125
v -0.056974 0.114182 0.279125
v 0.058502 0.114182 0.279125
v 0.058502 -0.165608 -0.279125
v -0.056974 -0.165608 -0.279125
v -0.056974 -0.165608 0.279125
v 0.058502 -0.165608 0.279125
v -0.056974 -0.023909 0.015976
v 0.058502 -0.023909 0.015976
v -0.056974 -0.000000 -0.028755
v 0.058502 -0.000000 -0.028755
v -0.056974 0.005610 -0.028203
v 0.058502 0.005610 -0.028203
v -0.056974 0.011004 -0.026566
v 0.058502 0.011004 -0.026566
v -0.056974 0.026566 0.011004
v 0.058502 0.026566 0.011004
v -0.056974 0.023909 0.015976
v 0.058502 0.023909 0.015976
v -0.056974 0.028203 0.005610
v 0.058502 0.028203 0.005610
v -0.056974 0.020333 0.020333
v 0.058502 0.020333 0.020333
v -0.056974 0.005610 0.028203
v 0.058502 0.005610 0.028203
v -0.056974 -0.000000 0.028755
v 0.058502 -0.000000 0.028755
v -0.056974 0.011004 0.026566
v 0.058502 0.011004 0.026566
v -0.056974 -0.028203 -0.005610
v 0.058502 -0.028203 -0.005610
v -0.056974 -0.015976 -0.023909
v 0.058502 -0.015976 -0.023909
v -0.056974 -0.028755 -0.000000
v 0.058502 -0.028755 -0.000000
v -0.056974 -0.026567 -0.011004
v 0.058502 -0.026567 -0.011004
v -0.056974 -0.005610 0.028203
v 0.058502 -0.005610 0.028203
v -0.056974 0.020333 -0.020333
v 0.058502 0.020333 -0.020333
v -0.056974 0.015976 -0.023909
v 0.058502 0.015976 -0.023909
v -0.056974 0.023909 -0.015976
v 0.058502 0.023909 -0.015976
v -0.056974 -0.028203 0.005610
v 0.058502 -0.028203 0.005610
v -0.056974 -0.015976 0.023909
v 0.058502 -0.015976 0.023909
v -0.056974 -0.020333 0.020333
v 0.058502 -0.020333 0.020333
v -0.056974 -0.026567 0.011004
v 0.058502 -0.026567 0.011004
v -0.056974 0.028755 -0.000000
v 0.058502 0.028755 -0.000000
v -0.056974 0.015976 0.023909
v 0.058502 0.015976 0.023909
v -0.056974 0.028203 -0.005610
v 0.058502 0.028203 -0.005610
v -0.056974 -0.020333 -0.020333
v 0.058502 -0.020333 -0.020333
v -0.056974 -0.011004 0.026566
v 0.058502 -0.011004 0.026566
v -0.056974 -0.023909 -0.015976
v 0.058502 -0.023909 -0.015976
v -0.056974 0.026566 -0.011004
v 0.058502 0.026566 -0.011004
v -0.056974 -0.011004 -0.026566
v 0.058502 -0.011004 -0.026566
v -0.056974 -0.005610 -0.028203
v 0.058502 -0.005610 -0.028203
v 0.173978 -0.062892 -0.000000
v 0.173978 -0.061683 -0.012270
v 0.173978 -0.058104 -0.024068
v 0.173978 -0.052292 -0.034941
v 0.173978 -0.044471 -0.044471
v 0.173978 -0.034941 -0.052292
v 0.173978 -0.024068 -0.058104
v 0.173978 -0.012270 -0.061683
v 0.173978 -0.000000 -0.062892
v 0.173978 0.012269 -0.061683
v 0.173978 0.024067 -0.058104
v 0.173978 0.034941 -0.052292
v 0.173978 0.044471 -0.044471
v 0.173978 0.052292 -0.034941
v 0.173978 0.058104 -0.024068
v 0.173978 0.061683 0.012269
v 0.173978 0.062891 -0.000000
v 0.173978 0.061683 -0.012270
v 0.173978 -0.061683 0.012270
v 0.173978 -0.058104 0.024068
v 0.173978 -0.052292 0.034941
v 0.173978 0.052292 0.034941
v 0.173978 0.058104 0.024067
v 0.173978 -0.044471 0.044471
v 0.173978 0.044471 0.044471
v 0.173978 -0.034941 0.052292
v 0.173978 0.034941 0.052292
v 0.173978 -0.024068 0.058104
v 0.173978 0.024068 0.058104
v 0.173978 0.012269 0.061683
v 0.173978 -0.012270 0.061683
v 0.173978 -0.000000 0.062891
v -0.171835 0.114182 0.279125
v -0.171835 -0.311313 -0.279125
v -0.171835 0.114182 -0.279125
v -0.171835 -0.164943 -0.279125
v -0.171835 -0.164943 0.279125
v -0.171835 -0.311313 0.279125
vt 0.976245 0.987973
vt 0.976245 0.671027
vt 0.972341 0.671027
vt 0.972341 0.987973
vt 0.967220 0.969512
vt 0.777599 0.969512
vt 0.777599 0.903683
vt 0.777599 0.778146
vt 0.746510 0.746197
vt 0.736763 0.788739
vt 0.733472 0.832981
vt 0.736763 0.877224
vt 0.746509 0.919766
vt 0.762337 0.958973
vt 0.780311 0.987972
vt 0.980150 0.925287
vt 0.984054 0.925287
vt 0.984054 0.671027
vt 0.980150 0.671027
vt 0.984054 0.920883
vt 0.987959 0.920883
vt 0.987959 0.672973
vt 0.984054 0.672973
vt 0.984054 0.671027
vt 0.987959 0.671027
vt 0.976245 0.739426
vt 0.976245 0.780499
vt 0.980150 0.780499
vt 0.980150 0.739426
vt 0.976245 0.824101
vt 0.976245 0.868558
vt 0.980150 0.868558
vt 0.980150 0.824101
vt 0.976245 0.912160
vt 0.980150 0.912160
vt 0.976245 0.671027
vt 0.976245 0.702462
vt 0.980150 0.702462
vt 0.980150 0.671027
vt 0.585641 0.157665
vt 0.636044 0.234155
vt 0.680427 0.337570
vt 0.707758 0.449782
vt 0.716987 0.566478
vt 0.707758 0.683173
vt 0.680427 0.795385
vt 0.636044 0.898800
vt 0.576314 0.989443
vt 0.572191 0.993657
vt 0.047153 0.993657
vt 0.047153 0.157665
vt 0.976245 0.953233
vt 0.980150 0.953233
vt 0.976245 0.984425
vt 0.980150 0.984425
vt 0.932620 0.462116
vt 0.939902 0.452231
vt 0.944919 0.441247
vt 0.947476 0.429586
vt 0.947476 0.417697
vt 0.944919 0.406036
vt 0.939902 0.395052
vt 0.932620 0.385167
vt 0.923351 0.376760
vt 0.912452 0.370155
vt 0.900342 0.365605
vt 0.887486 0.363285
vt 0.874378 0.363285
vt 0.861522 0.365605
vt 0.849411 0.370155
vt 0.838512 0.376760
vt 0.829243 0.385167
vt 0.821961 0.395052
vt 0.816945 0.406036
vt 0.814388 0.417697
vt 0.814388 0.429586
vt 0.816945 0.441247
vt 0.821961 0.452231
vt 0.829243 0.462116
vt 0.838512 0.470523
vt 0.849411 0.477128
vt 0.861521 0.481678
vt 0.874378 0.483997
vt 0.887486 0.483997
vt 0.900342 0.481678
vt 0.912452 0.477128
vt 0.923351 0.470523
vt 0.839309 0.181350
vt 0.864387 0.181350
vt 0.864387 0.147135
vt 0.839309 0.147135
vt 0.760312 0.147135
vt 0.760312 0.016642
vt 0.728524 0.016642
vt 0.728525 0.147135
vt 0.889332 0.212382
vt 0.864387 0.212382
vt 0.864387 0.246596
vt 0.889332 0.246596
vt 0.989511 0.147135
vt 0.964566 0.147135
vt 0.964566 0.277628
vt 0.989511 0.277628
vt 0.871086 0.147135
vt 0.896030 0.147135
vt 0.896030 0.016642
vt 0.871086 0.016642
vt 0.820930 0.147135
vt 0.846008 0.147135
vt 0.846008 0.016642
vt 0.820930 0.016642
vt 0.956792 0.147135
vt 0.981871 0.147135
vt 0.981871 0.016642
vt 0.956792 0.016642
vt -0.673041 -0.417561
vt -0.673041 -0.417561
vt -0.673041 -0.417561
vt -0.673041 -0.417561
vt 0.939488 0.212382
vt 0.914410 0.212382
vt 0.914410 0.246596
vt 0.939488 0.246596
vt 0.814231 0.181350
vt 0.814231 0.147135
vt 0.939488 0.147135
vt 0.914410 0.147135
vt 0.889332 0.147135
vt 0.864387 0.147135
vt 0.820930 0.147135
vt 0.820930 0.016642
vt 0.796133 0.067188
vt 0.798797 0.067470
vt 0.801359 0.068307
vt 0.803721 0.069665
vt 0.805790 0.071494
vt 0.807489 0.073721
vt 0.808751 0.076263
vt 0.809528 0.079021
vt 0.809791 0.081889
vt 0.809528 0.084757
vt 0.808751 0.087515
vt 0.807489 0.090056
vt 0.805790 0.092284
vt 0.803721 0.094112
vt 0.801359 0.095471
vt 0.798797 0.096308
vt 0.796133 0.096590
vt 0.839309 0.246596
vt 0.864387 0.246596
vt 1.844572 -0.604314
vt 1.844572 -0.604314
vt 1.844572 -0.604314
vt 1.844572 -0.604314
vt 0.939488 0.277628
vt 0.964566 0.277628
vt 0.964566 0.147135
vt 0.939488 0.147135
vt 0.896030 0.147135
vt 0.956792 0.147135
vt 0.956792 0.016642
vt 0.896030 0.016642
vt 0.920827 0.075167
vt 0.922045 0.075296
vt 0.923217 0.075679
vt 0.924297 0.076300
vt 0.925243 0.077136
vt 0.926020 0.078155
vt 0.926597 0.079317
vt 0.926952 0.080578
vt 0.927072 0.081889
vt 0.926952 0.083200
vt 0.926597 0.084461
vt 0.926020 0.085623
vt 0.925243 0.086642
vt 0.924297 0.087478
vt 0.923217 0.088099
vt 0.922045 0.088481
vt 0.920827 0.088611
vt 0.728525 0.277628
vt 0.789287 0.277628
vt 0.789287 0.147135
vt 0.728524 0.147135
vt 0.753322 0.205660
vt 0.754540 0.205789
vt 0.755711 0.206172
vt 0.756791 0.206793
vt 0.757737 0.207629
vt 0.758514 0.208648
vt 0.759091 0.209810
vt 0.759446 0.211071
vt 0.759566 0.212382
vt 0.759446 0.213693
vt 0.759091 0.214954
vt 0.758514 0.216116
vt 0.757737 0.217135
vt 0.756791 0.217971
vt 0.755711 0.218592
vt 0.754540 0.218974
vt 0.753322 0.219104
vt 0.156886 0.015298
vt 0.156886 0.131091
vt 0.164632 0.131091
vt 0.164632 0.015298
vt 0.179383 0.015298
vt 0.179383 0.131091
vt 0.185823 0.131091
vt 0.185823 0.015298
vt 0.172228 0.015298
vt 0.172228 0.131091
vt 0.047945 0.131091
vt 0.047945 0.015298
vt 0.040200 0.015298
vt 0.040200 0.131091
vt 0.142135 0.015298
vt 0.142135 0.131091
vt 0.149290 0.131091
vt 0.149290 0.015298
vt 0.130218 0.015298
vt 0.130218 0.131091
vt 0.135695 0.131091
vt 0.135695 0.015298
vt 0.222356 0.131091
vt 0.222356 0.015298
vt 0.214760 0.015298
vt 0.214760 0.131091
vt 0.101282 0.015298
vt 0.101282 0.131091
vt 0.109027 0.131091
vt 0.109027 0.015298
vt 0.032604 0.131091
vt 0.032604 0.015298
vt 0.025448 0.015298
vt 0.025448 0.131091
vt 0.093686 0.015298
vt 0.093686 0.131091
vt 0.229511 0.131091
vt 0.229511 0.015298
vt 0.192263 0.131091
vt 0.192263 0.015298
vt 0.185823 0.015298
vt 0.185823 0.131091
vt 0.116623 0.015298
vt 0.116623 0.131091
vt 0.123779 0.131091
vt 0.123778 0.015298
vt 0.752103 0.218974
vt 0.750932 0.218592
vt 0.749852 0.217971
vt 0.748906 0.217135
vt 0.748129 0.216116
vt 0.747552 0.214954
vt 0.747197 0.213693
vt 0.747077 0.212382
vt 0.747197 0.211071
vt 0.747552 0.209810
vt 0.748129 0.208648
vt 0.748906 0.207629
vt 0.749852 0.206793
vt 0.750932 0.206172
vt 0.752103 0.205789
vt 0.199418 0.131091
vt 0.199418 0.015298
vt 0.074613 0.015298
vt 0.074613 0.131091
vt 0.080090 0.131091
vt 0.080090 0.015298
vt 0.019009 0.131091
vt 0.019009 0.015298
vt 0.013532 0.015298
vt 0.013532 0.131091
vt 0.919609 0.088481
vt 0.918437 0.088099
vt 0.917358 0.087478
vt 0.916411 0.086642
vt 0.915635 0.085623
vt 0.915058 0.084461
vt 0.914702 0.083200
vt 0.914582 0.081889
vt 0.914702 0.080578
vt 0.915058 0.079317
vt 0.915635 0.078155
vt 0.916411 0.077136
vt 0.917358 0.076300
vt 0.918437 0.075679
vt 0.919609 0.075296
vt 0.086530 0.131091
vt 0.086530 0.015298
vt 0.130218 0.131091
vt 0.130218 0.015298
vt 0.069137 0.131091
vt 0.069137 0.015298
vt 0.062697 0.015298
vt 0.062697 0.131091
vt 0.207014 0.015298
vt 0.207014 0.131091
vt 0.055542 0.131091
vt 0.055542 0.015298
vt 0.235951 0.131091
vt 0.235951 0.015298
vt 0.074613 0.131091
vt 0.074613 0.015298
vt 0.966288 0.504722
vt 0.985100 0.504722
vt 0.985100 0.493061
vt 0.966288 0.493061
vt 0.966288 0.469511
vt 0.985100 0.469511
vt 0.985100 0.458527
vt 0.966288 0.458527
vt 0.966288 0.481172
vt 0.985100 0.481172
vt 0.966288 0.404222
vt 0.985100 0.404222
vt 0.985100 0.392562
vt 0.966288 0.392562
vt 0.966288 0.525591
vt 0.985100 0.525591
vt 0.985100 0.515706
vt 0.966288 0.515706
vt 0.947476 0.371692
vt 0.966288 0.371692
vt 0.966288 0.363285
vt 0.947476 0.363285
vt 0.947476 0.427772
vt 0.966288 0.427772
vt 0.966288 0.416111
vt 0.947476 0.416111
vt 0.966288 0.489579
vt 0.947476 0.489579
vt 0.947476 0.501468
vt 0.966288 0.501468
vt 0.966288 0.381578
vt 0.985100 0.381578
vt 0.985100 0.371692
vt 0.966288 0.371692
vt 0.966288 0.477918
vt 0.947476 0.477918
vt 0.947476 0.438756
vt 0.966288 0.438756
vt 0.947476 0.381578
vt 0.966288 0.381578
vt 0.966288 0.513128
vt 0.947476 0.513128
vt 0.947476 0.524113
vt 0.966288 0.524113
vt 0.947476 0.392562
vt 0.966288 0.392562
vt 0.985100 0.448642
vt 0.966288 0.448642
vt 0.947476 0.457048
vt 0.966288 0.457048
vt 0.966288 0.448642
vt 0.947476 0.448642
vt 0.966288 0.457048
vt 0.947476 0.457048
vt 0.947476 0.466934
vt 0.966288 0.466934
vt 0.947476 0.533998
vt 0.966288 0.533998
vt 0.966288 0.438756
vt 0.985100 0.438756
vt 0.985100 0.427772
vt 0.966288 0.427772
vt 0.966288 0.404222
vt 0.947476 0.404222
vt 0.966288 0.533998
vt 0.985100 0.533998
vt 0.966288 0.416111
vt 0.985100 0.416111
vt 0.985100 0.363285
vt 0.966288 0.363285
vt 0.793468 0.096308
vt 0.790906 0.095471
vt 0.788545 0.094112
vt 0.786475 0.092284
vt 0.784776 0.090056
vt 0.783514 0.087515
vt 0.782737 0.084757
vt 0.782474 0.081889
vt 0.782737 0.079021
vt 0.783514 0.076263
vt 0.784776 0.073721
vt 0.786475 0.071494
vt 0.788545 0.069665
vt 0.790906 0.068307
vt 0.793468 0.067470
vt 0.966288 0.448642
vt 0.985100 0.448642
vt 0.789287 0.246596
vt 0.814231 0.246596
vt 0.789287 0.181350
vt 0.789287 0.147135
vt 0.785107 0.671027
vt 0.783637 0.672624
vt 0.762337 0.706989
vt 0.967220 0.778146
vt 0.967220 0.903683
vn 0.0000 0.0000 -1.0000
vn 1.0000 0.0000 -0.0000
vn 0.0000 -1.0000 0.0000
vn 0.0000 1.0000 0.0000
vn 0.0000 0.7730 0.6344
vn 0.0000 0.2903 0.9569
vn 0.0000 -0.0980 0.9952
vn 0.0000 -0.2903 0.9569
vn 0.0000 0.6344 0.7730
vn -1.0000 0.0000 -0.0000
vn 0.0000 0.4714 0.8819
vn 0.0000 0.0980 0.9952
vn 0.0000 -0.4714 0.8819
vn 0.0000 -0.6344 0.7730
vn 0.0000 -0.0000 1.0000
vn -0.0000 -0.9952 0.0980
vn 0.0000 -0.7730 0.6344
vn 0.0000 -0.8819 0.4714
vn -0.0000 0.9952 -0.0980
vn -0.0000 -0.9569 -0.2903
vn -0.0000 -0.9952 -0.0980
vn -0.0000 -0.7730 -0.6344
vn 0.0000 0.0980 -0.9952
vn -0.0000 0.8819 -0.4714
vn -0.0000 0.2903 -0.9569
vn 0.0000 -0.6344 -0.7730
vn 0.0000 -0.4714 -0.8819
vn -0.0000 0.6344 -0.7730
vn -0.0000 0.9569 -0.2903
vn -0.0000 0.8819 0.4714
vn 0.0000 -0.0980 -0.9952
vn 0.0000 -0.8819 -0.4714
vn -0.0000 0.9952 0.0980
vn -0.0000 -0.9569 0.2903
vn -0.0000 0.4714 -0.8819
vn 0.0000 -0.2903 -0.9569
vn -0.0000 0.9569 0.2903
vn -0.0000 0.7730 -0.6344
usemtl Material.004
s off
f 1/1/1 2/2/1 4/3/1 3/4/1
f 3/4/2 180/5/2 184/6/2 183/7/2 179/8/2 13/9/2 7/10/2 9/11/2 15/12/2 23/13/2 17/14/2 19/15/2
f 1/16/3 3/17/3 19/18/3 20/19/3
f 4/20/4 2/21/4 12/22/4 11/23/4
f 5/24/5 11/23/5 12/22/5 6/25/5
f 14/26/6 8/27/6 7/28/6 13/29/6
f 10/30/7 16/31/7 15/32/7 9/33/7
f 16/31/8 24/34/8 23/35/8 15/32/8
f 6/36/9 22/37/9 21/38/9 5/39/9
f 20/40/10 18/41/10 24/42/10 16/43/10 10/44/10 8/45/10 14/46/10 22/47/10 6/48/10 12/49/10 2/50/10 1/51/10
f 22/37/11 14/26/11 13/29/11 21/38/11
f 8/27/12 10/30/12 9/33/12 7/28/12
f 24/34/13 18/52/13 17/53/13 23/35/13
f 18/52/14 20/54/14 19/55/14 17/53/14
f 26/56/2 25/57/2 56/58/2 55/59/2 54/60/2 53/61/2 52/62/2 51/63/2 50/64/2 49/65/2 48/66/2 47/67/2 46/68/2 45/69/2 44/70/2 43/71/2 42/72/2 41/73/2 40/74/2 39/75/2 38/76/2 37/77/2 36/78/2 35/79/2 34/80/2 33/81/2 32/82/2 31/83/2 30/84/2 29/85/2 28/86/2 27/87/2
f 74/88/1 69/89/1 58/90/1 64/91/1
f 69/92/2 70/93/2 60/94/2 58/95/2
f 72/96/15 183/97/15 184/98/15 68/99/15
f 62/100/4 181/101/4 179/102/4 65/103/4
f 68/104/3 184/105/3 180/106/3 63/107/3
f 60/108/3 67/109/3 64/110/3 58/111/3
f 67/109/3 68/104/3 63/107/3 64/110/3
f 57/112/4 61/113/4 66/114/4 59/115/4
f 65/116/15 77/117/15 76/118/15 62/119/15
f 70/120/15 71/121/15 67/122/15 60/123/15
f 71/121/15 72/96/15 68/99/15 67/122/15
f 73/124/1 74/88/1 64/91/1 63/125/1
f 59/126/15 66/127/15 71/121/15 70/120/15
f 65/128/15 179/129/15 183/97/15 72/96/15
f 57/130/2 59/131/2 178/132/2 176/133/2 175/134/2 173/135/2 171/136/2 168/137/2 169/138/2 162/139/2 163/140/2 164/141/2 161/142/2 160/143/2 159/144/2 158/145/2 157/146/2 156/147/2 155/148/2
f 61/149/1 57/150/1 69/89/1 74/88/1
f 61/151/15 75/152/15 78/153/15 66/154/15
f 79/155/4 80/156/4 81/157/4 82/158/4
f 75/159/10 79/160/10 82/161/10 78/162/10 102/163/10 114/164/10 138/165/10 124/166/10 126/167/10 84/168/10 128/169/10 122/170/10 110/171/10 106/172/10 112/173/10 140/174/10 136/175/10 108/176/10 144/177/10 146/178/10 86/179/10
f 77/180/2 81/181/2 80/182/2 76/183/2 85/184/2 145/185/2 143/186/2 107/187/2 135/188/2 139/189/2 111/190/2 105/191/2 109/192/2 121/193/2 127/194/2 83/195/2 125/196/2 123/197/2 137/198/2 113/199/2 101/200/2
f 109/201/16 110/202/16 122/203/16 121/204/16
f 83/205/17 84/206/17 126/207/17 125/208/17
f 127/209/18 128/210/18 84/206/18 83/205/18
f 129/211/19 130/212/19 134/213/19 133/214/19
f 111/215/20 112/216/20 106/217/20 105/218/20
f 105/218/21 106/217/21 110/202/21 109/201/21
f 135/219/22 136/220/22 140/221/22 139/222/22
f 87/223/23 88/224/23 86/225/23 85/226/23
f 101/227/12 102/228/12 100/229/12 99/230/12
f 141/231/24 142/232/24 120/233/24 119/234/24
f 113/235/7 114/236/7 102/228/7 101/227/7
f 89/237/25 90/238/25 88/224/25 87/223/25
f 107/239/26 108/240/26 136/241/26 135/242/26
f 103/243/11 104/244/11 132/245/11 131/246/11
f 76/183/2 77/180/2 101/200/2 99/247/2 103/248/2 131/249/2 97/250/2 93/251/2 91/252/2 95/253/2 129/254/2 133/255/2 141/256/2 119/257/2 115/258/2 117/259/2 89/260/2 87/261/2 85/184/2
f 143/262/27 144/263/27 108/240/27 107/239/27
f 125/264/14 126/265/14 124/266/14 123/267/14
f 115/268/28 116/269/28 118/270/28 117/271/28
f 78/162/10 75/159/10 86/179/10 88/272/10 90/273/10 118/274/10 116/275/10 120/276/10 142/277/10 134/278/10 130/279/10 96/280/10 92/281/10 94/282/10 98/283/10 132/284/10 104/285/10 100/286/10 102/163/10
f 133/214/29 134/213/29 142/232/29 141/231/29
f 123/267/13 124/266/13 138/287/13 137/288/13
f 131/246/9 132/245/9 98/289/9 97/290/9
f 93/291/30 94/292/30 92/293/30 91/294/30
f 85/226/31 86/225/31 146/295/31 145/296/31
f 139/222/32 140/221/32 112/216/32 111/215/32
f 95/297/33 96/298/33 130/212/33 129/211/33
f 121/204/34 122/203/34 128/210/34 127/209/34
f 99/230/6 100/229/6 104/244/6 103/243/6
f 117/299/35 118/300/35 90/238/35 89/237/35
f 145/296/36 146/295/36 144/263/36 143/262/36
f 137/288/8 138/287/8 114/236/8 113/235/8
f 91/294/37 92/293/37 96/298/37 95/297/37
f 119/234/38 120/233/38 116/269/38 115/268/38
f 97/301/5 98/302/5 94/292/5 93/291/5
f 147/303/16 33/304/16 34/305/16 165/306/16
f 167/307/17 36/308/17 37/309/17 170/310/17
f 166/311/18 35/312/18 36/308/18 167/307/18
f 163/313/19 49/314/19 50/315/19 164/316/19
f 149/317/20 31/318/20 32/319/20 148/320/20
f 148/320/21 32/319/21 33/304/21 147/303/21
f 151/321/22 29/322/22 30/323/22 150/324/22
f 156/325/23 56/326/23 25/327/23 155/328/23
f 178/329/12 41/330/12 42/331/12 176/332/12
f 161/333/24 51/334/24 52/335/24 160/336/24
f 177/337/7 40/338/7 41/330/7 178/329/7
f 157/339/25 55/340/25 56/326/25 156/325/25
f 152/341/26 28/342/26 29/322/26 151/321/26
f 175/343/11 43/344/11 44/345/11 173/346/11
f 153/347/27 27/348/27 28/342/27 152/341/27
f 170/310/14 37/309/14 38/349/14 172/350/14
f 159/351/28 53/352/28 54/353/28 158/354/28
f 164/316/29 50/315/29 51/334/29 161/333/29
f 172/355/13 38/356/13 39/357/13 174/358/13
f 173/346/9 44/345/9 45/359/9 171/360/9
f 168/361/30 46/362/30 47/363/30 169/364/30
f 155/328/31 25/327/31 26/365/31 154/366/31
f 150/367/32 30/368/32 31/318/32 149/317/32
f 162/369/33 48/370/33 49/314/33 163/313/33
f 165/306/34 34/305/34 35/312/34 166/311/34
f 176/332/6 42/331/6 43/344/6 175/343/6
f 158/354/35 54/353/35 55/340/35 157/339/35
f 174/358/8 39/357/8 40/338/8 177/337/8
f 154/366/36 26/365/36 27/348/36 153/347/36
f 169/364/37 47/363/37 48/370/37 162/369/37
f 160/336/38 52/335/38 53/371/38 159/372/38
f 59/131/2 70/93/2 69/92/2 57/130/2 155/148/2 154/373/2 153/374/2 152/375/2 151/376/2 150/377/2 149/378/2 148/379/2 147/380/2 165/381/2 166/382/2 167/383/2 170/384/2 172/385/2 174/386/2 177/387/2 178/132/2
f 171/388/5 45/389/5 46/362/5 168/361/5
f 181/390/1 62/391/1 73/124/1 182/392/1
f 182/392/1 73/124/1 63/125/1 180/393/1
f 180/5/2 3/4/2 4/3/2 11/394/2 5/395/2 21/396/2 13/9/2 179/8/2 181/397/2 182/398/2
