# Blender v2.78 (sub 0) OBJ File: ''
# www.blender.org
mtllib polka.mtl
o stol_ĞšÑƒĞ±.004
v -5.177457 2.684791 2.832706
v -5.177457 2.684791 -1.967294
v -3.577457 2.684791 2.832706
v -3.577457 2.684791 -1.967294
v -5.138107 2.834414 2.793356
v -5.177457 2.795065 2.832706
v -5.138107 2.834414 -1.927945
v -5.177457 2.795065 -1.967294
v -3.616806 2.834414 2.793356
v -3.577457 2.795065 2.832706
v -3.616806 2.834414 -1.927945
v -3.577457 2.795065 -1.967294
v -5.151477 1.664928 2.062558
v -5.151477 1.684692 2.082322
v -5.171241 1.684692 2.062558
v -5.151477 2.674830 2.082322
v -5.151477 2.694594 2.062558
v -5.171241 2.674830 2.062558
v -5.151477 1.664928 1.920248
v -5.171241 1.684692 1.920248
v -5.151477 1.684692 1.900484
v -5.151477 2.694594 1.920248
v -5.151477 2.674830 1.900484
v -5.171241 2.674830 1.920248
v -5.009166 1.664928 2.062558
v -4.989403 1.684692 2.062558
v -5.009166 1.684692 2.082322
v -5.009166 2.694594 2.062558
v -5.009166 2.674830 2.082322
v -4.989403 2.674830 2.062558
v -5.009166 1.664928 1.920248
v -5.009166 1.684692 1.900484
v -4.989403 1.684692 1.920248
v -5.009166 2.694594 1.920248
v -4.989403 2.674830 1.920248
v -5.009166 2.674830 1.900484
v -5.146304 2.144049 2.025222
v -5.128391 2.152402 2.044986
v -5.136744 2.170314 2.025222
v -3.780814 2.780787 2.044986
v -3.762902 2.789140 2.025222
v -3.789167 2.798699 2.025222
v -5.146304 2.144049 1.957584
v -5.136744 2.170314 1.957584
v -5.128391 2.152402 1.937820
v -3.762902 2.789140 1.957584
v -3.780814 2.780787 1.937820
v -3.789167 2.798699 1.957584
v -5.117719 2.082748 2.025222
v -5.091454 2.073189 2.025222
v -5.099806 2.091101 2.044986
v -3.734317 2.727839 2.025222
v -3.752229 2.719486 2.044986
v -3.743876 2.701574 2.025222
v -5.117719 2.082748 1.957584
v -5.099806 2.091101 1.937820
v -5.091454 2.073189 1.957584
v -3.734317 2.727839 1.957584
v -3.743876 2.701574 1.957584
v -3.752229 2.719486 1.937820
v -5.151477 1.664928 -1.038416
v -5.151477 1.684692 -1.018653
v -5.171241 1.684692 -1.038416
v -5.151477 2.674830 -1.018653
v -5.151477 2.694594 -1.038416
v -5.171241 2.674830 -1.038416
v -5.151477 1.664928 -1.180727
v -5.171241 1.684692 -1.180727
v -5.151477 1.684692 -1.200491
v -5.151477 2.694594 -1.180727
v -5.151477 2.674830 -1.200491
v -5.171241 2.674830 -1.180727
v -5.009166 1.664928 -1.038416
v -4.989403 1.684692 -1.038416
v -5.009166 1.684692 -1.018653
v -5.009166 2.694594 -1.038416
v -5.009166 2.674830 -1.018653
v -4.989403 2.674830 -1.038416
v -5.009166 1.664928 -1.180727
v -5.009166 1.684692 -1.200491
v -4.989403 1.684692 -1.180727
v -5.009166 2.694594 -1.180727
v -4.989403 2.674830 -1.180727
v -5.009166 2.674830 -1.200491
v -5.146304 2.144049 -1.075752
v -5.128391 2.152402 -1.055989
v -5.136744 2.170314 -1.075752
v -3.780814 2.780787 -1.055989
v -3.762902 2.789140 -1.075752
v -3.789167 2.798699 -1.075752
v -5.146304 2.144049 -1.143390
v -5.136744 2.170314 -1.143390
v -5.128391 2.152402 -1.163154
v -3.762902 2.789140 -1.143391
v -3.780814 2.780787 -1.163155
v -3.789167 2.798699 -1.143391
v -5.117719 2.082748 -1.075752
v -5.091454 2.073189 -1.075752
v -5.099806 2.091101 -1.055989
v -3.734317 2.727839 -1.075752
v -3.752229 2.719486 -1.055989
v -3.743876 2.701574 -1.075752
v -5.117719 2.082748 -1.143390
v -5.099806 2.091101 -1.163154
v -5.091454 2.073189 -1.143390
v -3.734317 2.727839 -1.143391
v -3.743876 2.701574 -1.143391
v -3.752229 2.719486 -1.163155
vt 0.3620 0.0082
vt 0.7062 0.0082
vt 0.7062 0.9918
vt 0.3620 0.9918
vt 0.7494 1.0000
vt 0.7244 1.0000
vt 0.7244 0.0000
vt 0.7494 0.0000
vt 0.7743 1.0000
vt 0.7494 1.0000
vt 0.7494 0.0000
vt 0.7743 0.0000
vt 0.8082 0.3333
vt 0.7832 0.3333
vt 0.7832 0.0000
vt 0.8082 0.0000
vt 0.7153 0.0000
vt 0.7153 1.0000
vt 0.7743 0.3251
vt 0.7743 0.0082
vt 0.7153 0.9918
vt 0.7153 0.0082
vt 0.8082 0.3415
vt 0.8082 0.6585
vt 0.7993 0.6667
vt 0.7993 0.3333
vt 0.7743 0.3333
vt 0.7743 0.6667
vt 0.3620 1.0000
vt 0.0000 1.0000
vt 0.0000 0.0000
vt 0.3620 0.0000
vt 0.8126 0.4249
vt 0.8126 0.2186
vt 0.8448 0.2186
vt 0.8448 0.4249
vt 0.8860 0.4249
vt 0.8860 0.6312
vt 0.8538 0.6312
vt 0.8538 0.4249
vt 0.7883 0.7295
vt 0.7743 0.7295
vt 0.7743 0.7154
vt 0.7883 0.7154
vt 0.8082 0.8581
vt 0.8404 0.8581
vt 0.8404 0.8877
vt 0.8082 0.8877
vt 0.8860 0.6396
vt 0.8860 0.8458
vt 0.8538 0.8458
vt 0.8538 0.6396
vt 0.8448 0.4331
vt 0.8448 0.6394
vt 0.8126 0.6394
vt 0.8126 0.4331
vt 0.9102 0.3221
vt 0.9102 0.6319
vt 0.8949 0.6319
vt 0.8949 0.3221
vt 0.9192 0.8911
vt 0.9192 0.6072
vt 0.9345 0.6072
vt 0.9345 0.8911
vt 0.7883 0.7072
vt 0.7743 0.7072
vt 0.7743 0.6931
vt 0.7883 0.6931
vt 0.9588 0.3180
vt 0.9588 0.6018
vt 0.9434 0.6018
vt 0.9434 0.3180
vt 0.9434 0.3139
vt 0.9434 0.0041
vt 0.9588 0.0041
vt 0.9588 0.3139
vt 0.8860 0.6354
vt 0.8905 0.6395
vt 0.8405 0.8919
vt 0.8449 0.8877
vt 0.8538 0.6354
vt 0.8493 0.6395
vt 0.8405 0.8540
vt 0.8449 0.8581
vt 0.8539 0.8499
vt 0.8493 0.8499
vt 0.8538 0.8458
vt 0.8538 0.6354
vt 0.8493 0.6313
vt 0.8539 0.8796
vt 0.8538 0.8837
vt 0.8493 0.8796
vt 0.8860 0.6354
vt 0.8905 0.6313
vt 0.7901 0.7113
vt 0.7942 0.7154
vt 0.9632 0.6035
vt 0.9588 0.6072
vt 0.7942 0.7295
vt 0.7901 0.7336
vt 0.9434 0.6072
vt 0.9390 0.6035
vt 0.9345 0.8965
vt 0.9390 0.8927
vt 0.7901 0.6890
vt 0.7942 0.6931
vt 0.9192 0.8965
vt 0.9147 0.8927
vt 0.7942 0.7072
vt 0.7901 0.7113
vt 0.8493 0.2186
vt 0.8493 0.4249
vt 0.8493 0.4331
vt 0.8493 0.6394
vt 0.8126 0.4290
vt 0.8448 0.4290
vt 0.8448 0.6435
vt 0.8126 0.6435
vt 0.8082 0.6394
vt 0.8082 0.4331
vt 0.8082 0.4249
vt 0.8082 0.2186
vt 0.8448 0.4290
vt 0.8126 0.4290
vt 0.8126 0.2145
vt 0.8448 0.2145
vt 0.8905 0.6319
vt 0.8905 0.3221
vt 0.9390 0.3139
vt 0.9390 0.0041
vt 0.9588 0.3180
vt 0.9434 0.3180
vt 0.9434 0.0000
vt 0.9588 0.0000
vt 0.9632 0.0041
vt 0.9632 0.3139
vt 0.9147 0.3221
vt 0.9147 0.6319
vt 0.8949 0.3180
vt 0.9102 0.3180
vt 0.9102 0.6360
vt 0.8949 0.6360
vt 0.8861 0.8796
vt 0.8861 0.8499
vt 0.8126 0.2104
vt 0.8126 0.0041
vt 0.8448 0.0041
vt 0.8448 0.2104
vt 0.8860 0.2145
vt 0.8860 0.4207
vt 0.8538 0.4207
vt 0.8538 0.2145
vt 0.7883 0.7519
vt 0.7743 0.7519
vt 0.7743 0.7378
vt 0.7883 0.7378
vt 0.9632 0.0041
vt 0.9954 0.0041
vt 0.9954 0.0338
vt 0.9632 0.0338
vt 0.8448 0.6478
vt 0.8448 0.8540
vt 0.8126 0.8540
vt 0.8126 0.6478
vt 0.8860 0.0041
vt 0.8860 0.2104
vt 0.8538 0.2104
vt 0.8538 0.0041
vt 0.9102 0.0041
vt 0.9102 0.3139
vt 0.8949 0.3139
vt 0.8949 0.0041
vt 0.9434 0.8911
vt 0.9434 0.6072
vt 0.9588 0.6072
vt 0.9588 0.8911
vt 0.7802 0.6708
vt 0.7942 0.6708
vt 0.7942 0.6849
vt 0.7802 0.6849
vt 0.9192 0.6072
vt 0.9192 0.3234
vt 0.9345 0.3234
vt 0.9345 0.6072
vt 0.9192 0.3139
vt 0.9192 0.0041
vt 0.9345 0.0041
vt 0.9345 0.3139
vt 0.8448 0.6435
vt 0.8493 0.6477
vt 0.9955 0.0379
vt 1.0000 0.0338
vt 0.8126 0.6435
vt 0.8082 0.6477
vt 0.9955 0.0000
vt 1.0000 0.0041
vt 0.9954 0.0716
vt 1.0000 0.0716
vt 0.9955 0.0758
vt 0.8538 0.4249
vt 0.8493 0.4208
vt 0.9954 0.0420
vt 0.9955 0.0379
vt 1.0000 0.0420
vt 0.8860 0.4249
vt 0.8905 0.4208
vt 0.7901 0.7336
vt 0.7942 0.7378
vt 0.9147 0.3218
vt 0.9192 0.3180
vt 0.7942 0.7519
vt 0.7901 0.7560
vt 0.9345 0.3180
vt 0.9390 0.3218
vt 0.9588 0.8965
vt 0.9632 0.8927
vt 0.7784 0.6890
vt 0.7743 0.6849
vt 0.9434 0.8965
vt 0.9390 0.8927
vt 0.7743 0.6708
vt 0.7784 0.6667
vt 0.8493 0.0041
vt 0.8493 0.2104
vt 0.8905 0.0041
vt 0.8905 0.2104
vt 0.8538 0.0000
vt 0.8860 0.0000
vt 0.8860 0.2145
vt 0.8538 0.2145
vt 0.8493 0.2104
vt 0.8493 0.0041
vt 0.8082 0.2104
vt 0.8082 0.0041
vt 0.8448 0.2145
vt 0.8126 0.2145
vt 0.8126 0.0000
vt 0.8448 0.0000
vt 0.8905 0.3139
vt 0.8905 0.0041
vt 0.9147 0.3139
vt 0.9147 0.0041
vt 0.9345 0.3180
vt 0.9192 0.3180
vt 0.9192 0.0000
vt 0.9345 0.0000
vt 0.9390 0.0041
vt 0.9390 0.3139
vt 0.9147 0.0041
vt 0.9147 0.3139
vt 0.8949 0.0000
vt 0.9102 0.0000
vt 0.9102 0.3180
vt 0.8949 0.3180
vt 0.9632 0.0420
vt 0.9632 0.0716
vn 0.3002 0.9054 -0.3002
vn -0.3002 0.9054 -0.3002
vn -0.3002 0.9054 0.3002
vn 0.3002 0.9054 0.3002
vn 0.5773 -0.5773 -0.5773
vn 0.6507 0.3913 -0.6507
vn 0.6507 0.3913 0.6507
vn 0.5773 -0.5773 0.5773
vn -0.5773 -0.5773 0.5773
vn -0.6507 0.3913 0.6507
vn -0.6507 0.3913 -0.6507
vn -0.5773 -0.5773 -0.5773
vn 0.3416 -0.3416 0.8756
vn 0.3416 0.3416 0.8756
vn -0.3416 0.3416 0.8756
vn -0.3416 -0.3416 0.8756
vn 0.8756 -0.3416 -0.3416
vn 0.8756 0.3416 -0.3416
vn 0.8756 0.3416 0.3416
vn 0.8756 -0.3416 0.3416
vn -0.9379 -0.0604 -0.3416
vn -0.6492 -0.6796 -0.3416
vn -0.6492 -0.6796 0.3416
vn -0.9379 -0.0604 0.3416
vn 0.3416 0.8756 -0.3416
vn -0.3416 0.8756 -0.3416
vn -0.3416 0.8756 0.3416
vn 0.3416 0.8756 0.3416
vn -0.8756 -0.3416 0.3416
vn -0.8756 0.3416 0.3416
vn -0.8756 0.3416 -0.3416
vn -0.8756 -0.3416 -0.3416
vn -0.3416 -0.3416 -0.8756
vn -0.3416 0.3416 -0.8756
vn 0.3416 0.3416 -0.8756
vn 0.3416 -0.3416 -0.8756
vn -0.1652 -0.4539 0.8756
vn 0.4539 -0.1652 0.8756
vn 0.1652 0.4539 0.8756
vn -0.4539 0.1652 0.8756
vn 0.0605 -0.9379 -0.3416
vn 0.6796 -0.6492 -0.3416
vn 0.6796 -0.6492 0.3416
vn 0.0605 -0.9379 0.3416
vn 0.9379 0.0604 -0.3416
vn 0.6492 0.6796 -0.3416
vn 0.6492 0.6796 0.3416
vn 0.9379 0.0604 0.3416
vn -0.6796 0.6492 0.3416
vn -0.0604 0.9379 0.3416
vn -0.0604 0.9379 -0.3416
vn -0.6796 0.6492 -0.3416
vn -0.4539 0.1652 -0.8756
vn 0.1652 0.4539 -0.8756
vn 0.4539 -0.1652 -0.8756
vn -0.1652 -0.4539 -0.8756
vn -0.3416 -0.8756 0.3416
vn -0.3416 -0.8756 -0.3416
vn 0.3416 -0.8755 0.3416
vn 0.3416 -0.8756 -0.3416
vn 0.0604 -0.9379 -0.3416
vn 0.0604 -0.9379 0.3416
vn 0.3416 -0.8755 -0.3416
usemtl stol
s 1
f 11/1/1 7/2/2 5/3/3 9/4/4
f 4/5/5 12/6/6 10/7/7 3/8/8
f 1/9/9 6/10/10 8/11/11 2/12/12
f 2/13/12 8/14/11 12/15/6 4/16/5
f 5/3/3 7/2/2 8/17/11 6/18/10
f 7/19/2 11/20/1 12/15/6 8/14/11
f 11/21/1 9/22/4 10/7/7 12/6/6
f 9/23/4 5/24/3 6/25/10 10/26/7
f 3/27/8 10/26/7 6/25/10 1/28/9
f 2/29/12 4/30/5 3/31/8 1/32/9
f 27/33/13 29/34/14 16/35/15 14/36/16
f 33/37/17 35/38/18 30/39/19 26/40/20
f 43/41/21 55/42/22 49/43/23 37/44/24
f 34/45/25 22/46/26 17/47/27 28/48/28
f 15/49/29 18/50/30 24/51/31 20/52/32
f 21/53/33 23/54/34 36/55/35 32/56/36
f 51/57/37 53/58/38 40/59/39 38/60/40
f 57/61/41 59/62/42 54/63/43 50/64/44
f 58/65/45 46/66/46 41/67/47 52/68/48
f 39/69/49 42/70/50 48/71/51 44/72/52
f 45/73/53 47/74/54 60/75/55 56/76/56
f 13/77/57 14/78/16 15/49/29
f 16/79/15 17/47/27 18/80/30
f 19/81/58 20/52/32 21/82/33
f 22/46/26 23/83/34 24/84/31
f 25/85/59 26/86/20 27/87/13
f 28/88/28 29/89/14 30/39/19
f 31/90/60 32/91/36 33/92/17
f 34/93/25 35/38/18 36/94/35
f 37/44/24 38/95/40 39/96/49
f 40/97/39 41/98/47 42/70/50
f 43/41/21 44/99/52 45/100/53
f 46/101/46 47/102/54 48/71/51
f 49/103/23 50/64/44 51/104/37
f 52/68/48 53/105/38 54/106/43
f 55/107/22 56/108/56 57/61/41
f 58/65/45 59/109/42 60/110/55
f 19/81/58 13/77/57 15/49/29 20/52/32
f 14/36/16 16/35/15 18/111/30 15/112/29
f 17/47/27 22/46/26 24/84/31 18/80/30
f 23/54/34 21/53/33 20/113/32 24/114/31
f 31/115/60 19/116/58 21/53/33 32/56/36
f 22/117/26 34/118/25 36/55/35 23/54/34
f 35/119/18 33/120/17 32/56/36 36/55/35
f 25/85/59 31/90/60 33/92/17 26/86/20
f 34/93/25 28/88/28 30/39/19 35/38/18
f 29/34/14 27/33/13 26/121/20 30/122/19
f 13/123/57 25/124/59 27/33/13 14/36/16
f 28/125/28 17/126/27 16/35/15 29/34/14
f 43/41/21 37/44/24 39/96/49 44/99/52
f 38/60/40 40/59/39 42/127/50 39/128/49
f 41/98/47 46/101/46 48/71/51 42/70/50
f 47/74/54 45/73/53 44/129/52 48/130/51
f 55/131/22 43/132/21 45/73/53 56/76/56
f 46/133/46 58/134/45 60/75/55 47/74/54
f 59/135/42 57/136/41 56/76/56 60/75/55
f 49/103/23 55/107/22 57/61/41 50/64/44
f 58/65/45 52/68/48 54/106/43 59/109/42
f 53/58/38 51/57/37 50/137/44 54/138/43
f 37/139/24 49/140/23 51/57/37 38/60/40
f 52/141/48 41/142/47 40/59/39 53/58/38
f 19/143/58 31/90/60 25/85/59 13/144/57
f 75/145/13 77/146/14 64/147/15 62/148/16
f 81/149/17 83/150/18 78/151/19 74/152/20
f 91/153/21 103/154/22 97/155/23 85/156/24
f 82/157/25 70/158/26 65/159/27 76/160/28
f 63/161/29 66/162/30 72/163/31 68/164/32
f 69/165/33 71/166/34 84/167/35 80/168/36
f 99/169/37 101/170/38 88/171/39 86/172/40
f 105/173/61 107/174/42 102/175/43 98/176/62
f 106/177/45 94/178/46 89/179/47 100/180/48
f 87/181/49 90/182/50 96/183/51 92/184/52
f 93/185/53 95/186/54 108/187/55 104/188/56
f 61/189/57 62/190/16 63/161/29
f 64/191/15 65/159/27 66/192/30
f 67/193/58 68/164/32 69/194/33
f 70/158/26 71/195/34 72/196/31
f 73/197/59 74/198/20 75/199/13
f 76/200/28 77/201/14 78/151/19
f 79/202/63 80/203/36 81/204/17
f 82/205/25 83/150/18 84/206/35
f 85/156/24 86/207/40 87/208/49
f 88/209/39 89/210/47 90/182/50
f 91/153/21 92/211/52 93/212/53
f 94/213/46 95/214/54 96/183/51
f 97/215/23 98/176/62 99/216/37
f 100/180/48 101/217/38 102/218/43
f 103/219/22 104/220/56 105/173/61
f 106/177/45 107/221/42 108/222/55
f 67/193/58 61/189/57 63/161/29 68/164/32
f 62/148/16 64/147/15 66/223/30 63/224/29
f 65/159/27 70/158/26 72/196/31 66/192/30
f 71/166/34 69/165/33 68/225/32 72/226/31
f 79/227/63 67/228/58 69/165/33 80/168/36
f 70/229/26 82/230/25 84/167/35 71/166/34
f 83/231/18 81/232/17 80/168/36 84/167/35
f 73/197/59 79/202/63 81/204/17 74/198/20
f 82/205/25 76/200/28 78/151/19 83/150/18
f 77/146/14 75/145/13 74/233/20 78/234/19
f 61/235/57 73/236/59 75/145/13 62/148/16
f 76/237/28 65/238/27 64/147/15 77/146/14
f 91/153/21 85/156/24 87/208/49 92/211/52
f 86/172/40 88/171/39 90/239/50 87/240/49
f 89/210/47 94/213/46 96/183/51 90/182/50
f 95/186/54 93/185/53 92/241/52 96/242/51
f 103/243/22 91/244/21 93/185/53 104/188/56
f 94/245/46 106/246/45 108/187/55 95/186/54
f 107/247/42 105/248/61 104/188/56 108/187/55
f 97/215/23 103/219/22 105/173/61 98/176/62
f 106/177/45 100/180/48 102/218/43 107/221/42
f 101/170/38 99/169/37 98/249/62 102/250/43
f 85/251/24 97/252/23 99/169/37 86/172/40
f 100/253/48 89/254/47 88/171/39 101/170/38
f 67/255/58 79/202/63 73/197/59 61/256/57
