# Blender v2.78 (sub 0) OBJ File: 'base.obj'
# www.blender.org
mtllib palka.mtl
o Cylinder_Cylinder.000
v 0.790891 0.948338 0.005883
v -0.810775 0.936648 0.005883
v -0.810795 0.939888 0.006274
v 0.790871 0.951578 0.006274
v -0.810814 0.942986 0.007432
v 0.790852 0.954675 0.007432
v -0.810832 0.945806 0.009305
v 0.790835 0.957497 0.009305
v -0.810846 0.948227 0.011813
v 0.790820 0.959917 0.011813
v -0.810858 0.950141 0.014844
v 0.790808 0.961832 0.014844
v -0.810866 0.951466 0.018266
v 0.790800 0.963156 0.018266
v -0.810870 0.952144 0.021931
v 0.790796 0.963833 0.021931
v -0.810870 0.952144 0.025678
v 0.790796 0.963833 0.025678
v -0.810866 0.951466 0.029343
v 0.790800 0.963156 0.029343
v -0.810858 0.950141 0.032766
v 0.790808 0.961832 0.032766
v -0.810846 0.948227 0.035797
v 0.790820 0.959917 0.035797
v -0.810832 0.945806 0.038304
v 0.790835 0.957497 0.038304
v -0.810814 0.942986 0.040178
v 0.790852 0.954675 0.040178
v -0.810795 0.939888 0.041335
v 0.790871 0.951578 0.041335
v -0.810775 0.936648 0.041727
v 0.790891 0.948338 0.041727
v -0.810755 0.933409 0.041335
v 0.790911 0.945099 0.041335
v -0.810737 0.930311 0.040178
v 0.790930 0.942001 0.040178
v -0.810719 0.927490 0.038304
v 0.790947 0.939181 0.038304
v -0.810704 0.925070 0.035797
v 0.790962 0.936760 0.035797
v -0.810693 0.923155 0.032766
v 0.790974 0.934845 0.032766
v -0.810685 0.921830 0.029343
v 0.790982 0.933520 0.029343
v -0.810680 0.921153 0.025678
v 0.790986 0.932843 0.025678
v -0.810680 0.921153 0.021931
v 0.790986 0.932843 0.021931
v -0.810685 0.921830 0.018266
v 0.790982 0.933520 0.018266
v -0.810693 0.923155 0.014844
v 0.790974 0.934845 0.014844
v -0.810704 0.925070 0.011812
v 0.790962 0.936760 0.011813
v -0.810719 0.927490 0.009305
v 0.790947 0.939181 0.009305
v -0.810737 0.930311 0.007432
v 0.790930 0.942001 0.007432
v -0.810755 0.933409 0.006274
v 0.790911 0.945099 0.006274
vt 0.0000 0.0000
vt 1.0000 0.0000
vt 1.0000 1.0000
vt 0.0000 1.0000
vt 0.0000 0.0000
vt 1.0000 0.0000
vt 1.0000 1.0000
vt 0.0000 1.0000
vt 0.0000 0.0000
vt 1.0000 0.0000
vt 1.0000 1.0000
vt 0.0000 1.0000
vt 0.0000 0.0000
vt 1.0000 0.0000
vt 1.0000 1.0000
vt 0.0000 1.0000
vt 0.0000 0.0000
vt 1.0000 0.0000
vt 1.0000 1.0000
vt 0.0000 1.0000
vt 0.0000 0.0000
vt 1.0000 0.0000
vt 1.0000 1.0000
vt 0.0000 1.0000
vt 0.0000 0.0000
vt 1.0000 0.0000
vt 1.0000 1.0000
vt 0.0000 1.0000
vt 0.0000 0.0000
vt 1.0000 0.0000
vt 1.0000 1.0000
vt 0.0000 1.0000
vt 0.0000 0.0000
vt 1.0000 0.0000
vt 1.0000 1.0000
vt 0.0000 1.0000
vt 0.0000 0.0000
vt 1.0000 0.0000
vt 1.0000 1.0000
vt 0.0000 1.0000
vt 0.0000 0.0000
vt 1.0000 0.0000
vt 1.0000 1.0000
vt 0.0000 1.0000
vt 0.0000 0.0000
vt 1.0000 0.0000
vt 1.0000 1.0000
vt 0.0000 1.0000
vt 0.0000 0.0000
vt 1.0000 0.0000
vt 1.0000 1.0000
vt 0.0000 1.0000
vt 0.0000 0.0000
vt 1.0000 0.0000
vt 1.0000 1.0000
vt 0.0000 1.0000
vt 0.0000 0.0000
vt 1.0000 0.0000
vt 1.0000 1.0000
vt 0.0000 1.0000
vt 0.0000 0.0000
vt 1.0000 0.0000
vt 1.0000 1.0000
vt 0.0000 1.0000
vt 0.0000 0.0000
vt 1.0000 0.0000
vt 1.0000 1.0000
vt 0.0000 1.0000
vt 0.0000 0.0000
vt 1.0000 0.0000
vt 1.0000 1.0000
vt 0.0000 1.0000
vt 0.0000 0.0000
vt 1.0000 0.0000
vt 1.0000 1.0000
vt 0.0000 1.0000
vt 0.0000 0.0000
vt 1.0000 0.0000
vt 1.0000 1.0000
vt 0.0000 1.0000
vt 0.0000 0.0000
vt 1.0000 0.0000
vt 1.0000 1.0000
vt 0.0000 1.0000
vt 0.0000 0.0000
vt 1.0000 0.0000
vt 1.0000 1.0000
vt 0.0000 1.0000
vt 0.0000 0.0000
vt 1.0000 0.0000
vt 1.0000 1.0000
vt 0.0000 1.0000
vt 0.0000 0.0000
vt 1.0000 0.0000
vt 1.0000 1.0000
vt 0.0000 1.0000
vt 0.0000 0.0000
vt 1.0000 0.0000
vt 1.0000 1.0000
vt 0.0000 1.0000
vt 0.0000 0.0000
vt 1.0000 0.0000
vt 1.0000 1.0000
vt 0.0000 1.0000
vt 0.0000 0.0000
vt 1.0000 0.0000
vt 1.0000 1.0000
vt 0.0000 1.0000
vt 0.0000 0.0000
vt 1.0000 0.0000
vt 1.0000 1.0000
vt 0.0000 1.0000
vt 0.5000 1.0000
vt 0.6040 0.9891
vt 0.7034 0.9568
vt 0.7939 0.9045
vt 0.8716 0.8346
vt 0.9330 0.7500
vt 0.9755 0.6545
vt 0.9973 0.5523
vt 0.9973 0.4477
vt 0.9755 0.3455
vt 0.9330 0.2500
vt 0.8716 0.1654
vt 0.7939 0.0955
vt 0.7034 0.0432
vt 0.6040 0.0109
vt 0.5000 0.0000
vt 0.3960 0.0109
vt 0.2966 0.0432
vt 0.2061 0.0955
vt 0.1284 0.1654
vt 0.0670 0.2500
vt 0.0245 0.3455
vt 0.0027 0.4477
vt 0.0027 0.5523
vt 0.0245 0.6545
vt 0.0670 0.7500
vt 0.1284 0.8346
vt 0.2061 0.9045
vt 0.2966 0.9568
vt 0.3960 0.9891
vt 0.0000 0.0000
vt 1.0000 0.0000
vt 1.0000 1.0000
vt 0.0000 1.0000
vt 0.0000 0.0000
vt 1.0000 0.0000
vt 1.0000 1.0000
vt 0.0000 1.0000
vt 0.5000 1.0000
vt 0.6040 0.9891
vt 0.7034 0.9568
vt 0.7939 0.9045
vt 0.8716 0.8346
vt 0.9330 0.7500
vt 0.9755 0.6545
vt 0.9973 0.5523
vt 0.9973 0.4477
vt 0.9755 0.3455
vt 0.9330 0.2500
vt 0.8716 0.1654
vt 0.7939 0.0955
vt 0.7034 0.0432
vt 0.6040 0.0109
vt 0.5000 0.0000
vt 0.3960 0.0109
vt 0.2966 0.0432
vt 0.2061 0.0955
vt 0.1284 0.1654
vt 0.0670 0.2500
vt 0.0245 0.3455
vt 0.0027 0.4477
vt 0.0027 0.5523
vt 0.0245 0.6545
vt 0.0670 0.7500
vt 0.1284 0.8346
vt 0.2061 0.9045
vt 0.2966 0.9568
vt 0.3960 0.9891
vn -0.0009 0.1200 -0.9928
vn -0.0026 0.3500 -0.9367
vn -0.0040 0.5533 -0.8330
vn -0.0053 0.7194 -0.6946
vn -0.0062 0.8454 -0.5340
vn -0.0068 0.9326 -0.3610
vn -0.0072 0.9833 -0.1817
vn -0.0073 1.0000 0.0000
vn -0.0072 0.9833 0.1817
vn -0.0068 0.9326 0.3609
vn -0.0062 0.8454 0.5340
vn -0.0053 0.7194 0.6946
vn -0.0040 0.5533 0.8330
vn -0.0026 0.3500 0.9367
vn -0.0009 0.1200 0.9928
vn 0.0009 -0.1200 0.9928
vn 0.0026 -0.3500 0.9367
vn 0.0040 -0.5533 0.8330
vn 0.0053 -0.7194 0.6946
vn 0.0062 -0.8454 0.5341
vn 0.0068 -0.9326 0.3609
vn 0.0072 -0.9833 0.1817
vn 0.0073 -1.0000 0.0000
vn 0.0072 -0.9833 -0.1817
vn 0.0068 -0.9326 -0.3610
vn 0.0062 -0.8454 -0.5341
vn 0.0053 -0.7194 -0.6946
vn 0.0040 -0.5533 -0.8330
vn -1.0000 -0.0061 -0.0000
vn 0.0026 -0.3500 -0.9367
vn 0.0009 -0.1200 -0.9928
vn 1.0000 0.0061 0.0000
usemtl None.004
s 1
f 1/1/1 2/2/1 3/3/1 4/4/1
f 4/5/2 3/6/2 5/7/2 6/8/2
f 6/9/3 5/10/3 7/11/3 8/12/3
f 8/13/4 7/14/4 9/15/4 10/16/4
f 10/17/5 9/18/5 11/19/5 12/20/5
f 12/21/6 11/22/6 13/23/6 14/24/6
f 14/25/7 13/26/7 15/27/7 16/28/7
f 16/29/8 15/30/8 17/31/8 18/32/8
f 18/33/9 17/34/9 19/35/9 20/36/9
f 20/37/10 19/38/10 21/39/10 22/40/10
f 22/41/11 21/42/11 23/43/11 24/44/11
f 24/45/12 23/46/12 25/47/12 26/48/12
f 26/49/13 25/50/13 27/51/13 28/52/13
f 28/53/14 27/54/14 29/55/14 30/56/14
f 30/57/15 29/58/15 31/59/15 32/60/15
f 32/61/16 31/62/16 33/63/16 34/64/16
f 34/65/17 33/66/17 35/67/17 36/68/17
f 36/69/18 35/70/18 37/71/18 38/72/18
f 38/73/19 37/74/19 39/75/19 40/76/19
f 40/77/20 39/78/20 41/79/20 42/80/20
f 42/81/21 41/82/21 43/83/21 44/84/21
f 44/85/22 43/86/22 45/87/22 46/88/22
f 46/89/23 45/90/23 47/91/23 48/92/23
f 48/93/24 47/94/24 49/95/24 50/96/24
f 50/97/25 49/98/25 51/99/25 52/100/25
f 52/101/26 51/102/26 53/103/26 54/104/26
f 54/105/27 53/106/27 55/107/27 56/108/27
f 56/109/28 55/110/28 57/111/28 58/112/28
f 3/113/29 2/114/29 59/115/29 57/116/29 55/117/29 53/118/29 51/119/29 49/120/29 47/121/29 45/122/29 43/123/29 41/124/29 39/125/29 37/126/29 35/127/29 33/128/29 31/129/29 29/130/29 27/131/29 25/132/29 23/133/29 21/134/29 19/135/29 17/136/29 15/137/29 13/138/29 11/139/29 9/140/29 7/141/29 5/142/29
f 58/143/30 57/144/30 59/145/30 60/146/30
f 60/147/31 59/148/31 2/149/31 1/150/31
f 1/151/32 4/152/32 6/153/32 8/154/32 10/155/32 12/156/32 14/157/32 16/158/32 18/159/32 20/160/32 22/161/32 24/162/32 26/163/32 28/164/32 30/165/32 32/166/32 34/167/32 36/168/32 38/169/32 40/170/32 42/171/32 44/172/32 46/173/32 48/174/32 50/175/32 52/176/32 54/177/32 56/178/32 58/179/32 60/180/32
