# Blender v2.79 (sub 0) OBJ File: ''
# www.blender.org
mtllib load1.mtl
o Cylinder.005_Cylinder.010
v 0.425997 3.367862 -0.312335
v 0.425997 3.217323 -0.312335
v 0.380086 3.367862 -0.316857
v 0.380086 3.217323 -0.316857
v 0.335939 3.367862 -0.330249
v 0.335939 3.217323 -0.330249
v 0.295253 3.367862 -0.351996
v 0.295253 3.217323 -0.351996
v 0.259592 3.367862 -0.381263
v 0.259592 3.217323 -0.381263
v 0.230325 3.367862 -0.416924
v 0.230325 3.217323 -0.416924
v 0.208578 3.367862 -0.457610
v 0.208578 3.217323 -0.457610
v 0.195186 3.367862 -0.501757
v 0.195186 3.217323 -0.501757
v 0.190664 3.367862 -0.547668
v 0.190664 3.217323 -0.547668
v 0.195186 3.367862 -0.593579
v 0.195186 3.217323 -0.593579
v 0.208578 3.367862 -0.637726
v 0.208578 3.217323 -0.637726
v 0.230325 3.367862 -0.678412
v 0.230325 3.217323 -0.678412
v 0.259592 3.367862 -0.714074
v 0.259592 3.217323 -0.714074
v 0.295253 3.367862 -0.743340
v 0.295253 3.217323 -0.743340
v 0.335939 3.367862 -0.765088
v 0.335939 3.217323 -0.765088
v 0.380086 3.367862 -0.778479
v 0.380086 3.217323 -0.778479
v 0.425998 3.367862 -0.783001
v 0.425998 3.217323 -0.783001
v 0.471909 3.367862 -0.778479
v 0.471909 3.217323 -0.778479
v 0.516056 3.367862 -0.765088
v 0.516056 3.217323 -0.765088
v 0.556742 3.367862 -0.743340
v 0.556742 3.217323 -0.743340
v 0.592403 3.367862 -0.714074
v 0.592403 3.217323 -0.714074
v 0.621670 3.367862 -0.678412
v 0.621670 3.217323 -0.678412
v 0.643417 3.367862 -0.637726
v 0.643417 3.217323 -0.637726
v 0.656809 3.367862 -0.593579
v 0.656809 3.217323 -0.593579
v 0.661331 3.367862 -0.547668
v 0.661331 3.217323 -0.547668
v 0.656809 3.367862 -0.501757
v 0.656809 3.217323 -0.501757
v 0.643417 3.367862 -0.457610
v 0.643417 3.217323 -0.457610
v 0.621670 3.367862 -0.416924
v 0.621670 3.217323 -0.416924
v 0.592403 3.367862 -0.381262
v 0.592403 3.217323 -0.381262
v 0.556741 3.367862 -0.351996
v 0.556741 3.217323 -0.351996
v 0.516055 3.367862 -0.330249
v 0.516055 3.217323 -0.330249
v 0.471908 3.367862 -0.316857
v 0.471908 3.217323 -0.316857
v 0.425997 3.292592 -0.220047
v 0.362082 3.292592 -0.226342
v 0.300622 3.292592 -0.244986
v 0.243981 3.292592 -0.275261
v 0.194334 3.292592 -0.316005
v 0.153590 3.292592 -0.365652
v 0.123315 3.292592 -0.422293
v 0.104672 3.292592 -0.483752
v 0.098376 3.292592 -0.547668
v 0.104672 3.292592 -0.611584
v 0.123315 3.292592 -0.673043
v 0.153590 3.292592 -0.729685
v 0.194334 3.292592 -0.779331
v 0.243981 3.292592 -0.820075
v 0.300622 3.292592 -0.850351
v 0.362082 3.292592 -0.868994
v 0.425998 3.292592 -0.875289
v 0.489913 3.292592 -0.868994
v 0.551373 3.292592 -0.850351
v 0.608014 3.292592 -0.820075
v 0.657661 3.292592 -0.779331
v 0.698405 3.292592 -0.729685
v 0.728680 3.292592 -0.673043
v 0.747324 3.292592 -0.611584
v 0.753619 3.292592 -0.547668
v 0.747323 3.292592 -0.483752
v 0.728680 3.292592 -0.422293
v 0.698404 3.292592 -0.365651
v 0.657660 3.292592 -0.316005
v 0.608014 3.292592 -0.275261
v 0.551372 3.292592 -0.244986
v 0.489913 3.292592 -0.226342
v 0.415530 3.367862 -0.534297
v 0.415530 3.217323 -0.534297
v 0.415530 3.217323 -0.568452
v 0.415530 3.367862 -0.568452
v 0.410699 3.217323 -0.545377
v 0.410699 3.367862 -0.545377
v 0.412540 3.217323 -0.563137
v 0.412540 3.367862 -0.563137
v 0.436118 3.367862 -0.521226
v 0.436118 3.217323 -0.521226
v 0.465307 3.367862 -0.529639
v 0.465307 3.217323 -0.529639
v 0.469331 3.367862 -0.534297
v 0.469331 3.217323 -0.534297
v 0.474783 3.367862 -0.551374
v 0.474783 3.217323 -0.551374
v 0.448742 3.367862 -0.521226
v 0.448742 3.217323 -0.521226
v 0.454811 3.367862 -0.522975
v 0.454811 3.217323 -0.522975
v 0.474162 3.367862 -0.545377
v 0.474162 3.217323 -0.545377
v 0.469331 3.217323 -0.568452
v 0.469331 3.367862 -0.568452
v 0.474162 3.217323 -0.557371
v 0.474162 3.367862 -0.557371
v 0.460404 3.367862 -0.525816
v 0.460404 3.217323 -0.525816
v 0.472320 3.367862 -0.539611
v 0.472320 3.217323 -0.539611
v 0.465307 3.217323 -0.573110
v 0.465307 3.367862 -0.573110
v 0.454811 3.217323 -0.579773
v 0.454811 3.367862 -0.579773
v 0.448742 3.217323 -0.581522
v 0.448742 3.367862 -0.581522
v 0.472320 3.217323 -0.563137
v 0.472320 3.367862 -0.563137
v 0.460404 3.217323 -0.576932
v 0.460404 3.367862 -0.576932
v 0.412540 3.367862 -0.539611
v 0.412540 3.217323 -0.539611
v 0.410699 3.217323 -0.557371
v 0.410699 3.367862 -0.557371
v 0.442430 3.217323 -0.582113
v 0.442430 3.367862 -0.582113
v 0.410077 3.217323 -0.551374
v 0.410077 3.367862 -0.551374
v 0.424456 3.217323 -0.576932
v 0.424456 3.367862 -0.576932
v 0.442430 3.367862 -0.520636
v 0.442430 3.217323 -0.520636
v 0.419553 3.367862 -0.529639
v 0.419553 3.217323 -0.529639
v 0.419553 3.217323 -0.573110
v 0.419553 3.367862 -0.573110
v 0.424456 3.367862 -0.525816
v 0.424456 3.217323 -0.525816
v 0.436118 3.217323 -0.581522
v 0.436118 3.367862 -0.581522
v 0.430049 3.367862 -0.522975
v 0.430049 3.217323 -0.522975
v 0.430049 3.217323 -0.579773
v 0.430049 3.367862 -0.579773
vn -0.0621 -0.7734 0.6308
vn -0.1840 -0.7734 0.6066
vn -0.2988 -0.7734 0.5590
vn -0.4021 -0.7734 0.4900
vn -0.4900 -0.7734 0.4021
vn -0.5590 -0.7734 0.2988
vn -0.6066 -0.7734 0.1840
vn -0.6308 -0.7734 0.0621
vn -0.6308 -0.7734 -0.0621
vn -0.6066 -0.7734 -0.1840
vn -0.5590 -0.7734 -0.2988
vn -0.4900 -0.7734 -0.4021
vn -0.4021 -0.7734 -0.4900
vn -0.2988 -0.7734 -0.5590
vn -0.1840 -0.7734 -0.6066
vn -0.0621 -0.7734 -0.6308
vn 0.0621 -0.7734 -0.6308
vn 0.1840 -0.7734 -0.6066
vn 0.2988 -0.7734 -0.5590
vn 0.4021 -0.7734 -0.4900
vn 0.4900 -0.7734 -0.4021
vn 0.5590 -0.7734 -0.2988
vn 0.6066 -0.7734 -0.1840
vn 0.6308 -0.7734 -0.0621
vn 0.6308 -0.7734 0.0621
vn 0.6066 -0.7734 0.1840
vn 0.5590 -0.7734 0.2988
vn 0.4900 -0.7734 0.4021
vn 0.4021 -0.7734 0.4900
vn 0.2988 -0.7734 0.5590
vn 0.0000 -1.0000 0.0000
vn 0.1840 -0.7734 0.6066
vn 0.0621 -0.7734 0.6308
vn 0.0000 1.0000 -0.0000
vn 0.0621 0.7734 0.6308
vn 0.1840 0.7734 0.6066
vn 0.2988 0.7734 0.5590
vn 0.4021 0.7734 0.4900
vn 0.4900 0.7734 0.4021
vn 0.5590 0.7734 0.2988
vn 0.6066 0.7734 0.1840
vn 0.6308 0.7734 0.0621
vn 0.6308 0.7734 -0.0621
vn 0.6066 0.7734 -0.1840
vn 0.5590 0.7734 -0.2988
vn 0.4900 0.7734 -0.4021
vn 0.4021 0.7734 -0.4900
vn 0.2988 0.7734 -0.5590
vn 0.1840 0.7734 -0.6066
vn 0.0621 0.7734 -0.6308
vn -0.0621 0.7734 -0.6308
vn -0.1840 0.7734 -0.6066
vn -0.2988 0.7734 -0.5590
vn -0.4021 0.7734 -0.4900
vn -0.4900 0.7734 -0.4021
vn -0.5590 0.7734 -0.2988
vn -0.6066 0.7734 -0.1840
vn -0.6308 0.7734 -0.0621
vn -0.6308 0.7734 0.0621
vn -0.6066 0.7734 0.1840
vn -0.5590 0.7734 0.2988
vn -0.4900 0.7734 0.4021
vn -0.4021 0.7734 0.4900
vn -0.2988 0.7734 0.5590
vn -0.1840 0.7734 0.6066
vn -0.0621 0.7734 0.6308
vn 0.4528 0.0000 0.8916
vn 0.7568 0.0000 0.6537
vn 0.2769 0.0000 0.9609
vn 0.8716 0.0000 -0.4903
vn -0.9526 0.0000 -0.3042
vn 0.4528 0.0000 -0.8916
vn 0.8716 0.0000 0.4903
vn -0.9947 0.0000 -0.1031
vn 0.0932 0.0000 0.9957
vn -0.7568 0.0000 -0.6537
vn -0.4528 -0.0000 -0.8916
vn -0.0932 0.0000 0.9957
vn 0.2769 0.0000 -0.9609
vn -0.7568 0.0000 0.6537
vn -0.8715 0.0000 0.4903
vn -0.2769 0.0000 -0.9609
vn -0.8716 0.0000 -0.4903
vn 0.0932 0.0000 -0.9957
vn 0.9526 0.0000 -0.3042
vn -0.9947 0.0000 0.1031
vn -0.9526 0.0000 0.3042
vn -0.6149 0.0000 0.7886
vn -0.4528 -0.0000 0.8916
vn -0.2769 0.0000 0.9609
vn 0.7568 0.0000 -0.6537
vn 0.6149 0.0000 0.7886
vn -0.6149 0.0000 -0.7886
vn 0.6149 0.0000 -0.7886
vn 0.9947 0.0000 0.1031
vn 0.9526 0.0000 0.3042
vn -0.0932 0.0000 -0.9956
vn 0.9947 0.0000 -0.1031
usemtl None
s off
f 65//1 66//1 4//1 2//1
f 66//2 67//2 6//2 4//2
f 67//3 68//3 8//3 6//3
f 68//4 69//4 10//4 8//4
f 69//5 70//5 12//5 10//5
f 70//6 71//6 14//6 12//6
f 71//7 72//7 16//7 14//7
f 72//8 73//8 18//8 16//8
f 73//9 74//9 20//9 18//9
f 74//10 75//10 22//10 20//10
f 75//11 76//11 24//11 22//11
f 76//12 77//12 26//12 24//12
f 77//13 78//13 28//13 26//13
f 78//14 79//14 30//14 28//14
f 79//15 80//15 32//15 30//15
f 80//16 81//16 34//16 32//16
f 81//17 82//17 36//17 34//17
f 82//18 83//18 38//18 36//18
f 83//19 84//19 40//19 38//19
f 84//20 85//20 42//20 40//20
f 85//21 86//21 44//21 42//21
f 86//22 87//22 46//22 44//22
f 87//23 88//23 48//23 46//23
f 88//24 89//24 50//24 48//24
f 89//25 90//25 52//25 50//25
f 90//26 91//26 54//26 52//26
f 91//27 92//27 56//27 54//27
f 92//28 93//28 58//28 56//28
f 93//29 94//29 60//29 58//29
f 94//30 95//30 62//30 60//30
f 4//31 6//31 8//31 10//31 12//31 14//31 16//31 18//31 20//31 143//31 101//31 138//31 98//31 150//31 154//31 158//31 106//31 148//31 114//31 116//31 124//31 108//31 110//31 126//31 118//31 112//31 50//31 52//31 54//31 56//31 58//31 60//31 62//31 64//31 2//31
f 95//32 96//32 64//32 62//32
f 96//33 65//33 2//33 64//33
f 1//34 63//34 61//34 59//34 57//34 55//34 53//34 51//34 49//34 111//34 117//34 125//34 109//34 107//34 123//34 115//34 113//34 147//34 105//34 157//34 153//34 149//34 97//34 137//34 102//34 144//34 19//34 17//34 15//34 13//34 11//34 9//34 7//34 5//34 3//34
f 63//35 1//35 65//35 96//35
f 61//36 63//36 96//36 95//36
f 59//37 61//37 95//37 94//37
f 57//38 59//38 94//38 93//38
f 55//39 57//39 93//39 92//39
f 53//40 55//40 92//40 91//40
f 51//41 53//41 91//41 90//41
f 49//42 51//42 90//42 89//42
f 47//43 49//43 89//43 88//43
f 45//44 47//44 88//44 87//44
f 43//45 45//45 87//45 86//45
f 41//46 43//46 86//46 85//46
f 39//47 41//47 85//47 84//47
f 37//48 39//48 84//48 83//48
f 35//49 37//49 83//49 82//49
f 33//50 35//50 82//50 81//50
f 31//51 33//51 81//51 80//51
f 29//52 31//52 80//52 79//52
f 27//53 29//53 79//53 78//53
f 25//54 27//54 78//54 77//54
f 23//55 25//55 77//55 76//55
f 21//56 23//56 76//56 75//56
f 19//57 21//57 75//57 74//57
f 17//58 19//58 74//58 73//58
f 15//59 17//59 73//59 72//59
f 13//60 15//60 72//60 71//60
f 11//61 13//61 71//61 70//61
f 9//62 11//62 70//62 69//62
f 7//63 9//63 69//63 68//63
f 5//64 7//64 68//64 67//64
f 3//65 5//65 67//65 66//65
f 1//66 3//66 66//66 65//66
f 145//67 159//67 160//67 146//67
f 49//34 47//34 45//34 43//34 41//34 39//34 37//34 35//34 33//34 31//34 29//34 27//34 25//34 23//34 21//34 19//34 144//34 140//34 104//34 100//34 152//34 146//34 160//34 156//34 142//34 132//34 130//34 136//34 128//34 120//34 134//34 122//34 111//34
f 99//68 151//68 152//68 100//68
f 159//69 155//69 156//69 160//69
f 98//70 138//70 137//70 97//70
f 118//71 126//71 125//71 117//71
f 158//72 154//72 153//72 157//72
f 103//73 99//73 100//73 104//73
f 112//74 118//74 117//74 111//74
f 155//75 141//75 142//75 156//75
f 110//76 108//76 107//76 109//76
f 124//77 116//77 115//77 123//77
f 141//78 131//78 132//78 142//78
f 106//79 158//79 157//79 105//79
f 127//80 119//80 120//80 128//80
f 119//81 133//81 134//81 120//81
f 116//82 114//82 113//82 115//82
f 126//83 110//83 109//83 125//83
f 20//31 22//31 24//31 26//31 28//31 30//31 32//31 34//31 36//31 38//31 40//31 42//31 44//31 46//31 48//31 50//31 112//31 121//31 133//31 119//31 127//31 135//31 129//31 131//31 141//31 155//31 159//31 145//31 151//31 99//31 103//31 139//31 143//31
f 148//84 106//84 105//84 147//84
f 138//85 101//85 102//85 137//85
f 121//86 112//86 111//86 122//86
f 133//87 121//87 122//87 134//87
f 135//88 127//88 128//88 136//88
f 129//89 135//89 136//89 130//89
f 131//90 129//90 130//90 132//90
f 150//91 98//91 97//91 149//91
f 151//92 145//92 146//92 152//92
f 108//93 124//93 123//93 107//93
f 154//94 150//94 149//94 153//94
f 143//95 139//95 140//95 144//95
f 139//96 103//96 104//96 140//96
f 114//97 148//97 147//97 113//97
f 101//98 143//98 144//98 102//98
