# Blender v2.79 (sub 0) OBJ File: ''
# www.blender.org
mtllib load2.mtl
o Cylinder.004_Cylinder.006
v 0.425997 1.330888 -0.312335
v 0.425997 1.180349 -0.312335
v 0.380086 1.330888 -0.316857
v 0.380086 1.180349 -0.316857
v 0.335939 1.330888 -0.330249
v 0.335939 1.180349 -0.330249
v 0.295253 1.330888 -0.351996
v 0.295253 1.180349 -0.351996
v 0.259592 1.330888 -0.381263
v 0.259592 1.180349 -0.381263
v 0.230325 1.330888 -0.416924
v 0.230325 1.180349 -0.416924
v 0.208578 1.330888 -0.457610
v 0.208578 1.180349 -0.457610
v 0.195186 1.330888 -0.501757
v 0.195186 1.180349 -0.501757
v 0.190664 1.330888 -0.547668
v 0.190664 1.180349 -0.547668
v 0.195186 1.330888 -0.593579
v 0.195186 1.180349 -0.593579
v 0.208578 1.330888 -0.637726
v 0.208578 1.180349 -0.637726
v 0.230325 1.330888 -0.678412
v 0.230325 1.180349 -0.678412
v 0.259592 1.330888 -0.714074
v 0.259592 1.180349 -0.714074
v 0.295253 1.330888 -0.743340
v 0.295253 1.180349 -0.743340
v 0.335939 1.330888 -0.765088
v 0.335939 1.180349 -0.765088
v 0.380086 1.330888 -0.778479
v 0.380086 1.180349 -0.778479
v 0.425998 1.330888 -0.783001
v 0.425998 1.180349 -0.783001
v 0.471909 1.330888 -0.778479
v 0.471909 1.180349 -0.778479
v 0.516056 1.330888 -0.765088
v 0.516056 1.180349 -0.765088
v 0.556742 1.330888 -0.743340
v 0.556742 1.180349 -0.743340
v 0.592403 1.330888 -0.714074
v 0.592403 1.180349 -0.714074
v 0.621670 1.330888 -0.678412
v 0.621670 1.180349 -0.678412
v 0.643417 1.330888 -0.637726
v 0.643417 1.180349 -0.637726
v 0.656809 1.330888 -0.593579
v 0.656809 1.180349 -0.593579
v 0.661331 1.330888 -0.547668
v 0.661331 1.180349 -0.547668
v 0.656809 1.330888 -0.501757
v 0.656809 1.180349 -0.501757
v 0.643417 1.330888 -0.457610
v 0.643417 1.180349 -0.457610
v 0.621670 1.330888 -0.416924
v 0.621670 1.180349 -0.416924
v 0.592403 1.330888 -0.381262
v 0.592403 1.180349 -0.381262
v 0.556741 1.330888 -0.351996
v 0.556741 1.180349 -0.351996
v 0.516055 1.330888 -0.330249
v 0.516055 1.180349 -0.330249
v 0.471908 1.330888 -0.316857
v 0.471908 1.180349 -0.316857
v 0.425997 1.255618 -0.220047
v 0.362082 1.255618 -0.226342
v 0.300622 1.255618 -0.244986
v 0.243981 1.255618 -0.275261
v 0.194334 1.255618 -0.316005
v 0.153590 1.255618 -0.365652
v 0.123315 1.255618 -0.422293
v 0.104672 1.255618 -0.483752
v 0.098376 1.255618 -0.547668
v 0.104672 1.255618 -0.611584
v 0.123315 1.255618 -0.673043
v 0.153590 1.255618 -0.729685
v 0.194334 1.255618 -0.779331
v 0.243981 1.255618 -0.820075
v 0.300622 1.255618 -0.850351
v 0.362082 1.255618 -0.868994
v 0.425998 1.255618 -0.875289
v 0.489913 1.255618 -0.868994
v 0.551373 1.255618 -0.850351
v 0.608014 1.255618 -0.820075
v 0.657661 1.255618 -0.779331
v 0.698405 1.255618 -0.729685
v 0.728680 1.255618 -0.673043
v 0.747324 1.255618 -0.611584
v 0.753619 1.255618 -0.547668
v 0.747323 1.255618 -0.483752
v 0.728680 1.255618 -0.422293
v 0.698404 1.255618 -0.365651
v 0.657660 1.255618 -0.316005
v 0.608014 1.255618 -0.275261
v 0.551372 1.255618 -0.244986
v 0.489913 1.255618 -0.226342
v 0.472320 1.330888 -0.539611
v 0.472320 1.180349 -0.539611
v 0.469331 1.330888 -0.534297
v 0.469331 1.180349 -0.534297
v 0.460404 1.180349 -0.576932
v 0.460404 1.330888 -0.576932
v 0.454811 1.180349 -0.579773
v 0.454811 1.330888 -0.579773
v 0.442430 1.330888 -0.520636
v 0.442430 1.180349 -0.520636
v 0.448742 1.330888 -0.521226
v 0.448742 1.180349 -0.521226
v 0.424456 1.180349 -0.576932
v 0.424456 1.330888 -0.576932
v 0.419553 1.180349 -0.573110
v 0.419553 1.330888 -0.573110
v 0.410077 1.180349 -0.551374
v 0.410077 1.330888 -0.551374
v 0.472320 1.180349 -0.563137
v 0.472320 1.330888 -0.563137
v 0.410699 1.180349 -0.557371
v 0.410699 1.330888 -0.557371
v 0.474162 1.180349 -0.557371
v 0.474162 1.330888 -0.557371
v 0.448742 1.180349 -0.581522
v 0.448742 1.330888 -0.581522
v 0.419553 1.330888 -0.529639
v 0.419553 1.180349 -0.529639
v 0.424456 1.330888 -0.525816
v 0.424456 1.180349 -0.525816
v 0.430049 1.180349 -0.579773
v 0.430049 1.330888 -0.579773
v 0.436118 1.180349 -0.581522
v 0.436118 1.330888 -0.581522
v 0.474783 1.330888 -0.551374
v 0.474783 1.180349 -0.551374
v 0.465307 1.180349 -0.573110
v 0.465307 1.330888 -0.573110
v 0.412540 1.330888 -0.539611
v 0.412540 1.180349 -0.539611
v 0.460404 1.330888 -0.525816
v 0.460404 1.180349 -0.525816
v 0.465307 1.330888 -0.529639
v 0.465307 1.180349 -0.529639
v 0.469331 1.180349 -0.568452
v 0.469331 1.330888 -0.568452
v 0.430049 1.330888 -0.522976
v 0.430049 1.180349 -0.522976
v 0.412540 1.180349 -0.563137
v 0.412540 1.330888 -0.563137
v 0.454811 1.330888 -0.522976
v 0.454811 1.180349 -0.522976
v 0.436118 1.330888 -0.521226
v 0.436118 1.180349 -0.521226
v 0.474162 1.330888 -0.545377
v 0.474162 1.180349 -0.545377
v 0.415530 1.180349 -0.568452
v 0.415530 1.330888 -0.568452
v 0.415530 1.330888 -0.534297
v 0.415530 1.180349 -0.534297
v 0.410699 1.180349 -0.545377
v 0.410699 1.330888 -0.545377
v 0.442430 1.180349 -0.582113
v 0.442430 1.330888 -0.582113
vn -0.0621 -0.7734 0.6308
vn -0.1840 -0.7734 0.6066
vn -0.2988 -0.7734 0.5590
vn -0.4021 -0.7734 0.4900
vn -0.4900 -0.7734 0.4021
vn -0.5590 -0.7734 0.2988
vn -0.6066 -0.7734 0.1840
vn -0.6308 -0.7734 0.0621
vn -0.6308 -0.7734 -0.0621
vn -0.6066 -0.7734 -0.1840
vn -0.5590 -0.7734 -0.2988
vn -0.4900 -0.7734 -0.4021
vn -0.4021 -0.7734 -0.4900
vn -0.2988 -0.7734 -0.5590
vn -0.1840 -0.7734 -0.6066
vn -0.0621 -0.7734 -0.6308
vn 0.0621 -0.7734 -0.6308
vn 0.1840 -0.7734 -0.6066
vn 0.2988 -0.7734 -0.5590
vn 0.4021 -0.7734 -0.4900
vn 0.4900 -0.7734 -0.4021
vn 0.5590 -0.7734 -0.2988
vn 0.6066 -0.7734 -0.1840
vn 0.6308 -0.7734 -0.0621
vn 0.6308 -0.7734 0.0621
vn 0.6066 -0.7734 0.1840
vn 0.5590 -0.7734 0.2988
vn 0.4900 -0.7734 0.4021
vn 0.4021 -0.7734 0.4900
vn 0.2988 -0.7734 0.5590
vn -0.0000 -1.0000 -0.0000
vn 0.1840 -0.7734 0.6066
vn 0.0621 -0.7734 0.6308
vn 0.0000 1.0000 -0.0000
vn 0.0621 0.7734 0.6308
vn 0.1840 0.7734 0.6066
vn 0.2988 0.7734 0.5590
vn 0.4021 0.7734 0.4900
vn 0.4900 0.7734 0.4021
vn 0.5590 0.7734 0.2988
vn 0.6066 0.7734 0.1840
vn 0.6308 0.7734 0.0621
vn 0.6308 0.7734 -0.0621
vn 0.6066 0.7734 -0.1840
vn 0.5590 0.7734 -0.2988
vn 0.4900 0.7734 -0.4021
vn 0.4021 0.7734 -0.4900
vn 0.2988 0.7734 -0.5590
vn 0.1840 0.7734 -0.6066
vn 0.0621 0.7734 -0.6308
vn -0.0621 0.7734 -0.6308
vn -0.1840 0.7734 -0.6066
vn -0.2988 0.7734 -0.5590
vn -0.4021 0.7734 -0.4900
vn -0.4900 0.7734 -0.4021
vn -0.5590 0.7734 -0.2988
vn -0.6066 0.7734 -0.1840
vn -0.6308 0.7734 -0.0621
vn -0.6308 0.7734 0.0621
vn -0.6066 0.7734 0.1840
vn -0.5590 0.7734 0.2988
vn -0.4900 0.7734 0.4021
vn -0.4021 0.7734 0.4900
vn -0.2988 0.7734 0.5590
vn -0.1840 0.7734 0.6066
vn -0.0621 0.7734 0.6308
vn 0.6149 0.0000 0.7886
vn 0.2769 0.0000 0.9609
vn -0.2769 0.0000 0.9609
vn 0.2769 0.0000 -0.9609
vn 0.7568 0.0000 0.6537
vn 0.8716 0.0000 0.4903
vn 0.0932 0.0000 0.9957
vn -0.4528 0.0000 -0.8916
vn 0.9526 0.0000 -0.3042
vn -0.7568 0.0000 0.6537
vn -0.9947 0.0000 -0.1031
vn -0.2769 0.0000 -0.9609
vn 0.4528 0.0000 0.8916
vn -0.9526 0.0000 -0.3042
vn 0.8715 0.0000 -0.4903
vn -0.4528 0.0000 0.8916
vn -0.9947 0.0000 0.1031
vn 0.4528 -0.0000 -0.8916
vn 0.9947 0.0000 -0.1031
vn 0.9947 0.0000 0.1031
vn 0.6149 -0.0000 -0.7886
vn -0.7568 0.0000 -0.6537
vn -0.9526 0.0000 0.3042
vn 0.0932 0.0000 -0.9957
vn 0.9526 0.0000 0.3042
vn -0.6149 0.0000 -0.7886
vn 0.7568 0.0000 -0.6537
vn -0.0932 0.0000 0.9957
vn -0.6149 0.0000 0.7886
vn -0.0932 0.0000 -0.9957
vn -0.8715 0.0000 0.4903
vn -0.8716 0.0000 -0.4903
usemtl None
s off
f 65//1 66//1 4//1 2//1
f 66//2 67//2 6//2 4//2
f 67//3 68//3 8//3 6//3
f 68//4 69//4 10//4 8//4
f 69//5 70//5 12//5 10//5
f 70//6 71//6 14//6 12//6
f 71//7 72//7 16//7 14//7
f 72//8 73//8 18//8 16//8
f 73//9 74//9 20//9 18//9
f 74//10 75//10 22//10 20//10
f 75//11 76//11 24//11 22//11
f 76//12 77//12 26//12 24//12
f 77//13 78//13 28//13 26//13
f 78//14 79//14 30//14 28//14
f 79//15 80//15 32//15 30//15
f 80//16 81//16 34//16 32//16
f 81//17 82//17 36//17 34//17
f 82//18 83//18 38//18 36//18
f 83//19 84//19 40//19 38//19
f 84//20 85//20 42//20 40//20
f 85//21 86//21 44//21 42//21
f 86//22 87//22 46//22 44//22
f 87//23 88//23 48//23 46//23
f 88//24 89//24 50//24 48//24
f 89//25 90//25 52//25 50//25
f 90//26 91//26 54//26 52//26
f 91//27 92//27 56//27 54//27
f 92//28 93//28 58//28 56//28
f 93//29 94//29 60//29 58//29
f 94//30 95//30 62//30 60//30
f 4//31 6//31 8//31 10//31 12//31 14//31 16//31 18//31 20//31 113//31 157//31 136//31 156//31 124//31 126//31 144//31 150//31 106//31 108//31 148//31 138//31 140//31 100//31 98//31 152//31 132//31 50//31 52//31 54//31 56//31 58//31 60//31 62//31 64//31 2//31
f 95//32 96//32 64//32 62//32
f 96//33 65//33 2//33 64//33
f 1//34 63//34 61//34 59//34 57//34 55//34 53//34 51//34 49//34 131//34 151//34 97//34 99//34 139//34 137//34 147//34 107//34 105//34 149//34 143//34 125//34 123//34 155//34 135//34 158//34 114//34 19//34 17//34 15//34 13//34 11//34 9//34 7//34 5//34 3//34
f 63//35 1//35 65//35 96//35
f 61//36 63//36 96//36 95//36
f 59//37 61//37 95//37 94//37
f 57//38 59//38 94//38 93//38
f 55//39 57//39 93//39 92//39
f 53//40 55//40 92//40 91//40
f 51//41 53//41 91//41 90//41
f 49//42 51//42 90//42 89//42
f 47//43 49//43 89//43 88//43
f 45//44 47//44 88//44 87//44
f 43//45 45//45 87//45 86//45
f 41//46 43//46 86//46 85//46
f 39//47 41//47 85//47 84//47
f 37//48 39//48 84//48 83//48
f 35//49 37//49 83//49 82//49
f 33//50 35//50 82//50 81//50
f 31//51 33//51 81//51 80//51
f 29//52 31//52 80//52 79//52
f 27//53 29//53 79//53 78//53
f 25//54 27//54 78//54 77//54
f 23//55 25//55 77//55 76//55
f 21//56 23//56 76//56 75//56
f 19//57 21//57 75//57 74//57
f 17//58 19//58 74//58 73//58
f 15//59 17//59 73//59 72//59
f 13//60 15//60 72//60 71//60
f 11//61 13//61 71//61 70//61
f 9//62 11//62 70//62 69//62
f 7//63 9//63 69//63 68//63
f 5//64 7//64 68//64 67//64
f 3//65 5//65 67//65 66//65
f 1//66 3//66 66//66 65//66
f 110//67 112//67 111//67 109//67
f 130//68 128//68 127//68 129//68
f 104//69 122//69 121//69 103//69
f 143//70 149//70 150//70 144//70
f 112//71 154//71 153//71 111//71
f 154//72 146//72 145//72 153//72
f 160//73 130//73 129//73 159//73
f 49//34 47//34 45//34 43//34 41//34 39//34 37//34 35//34 33//34 31//34 29//34 27//34 25//34 23//34 21//34 19//34 114//34 118//34 146//34 154//34 112//34 110//34 128//34 130//34 160//34 122//34 104//34 102//34 134//34 142//34 116//34 120//34 131//34
f 147//74 137//74 138//74 148//74
f 158//75 135//75 136//75 157//75
f 142//76 134//76 133//76 141//76
f 151//77 131//77 132//77 152//77
f 107//78 147//78 148//78 108//78
f 128//79 110//79 109//79 127//79
f 97//80 151//80 152//80 98//80
f 135//81 155//81 156//81 136//81
f 102//82 104//82 103//82 101//82
f 131//83 120//83 119//83 132//83
f 125//84 143//84 144//84 126//84
f 114//85 158//85 157//85 113//85
f 118//86 114//86 113//86 117//86
f 123//87 125//87 126//87 124//87
f 139//88 99//88 100//88 140//88
f 20//31 22//31 24//31 26//31 28//31 30//31 32//31 34//31 36//31 38//31 40//31 42//31 44//31 46//31 48//31 50//31 132//31 119//31 115//31 141//31 133//31 101//31 103//31 121//31 159//31 129//31 127//31 109//31 111//31 153//31 145//31 117//31 113//31
f 120//89 116//89 115//89 119//89
f 149//90 105//90 106//90 150//90
f 146//91 118//91 117//91 145//91
f 137//92 139//92 140//92 138//92
f 155//93 123//93 124//93 156//93
f 122//94 160//94 159//94 121//94
f 134//95 102//95 101//95 133//95
f 105//96 107//96 108//96 106//96
f 116//97 142//97 141//97 115//97
f 99//98 97//98 98//98 100//98
