# Blender v2.79 (sub 0) OBJ File: ''
# www.blender.org
mtllib stand4.mtl
o Plane.014
v -0.167951 3.695819 -0.126263
v -0.139127 3.550852 -0.106891
v -0.149948 3.696293 -0.144760
v -0.126446 3.551186 -0.119920
v -0.128827 3.696648 -0.159488
v -0.111568 3.551436 -0.130294
v -0.105400 3.696870 -0.169878
v -0.095067 3.551592 -0.137613
v -0.080566 3.696950 -0.175533
v -0.077575 3.551649 -0.141596
v -0.055281 3.696886 -0.176235
v -0.059765 3.551603 -0.142090
v -0.030517 3.696680 -0.171957
v -0.042321 3.551458 -0.139077
v -0.007224 3.696339 -0.162863
v -0.025914 3.551218 -0.132671
v 0.013702 3.695877 -0.149302
v -0.011174 3.550893 -0.123120
v 0.031457 3.695312 -0.131797
v 0.001332 3.550495 -0.110790
v 0.045359 3.694665 -0.111020
v 0.011124 3.550039 -0.096154
v 0.054873 3.693962 -0.087768
v 0.017826 3.549544 -0.079776
v 0.059634 3.693229 -0.062936
v 0.021179 3.549027 -0.062285
v 0.059458 3.692494 -0.037478
v 0.021055 3.548510 -0.044353
v 0.054353 3.691786 -0.012373
v 0.017460 3.548011 -0.026670
v 0.044515 3.691132 0.011416
v 0.010530 3.547550 -0.009913
v 0.030321 3.690556 0.032973
v 0.000532 3.547145 0.005271
v 0.012318 3.690082 0.051471
v -0.012149 3.546811 0.018301
v -0.008803 3.689727 0.066198
v -0.027026 3.546561 0.028674
v -0.032230 3.689506 0.076589
v -0.043528 3.546405 0.035993
v -0.057064 3.689425 0.082244
v -0.061020 3.546348 0.039976
v -0.082349 3.689490 0.082945
v -0.078830 3.546393 0.040470
v -0.107113 3.689696 0.078667
v -0.096274 3.546539 0.037457
v -0.130406 3.690037 0.069573
v -0.112681 3.546779 0.031051
v -0.151332 3.690498 0.056013
v -0.127421 3.547104 0.021500
v -0.169087 3.691063 0.038508
v -0.139927 3.547502 0.009170
v -0.182989 3.691710 0.017730
v -0.149719 3.547957 -0.005466
v -0.192503 3.692414 -0.005521
v -0.156420 3.548453 -0.021844
v -0.197264 3.693147 -0.030353
v -0.159774 3.548970 -0.039335
v -0.197088 3.693882 -0.055811
v -0.159650 3.549487 -0.057267
v -0.191983 3.694590 -0.080917
v -0.156054 3.549986 -0.074950
v -0.182145 3.695244 -0.104705
v -0.149124 3.550447 -0.091707
v -0.134232 3.551484 -0.129336
v -0.148641 3.551105 -0.114532
v -0.117328 3.551768 -0.141123
v -0.098578 3.551945 -0.149439
v -0.078702 3.552010 -0.153965
v -0.058466 3.551958 -0.154527
v -0.038645 3.551793 -0.151103
v -0.020003 3.551520 -0.143825
v -0.003255 3.551151 -0.132972
v 0.010955 3.550699 -0.118961
v 0.022081 3.550181 -0.102332
v 0.029696 3.549618 -0.083723
v 0.033506 3.549031 -0.063849
v 0.033366 3.548443 -0.043474
v 0.029280 3.547876 -0.023381
v 0.021406 3.547353 -0.004341
v 0.010046 3.546892 0.012912
v -0.004363 3.546513 0.027716
v -0.021267 3.546229 0.039503
v -0.040017 3.546051 0.047819
v -0.059892 3.545987 0.052345
v -0.080129 3.546038 0.052907
v -0.099949 3.546204 0.049483
v -0.118592 3.546476 0.042205
v -0.135340 3.546846 0.031352
v -0.149550 3.547298 0.017341
v -0.160676 3.547816 0.000712
v -0.168290 3.548379 -0.017897
v -0.172101 3.548965 -0.037771
v -0.171960 3.549554 -0.058146
v -0.167874 3.550120 -0.078240
v -0.160000 3.550644 -0.097279
v -0.170178 3.773238 -0.126024
v -0.151723 3.773724 -0.144985
v -0.130073 3.774087 -0.160082
v -0.106058 3.774315 -0.170733
v -0.080602 3.774397 -0.176530
v -0.054683 3.774331 -0.177249
v -0.029298 3.774120 -0.172863
v -0.005421 3.773770 -0.163542
v 0.016030 3.773297 -0.149641
v 0.034230 3.772718 -0.131697
v 0.048480 3.772055 -0.110399
v 0.058232 3.771334 -0.086565
v 0.063112 3.770582 -0.061110
v 0.062932 3.769829 -0.035014
v 0.057700 3.769103 -0.009279
v 0.047615 3.768432 0.015106
v 0.033065 3.767843 0.037204
v 0.014611 3.767357 0.056165
v -0.007040 3.766993 0.071261
v -0.031055 3.766766 0.081912
v -0.056510 3.766683 0.087709
v -0.082429 3.766749 0.088428
v -0.107815 3.766961 0.084043
v -0.131692 3.767310 0.074721
v -0.153142 3.767783 0.060821
v -0.171342 3.768363 0.042877
v -0.185592 3.769026 0.021578
v -0.195345 3.769747 -0.002256
v -0.200225 3.770498 -0.027710
v -0.200045 3.771251 -0.053806
v -0.194812 3.771977 -0.079542
v -0.184727 3.772648 -0.103926
v -0.169985 3.830870 -0.124359
v -0.151530 3.831356 -0.143321
v -0.129880 3.831719 -0.158417
v -0.105865 3.831947 -0.169068
v -0.080409 3.832029 -0.174865
v -0.054491 3.831963 -0.175584
v -0.029105 3.831752 -0.171199
v -0.005228 3.831403 -0.161877
v 0.016223 3.830929 -0.147977
v 0.034423 3.830350 -0.130033
v 0.048673 3.829687 -0.108734
v 0.058425 3.828966 -0.084900
v 0.063305 3.828214 -0.059446
v 0.063125 3.827461 -0.033349
v 0.057892 3.826735 -0.007614
v 0.047807 3.826064 0.016771
v 0.033258 3.825475 0.038868
v 0.014804 3.824989 0.057830
v -0.006847 3.824625 0.072926
v -0.030862 3.824398 0.083577
v -0.056318 3.824316 0.089374
v -0.082236 3.824381 0.090093
v -0.107622 3.824593 0.085708
v -0.131499 3.824942 0.076386
v -0.152949 3.825415 0.062486
v -0.171150 3.825995 0.044542
v -0.185400 3.826658 0.023243
v -0.195152 3.827379 -0.000591
v -0.200032 3.828130 -0.026046
v -0.199852 3.828884 -0.052142
v -0.194619 3.829609 -0.077877
v -0.184534 3.830280 -0.102262
vt 0.000000 0.000000
vt 0.000000 0.000000
vt 0.000000 0.000000
vt 0.000000 0.000000
vt 0.000000 0.000000
vt 0.000000 0.000000
vt 0.000000 0.000000
vt 0.000000 0.000000
vt 0.000000 0.000000
vt 0.000000 0.000000
vt 0.000000 0.000000
vt 0.000000 0.000000
vt 0.000000 0.000000
vt 0.000000 0.000000
vt 0.000000 0.000000
vt 0.000000 0.000000
vt 0.000000 0.000000
vt 0.000000 0.000000
vt 0.000000 0.000000
vt 0.000000 0.000000
vt 0.000000 0.000000
vt 0.000000 0.000000
vt 0.000000 0.000000
vt 0.000000 0.000000
vt 0.000000 0.000000
vt 0.000000 0.000000
vt 0.000000 0.000000
vt 0.000000 0.000000
vt 0.000000 0.000000
vt 0.000000 0.000000
vt 0.000000 0.000000
vt 0.000000 0.000000
vt 0.000000 0.000000
vt 0.000000 0.000000
vt 0.000000 0.000000
vt 0.000000 0.000000
vt 0.000000 0.000000
vt 0.000000 0.000000
vt 0.000000 0.000000
vt 0.000000 0.000000
vt 0.000000 0.000000
vt 0.000000 0.000000
vt 0.000000 0.000000
vt 0.000000 0.000000
vt 0.000000 0.000000
vt 0.000000 0.000000
vt 0.000000 0.000000
vt 0.000000 0.000000
vt 0.000000 0.000000
vt 0.000000 0.000000
vt 0.000000 0.000000
vt 0.000000 0.000000
vt 0.000000 0.000000
vt 0.000000 0.000000
vt 0.000000 0.000000
vt 0.000000 0.000000
vt 0.000000 0.000000
vt 0.000000 0.000000
vt 0.000000 0.000000
vt 0.000000 0.000000
vt 0.000000 0.000000
vt 0.000000 0.000000
vt 0.000000 0.000000
vt 0.000000 0.000000
vt 0.000000 0.000000
vt 0.000000 0.000000
vt 0.000000 0.000000
vt 0.000000 0.000000
vt 0.000000 0.000000
vt 0.000000 0.000000
vt 0.000000 0.000000
vt 0.000000 0.000000
vt 0.000000 0.000000
vt 0.000000 0.000000
vt 0.000000 0.000000
vt 0.000000 0.000000
vt 0.000000 0.000000
vt 0.000000 0.000000
vt 0.000000 0.000000
vt 0.000000 0.000000
vt 0.000000 0.000000
vt 0.000000 0.000000
vt 0.000000 0.000000
vt 0.000000 0.000000
vt 0.000000 0.000000
vt 0.000000 0.000000
vt 0.000000 0.000000
vt 0.000000 0.000000
vt 0.000000 0.000000
vt 0.000000 0.000000
vt 0.000000 0.000000
vt 0.000000 0.000000
vt 0.000000 0.000000
vt 0.000000 0.000000
vt 0.000000 0.000000
vt 0.000000 0.000000
vt 0.000000 0.000000
vt 0.000000 0.000000
vt 0.000000 0.000000
vt 0.000000 0.000000
vt 0.000000 0.000000
vt 0.000000 0.000000
vt 0.000000 0.000000
vt 0.000000 0.000000
vt 0.000000 0.000000
vt 0.000000 0.000000
vt 0.000000 0.000000
vt 0.000000 0.000000
vt 0.000000 0.000000
vt 0.000000 0.000000
vt 0.000000 0.000000
vt 0.000000 0.000000
vt 0.000000 0.000000
vt 0.000000 0.000000
vt 0.000000 0.000000
vt 0.000000 0.000000
vt 0.000000 0.000000
vt 0.000000 0.000000
vt 0.000000 0.000000
vt 0.000000 0.000000
vt 0.000000 0.000000
vt 0.000000 0.000000
vt 0.000000 0.000000
vt 0.000000 0.000000
vt 0.000000 0.000000
vt 0.000000 0.000000
vt 0.000000 0.000000
vt 0.000000 0.000000
vt 0.000000 0.000000
vt 0.000000 0.000000
vt 0.000000 0.000000
vt 0.000000 0.000000
vt 0.000000 0.000000
vt 0.000000 0.000000
vt 0.000000 0.000000
vt 0.000000 0.000000
vt 0.000000 0.000000
vt 0.000000 0.000000
vt 0.000000 0.000000
vt 0.000000 0.000000
vt 0.000000 0.000000
vt 0.000000 0.000000
vt 0.000000 0.000000
vt 0.000000 0.000000
vt 0.000000 0.000000
vt 0.000000 0.000000
vt 0.000000 0.000000
vt 0.000000 0.000000
vt 0.000000 0.000000
vt 0.000000 0.000000
vt 0.000000 0.000000
vt 0.000000 0.000000
vt 0.000000 0.000000
vt 0.000000 0.000000
vt 0.000000 0.000000
vt 0.000000 0.000000
vt 0.000000 0.000000
vt 0.000000 0.000000
vt 0.000000 0.000000
vt 0.000000 0.000000
vn 0.7754 0.0864 0.6255
vn 0.5205 0.7331 0.4376
vn 0.4327 0.7309 0.5278
vn 0.6439 0.0831 0.7606
vn 0.3289 0.7292 0.6000
vn 0.4884 0.0809 0.8688
vn 0.2121 0.7282 0.6517
vn 0.3136 0.0798 0.9462
vn 0.0861 0.7280 0.6802
vn 0.1249 0.0799 0.9889
vn -0.0449 0.7284 0.6836
vn -0.0710 0.0811 0.9941
vn -0.1755 0.7296 0.6609
vn -0.2666 0.0834 0.9602
vn -0.3003 0.7316 0.6120
vn -0.4532 0.0866 0.8872
vn -0.4133 0.7341 0.5388
vn -0.6221 0.0904 0.7776
vn -0.5091 0.7371 0.4443
vn -0.7656 0.0949 0.6363
vn -0.5837 0.7405 0.3331
vn -0.8771 0.0996 0.4699
vn -0.6341 0.7441 0.2104
vn -0.9524 0.1046 0.2863
vn -0.6589 0.7477 0.0819
vn -0.9895 0.1095 0.0939
vn -0.6582 0.7513 -0.0473
vn -0.9884 0.1144 -0.0995
vn -0.6329 0.7547 -0.1724
vn -0.9505 0.1191 -0.2868
vn -0.5847 0.7579 -0.2893
vn -0.8783 0.1235 -0.4619
vn -0.5155 0.7606 -0.3945
vn -0.7747 0.1276 -0.6193
vn -0.4277 0.7630 -0.4846
vn -0.6432 0.1312 -0.7544
vn -0.3239 0.7648 -0.5569
vn -0.4877 0.1342 -0.8626
vn -0.2071 0.7660 -0.6085
vn -0.3129 0.1364 -0.9399
vn -0.0811 0.7666 -0.6370
vn -0.1242 0.1377 -0.9826
vn 0.0499 0.7664 -0.6404
vn 0.0718 0.1379 -0.9878
vn 0.1805 0.7654 -0.6177
vn 0.2673 0.1369 -0.9538
vn 0.3053 0.7636 -0.5689
vn 0.4539 0.1346 -0.8808
vn 0.4183 0.7612 -0.4956
vn 0.6229 0.1310 -0.7712
vn 0.5141 0.7581 -0.4011
vn 0.7663 0.1263 -0.6299
vn 0.5887 0.7545 -0.2899
vn 0.8778 0.1207 -0.4635
vn 0.6391 0.7507 -0.1672
vn 0.9531 0.1145 -0.2800
vn 0.6639 0.7468 -0.0387
vn 0.9903 0.1081 -0.0876
vn 0.6632 0.7429 0.0905
vn 0.9891 0.1018 0.1058
vn 0.6379 0.7393 0.2156
vn 0.9512 0.0960 0.2930
vn 0.5897 0.7360 0.3325
vn 0.8790 0.0908 0.4681
vn -0.8834 0.0370 -0.4670
vn -0.9561 0.0323 -0.2911
vn 0.0033 0.9996 0.0289
vn 0.0033 0.9996 0.0288
vn -0.6471 0.0447 -0.7611
vn -0.4908 0.0474 -0.8700
vn -0.3594 -0.6664 -0.6532
vn -0.4730 -0.6685 -0.5739
vn 0.6263 0.0417 -0.7784
vn 0.4563 0.0454 -0.8887
vn 0.4910 -0.0061 0.8712
vn 0.6472 -0.0036 0.7623
vn -0.9583 0.0160 0.2853
vn -0.8826 0.0106 0.4700
vn -0.1253 0.0500 -0.9908
vn -0.3150 0.0492 -0.9478
vn 0.9945 0.0144 0.1039
vn 0.9957 0.0202 -0.0905
vn -0.4561 -0.0029 0.8899
vn -0.2684 -0.0057 0.9633
vn -0.7793 0.0412 -0.6253
vn 0.7706 0.0370 -0.6362
vn 0.3152 -0.0077 0.9490
vn -0.9955 0.0216 0.0918
vn 0.0718 0.0496 -0.9962
vn 0.9563 0.0090 0.2922
vn -0.6261 0.0009 0.7797
vn 0.8827 0.0318 -0.4688
vn 0.1254 -0.0081 0.9921
vn -0.9943 0.0271 -0.1027
vn 0.2685 0.0481 -0.9621
vn 0.8836 0.0041 0.4682
vn -0.7704 0.0054 0.6375
vn 0.9584 0.0261 -0.2841
vn -0.0717 -0.0075 0.9974
vn 0.7794 -0.0001 0.6265
vn 0.5646 -0.7012 0.4354
vn 0.4685 -0.7036 0.5342
vn 0.3549 -0.7054 0.6135
vn 0.2271 -0.7064 0.6704
vn 0.0890 -0.7066 0.7020
vn -0.0545 -0.7059 0.7062
vn -0.1979 -0.7045 0.6815
vn -0.3347 -0.7023 0.6282
vn -0.4586 -0.6995 0.5480
vn -0.5638 -0.6962 0.4443
vn -0.6453 -0.6926 0.3222
vn -0.7002 -0.6888 0.1875
vn -0.7271 -0.6849 0.0465
vn -0.7260 -0.6811 -0.0950
vn -0.6980 -0.6774 -0.2320
vn -0.6450 -0.6741 -0.3600
vn -0.5692 -0.6711 -0.4751
vn -0.2317 -0.6650 -0.7100
vn -0.0936 -0.6642 -0.7416
vn 0.0499 -0.6643 -0.7458
vn 0.1933 -0.6653 -0.7211
vn 0.3301 -0.6671 -0.6678
vn 0.4541 -0.6698 -0.5875
vn 0.5592 -0.6732 -0.4838
vn 0.6408 -0.6771 -0.3617
vn 0.6957 -0.6815 -0.2271
vn 0.7225 -0.6859 -0.0861
vn 0.7214 -0.6903 0.0554
vn 0.6934 -0.6944 0.1924
vn 0.6404 -0.6980 0.3204
usemtl 1.003
s 1
f 1/1/1 66/2/2 65/3/3 3/4/4
f 3/4/4 65/3/3 67/5/5 5/6/6
f 5/6/6 67/5/5 68/7/7 7/8/8
f 7/8/8 68/7/7 69/9/9 9/10/10
f 9/10/10 69/9/9 70/11/11 11/12/12
f 11/12/12 70/11/11 71/13/13 13/14/14
f 13/14/14 71/13/13 72/15/15 15/16/16
f 15/16/16 72/15/15 73/17/17 17/18/18
f 17/18/18 73/17/17 74/19/19 19/20/20
f 19/20/20 74/19/19 75/21/21 21/22/22
f 21/22/22 75/21/21 76/23/23 23/24/24
f 23/24/24 76/23/23 77/25/25 25/26/26
f 25/26/26 77/25/25 78/27/27 27/28/28
f 27/28/28 78/27/27 79/29/29 29/30/30
f 29/30/30 79/29/29 80/31/31 31/32/32
f 31/32/32 80/31/31 81/33/33 33/34/34
f 33/34/34 81/33/33 82/35/35 35/36/36
f 35/36/36 82/35/35 83/37/37 37/38/38
f 37/38/38 83/37/37 84/39/39 39/40/40
f 39/40/40 84/39/39 85/41/41 41/42/42
f 41/42/42 85/41/41 86/43/43 43/44/44
f 43/44/44 86/43/43 87/45/45 45/46/46
f 45/46/46 87/45/45 88/47/47 47/48/48
f 47/48/48 88/47/47 89/49/49 49/50/50
f 49/50/50 89/49/49 90/51/51 51/52/52
f 51/52/52 90/51/51 91/53/53 53/54/54
f 53/54/54 91/53/53 92/55/55 55/56/56
f 55/56/56 92/55/55 93/57/57 57/58/58
f 57/58/58 93/57/57 94/59/59 59/60/60
f 59/60/60 94/59/59 95/61/61 61/62/62
f 61/62/62 95/61/61 96/63/63 63/64/64
f 63/64/64 96/63/63 66/2/2 1/1/1
f 29/30/30 31/32/32 112/65/65 111/66/66
f 2/67/67 4/68/67 65/3/3 66/2/2
f 4/68/67 6/69/67 67/5/5 65/3/3
f 6/69/67 8/70/67 68/7/7 67/5/5
f 8/70/67 10/71/67 69/9/9 68/7/7
f 10/71/67 12/72/67 70/11/11 69/9/9
f 12/72/67 14/73/67 71/13/13 70/11/11
f 14/73/67 16/74/67 72/15/15 71/13/13
f 16/74/67 18/75/68 73/17/17 72/15/15
f 18/75/68 20/76/67 74/19/19 73/17/17
f 20/76/67 22/77/67 75/21/21 74/19/19
f 22/77/67 24/78/67 76/23/23 75/21/21
f 24/78/67 26/79/67 77/25/25 76/23/23
f 26/79/67 28/80/67 78/27/27 77/25/25
f 28/80/67 30/81/67 79/29/29 78/27/27
f 30/81/67 32/82/67 80/31/31 79/29/29
f 32/82/67 34/83/67 81/33/33 80/31/31
f 34/83/67 36/84/67 82/35/35 81/33/33
f 36/84/67 38/85/68 83/37/37 82/35/35
f 38/85/68 40/86/68 84/39/39 83/37/37
f 40/86/68 42/87/67 85/41/41 84/39/39
f 42/87/67 44/88/67 86/43/43 85/41/41
f 44/88/67 46/89/67 87/45/45 86/43/43
f 46/89/67 48/90/68 88/47/47 87/45/45
f 48/90/68 50/91/67 89/49/49 88/47/47
f 50/91/67 52/92/67 90/51/51 89/49/49
f 52/92/67 54/93/67 91/53/53 90/51/51
f 54/93/67 56/94/67 92/55/55 91/53/53
f 56/94/67 58/95/67 93/57/57 92/55/55
f 58/95/67 60/96/67 94/59/59 93/57/57
f 60/96/67 62/97/67 95/61/61 94/59/59
f 62/97/67 64/98/67 96/63/63 95/61/61
f 64/98/67 2/67/67 66/2/2 96/63/63
f 114/99/69 115/100/70 147/101/71 146/102/72
f 47/48/48 49/50/50 121/103/73 120/104/74
f 3/4/4 5/6/6 99/105/75 98/106/76
f 21/22/22 23/24/24 108/107/77 107/108/78
f 39/40/40 41/42/42 117/109/79 116/110/80
f 57/58/58 59/60/60 126/111/81 125/112/82
f 13/14/14 15/16/16 104/113/83 103/114/84
f 31/32/32 33/34/34 113/115/85 112/65/65
f 49/50/50 51/52/52 122/116/86 121/103/73
f 5/6/6 7/8/8 100/117/87 99/105/75
f 23/24/24 25/26/26 109/118/88 108/107/77
f 41/42/42 43/44/44 118/119/89 117/109/79
f 59/60/60 61/62/62 127/120/90 126/111/81
f 15/16/16 17/18/18 105/121/91 104/113/83
f 33/34/34 35/36/36 114/99/69 113/115/85
f 51/52/52 53/54/54 123/122/92 122/116/86
f 7/8/8 9/10/10 101/123/93 100/117/87
f 25/26/26 27/28/28 110/124/94 109/118/88
f 43/44/44 45/46/46 119/125/95 118/119/89
f 61/62/62 63/64/64 128/126/96 127/120/90
f 17/18/18 19/20/20 106/127/97 105/121/91
f 35/36/36 37/38/38 115/100/70 114/99/69
f 53/54/54 55/56/56 124/128/98 123/122/92
f 9/10/10 11/12/12 102/129/99 101/123/93
f 27/28/28 29/30/30 111/66/66 110/124/94
f 45/46/46 47/48/48 120/104/74 119/125/95
f 1/1/1 3/4/4 98/106/76 97/130/100
f 63/64/64 1/1/1 97/130/100 128/126/96
f 19/20/20 21/22/22 107/108/78 106/127/97
f 37/38/38 39/40/40 116/110/80 115/100/70
f 55/56/56 57/58/58 125/112/82 124/128/98
f 11/12/12 13/14/14 103/114/84 102/129/99
f 129/131/101 130/132/102 131/133/103 132/134/104 133/135/105 134/136/106 135/137/107 136/138/108 137/139/109 138/140/110 139/141/111 140/142/112 141/143/113 142/144/114 143/145/115 144/146/116 145/147/117 146/102/72 147/101/71 148/148/118 149/149/119 150/150/120 151/151/121 152/152/122 153/153/123 154/154/124 155/155/125 156/156/126 157/157/127 158/158/128 159/159/129 160/160/130
f 101/123/93 102/129/99 134/136/106 133/135/105
f 128/126/96 97/130/100 129/131/101 160/160/130
f 115/100/70 116/110/80 148/148/118 147/101/71
f 102/129/99 103/114/84 135/137/107 134/136/106
f 116/110/80 117/109/79 149/149/119 148/148/118
f 103/114/84 104/113/83 136/138/108 135/137/107
f 117/109/79 118/119/89 150/150/120 149/149/119
f 104/113/83 105/121/91 137/139/109 136/138/108
f 118/119/89 119/125/95 151/151/121 150/150/120
f 105/121/91 106/127/97 138/140/110 137/139/109
f 119/125/95 120/104/74 152/152/122 151/151/121
f 106/127/97 107/108/78 139/141/111 138/140/110
f 120/104/74 121/103/73 153/153/123 152/152/122
f 107/108/78 108/107/77 140/142/112 139/141/111
f 121/103/73 122/116/86 154/154/124 153/153/123
f 108/107/77 109/118/88 141/143/113 140/142/112
f 122/116/86 123/122/92 155/155/125 154/154/124
f 109/118/88 110/124/94 142/144/114 141/143/113
f 123/122/92 124/128/98 156/156/126 155/155/125
f 110/124/94 111/66/66 143/145/115 142/144/114
f 97/130/100 98/106/76 130/132/102 129/131/101
f 124/128/98 125/112/82 157/157/127 156/156/126
f 111/66/66 112/65/65 144/146/116 143/145/115
f 98/106/76 99/105/75 131/133/103 130/132/102
f 125/112/82 126/111/81 158/158/128 157/157/127
f 112/65/65 113/115/85 145/147/117 144/146/116
f 99/105/75 100/117/87 132/134/104 131/133/103
f 126/111/81 127/120/90 159/159/129 158/158/128
f 113/115/85 114/99/69 146/102/72 145/147/117
f 100/117/87 101/123/93 133/135/105 132/134/104
f 127/120/90 128/126/96 160/160/130 159/159/129
