# Blender v2.79 (sub 0) OBJ File: ''
# www.blender.org
mtllib stand5.mtl
o Plane.000
v 0.963031 3.859075 -0.649706
v 0.972908 3.859441 -0.620545
v 0.976973 3.859397 -0.589828
v 0.530371 3.859594 -0.993128
v 0.560837 3.859711 -0.995884
v 0.591455 3.859750 -0.992627
v 0.621051 3.859708 -0.983480
v -0.505216 3.859594 0.945301
v -0.535679 3.859711 0.948080
v -0.566301 3.859750 0.944846
v -0.595903 3.859708 0.935722
v -0.623349 3.859587 0.921059
v -0.943614 3.861426 0.603842
v -0.951954 3.862166 0.574218
v -0.954450 3.862968 0.543342
v -0.952246 3.917197 0.575764
v -0.954738 3.917197 0.544866
v -0.953075 3.834378 0.542525
v -0.950637 3.834378 0.573187
v -0.952038 3.863551 0.521686
v -0.943910 3.917197 0.605409
v -0.937904 3.861158 0.615057
v -0.942394 3.834378 0.602616
v -0.623186 3.917197 0.920251
v -0.626861 3.859559 0.918213
v -0.622839 3.834378 0.920510
v -0.566138 3.917197 0.944040
v -0.595740 3.917197 0.934916
v -0.595582 3.834378 0.935068
v -0.566187 3.834378 0.944127
v -0.505052 3.917197 0.944493
v -0.485990 3.859468 0.939568
v -0.535516 3.917197 0.947274
v -0.505528 3.834378 0.944583
v -0.535780 3.834378 0.947340
v 0.560937 3.834378 -0.995144
v 0.530683 3.834378 -0.992410
v 0.560673 3.917197 -0.995078
v 0.530207 3.917197 -0.992320
v 0.521914 3.859538 -0.990614
v 0.591341 3.834378 -0.991908
v 0.620730 3.834378 -0.982827
v 0.620887 3.917197 -0.982674
v 0.591292 3.917197 -0.991821
v 0.635378 3.859648 -0.974563
v 0.962024 3.918534 -0.652217
v 0.954604 3.859647 -0.664965
v 0.962411 3.833442 -0.648986
v 0.976413 3.917852 -0.589008
v 0.975202 3.859591 -0.559638
v 0.972023 3.917522 -0.621338
v 0.976246 3.834073 -0.589844
v 0.972301 3.834378 -0.620052
v 0.974382 3.834378 -0.559301
v 0.974326 3.837429 -0.559901
v -0.952154 3.910603 0.521804
v -0.952542 3.917197 0.525157
v -0.950935 3.834378 0.523508
v -0.950893 3.840973 0.520511
v -0.943910 3.917197 0.605409
v -0.939826 3.910603 0.613184
v -0.935184 3.840973 0.617708
v -0.942394 3.834378 0.602616
v -0.631938 3.910603 0.913265
v -0.626930 3.917198 0.906814
v -0.627080 3.834378 0.906672
v -0.631171 3.840973 0.914013
v -0.489004 3.917197 0.939706
v -0.485064 3.910603 0.938618
v -0.485173 3.840973 0.938730
v -0.488940 3.834378 0.939641
v 0.524927 3.917197 -0.990750
v 0.520991 3.910603 -0.989666
v 0.521096 3.840973 -0.989774
v 0.524859 3.834378 -0.990680
v 0.636672 3.910603 -0.974184
v 0.620887 3.917197 -0.982674
v 0.620730 3.834378 -0.982827
v 0.636337 3.840971 -0.974364
v 0.962024 3.918534 -0.652217
v 0.952874 3.910603 -0.666175
v 0.953463 3.840966 -0.664696
v 0.962411 3.833442 -0.648986
v 0.974717 3.910622 -0.557370
v 0.974826 3.917261 -0.560196
v 0.974382 3.834378 -0.559301
v 0.974326 3.837429 -0.559901
v 0.395165 3.910603 -0.552334
v 0.387013 3.917197 -0.550097
v 0.398958 3.910603 -0.558969
v 0.395165 3.840973 -0.552334
v 0.398958 3.840973 -0.558969
v 0.387013 3.834378 -0.550097
v 0.676648 3.834378 -0.256271
v 0.678096 3.840973 -0.254802
v 0.681797 3.840973 -0.261554
v 0.676648 3.917197 -0.256271
v 0.681797 3.910603 -0.261554
v 0.678096 3.910603 -0.254802
v 0.445939 3.917197 -0.608183
v 0.442137 3.910603 -0.601533
v 0.442137 3.840973 -0.601533
v 0.445939 3.834378 -0.608183
v 0.735859 3.840314 -0.314068
v 0.734556 3.834378 -0.315390
v 0.729262 3.840973 -0.310254
v 0.734432 3.917197 -0.315516
v 0.735880 3.910603 -0.314047
v 0.729262 3.910603 -0.310254
vt 0.521887 0.186114
vt 0.507032 0.188043
vt 0.507379 0.164869
vt 0.521887 0.163992
vt 0.507899 0.270116
vt 0.507032 0.255608
vt 0.528044 0.255608
vt 0.527807 0.270205
vt 0.507032 0.132383
vt 0.507049 0.114833
vt 0.583158 0.114833
vt 0.583632 0.127611
vt 0.583577 0.133184
vt 0.583480 0.133181
vt 0.507032 0.355357
vt 0.521417 0.355672
vt 0.521388 0.372382
vt 0.507032 0.372067
vt 0.507032 0.287568
vt 0.521388 0.287889
vt 0.521378 0.307675
vt 0.507032 0.307354
vt 0.507042 0.203355
vt 0.521388 0.203685
vt 0.521388 0.225930
vt 0.507032 0.225600
vt 0.528072 0.301197
vt 0.521850 0.300508
vt 0.523650 0.287590
vt 0.528310 0.287568
vt 0.528310 0.301201
vt 0.529717 0.203355
vt 0.534100 0.207876
vt 0.531510 0.210370
vt 0.524829 0.210370
vt 0.521851 0.209935
vt 0.524045 0.372845
vt 0.523729 0.387230
vt 0.507032 0.387201
vt 0.507347 0.372845
vt 0.527129 0.308138
vt 0.526807 0.322494
vt 0.507032 0.322484
vt 0.507353 0.308138
vt 0.529600 0.226403
vt 0.529270 0.240750
vt 0.507032 0.240750
vt 0.507362 0.226393
vt 0.531320 0.188536
vt 0.530977 0.202892
vt 0.507032 0.202892
vt 0.507375 0.188505
vt 0.528588 0.241212
vt 0.529211 0.255146
vt 0.507647 0.254961
vt 0.507032 0.241213
vt 0.526215 0.322956
vt 0.526815 0.336705
vt 0.507624 0.336505
vt 0.507032 0.322956
vt 0.533549 0.218167
vt 0.533262 0.225316
vt 0.521902 0.225316
vt 0.521851 0.219667
vt 0.523586 0.218039
vt 0.526372 0.491543
vt 0.526215 0.498492
vt 0.507032 0.498492
vt 0.507346 0.491344
vt 0.531498 0.217542
vt 0.521969 0.217577
vt 0.521851 0.210832
vt 0.521969 0.210832
vt 0.534525 0.212518
vt 0.528588 0.463616
vt 0.528588 0.470381
vt 0.507032 0.470414
vt 0.507197 0.463465
vt 0.510013 0.517242
vt 0.509383 0.503336
vt 0.518923 0.503336
vt 0.516708 0.515645
vt 0.510041 0.517359
vt 0.511685 0.438616
vt 0.515989 0.452347
vt 0.507032 0.456213
vt 0.507032 0.453658
vt 0.508279 0.439768
vt 0.512559 0.096518
vt 0.509125 0.090782
vt 0.507032 0.078556
vt 0.846869 0.079329
vt 0.852465 0.091930
vt 0.847714 0.096518
vt 0.961712 0.001284
vt 0.961954 0.005757
vt 0.961640 0.018060
vt 0.507032 0.019492
vt 0.507032 0.008157
vt 0.507458 0.000231
vt 0.495851 0.492343
vt 0.486433 0.495492
vt 0.467915 0.499577
vt 0.446852 0.502874
vt 0.446798 0.502506
vt 0.098309 0.494043
vt 0.088014 0.495377
vt 0.064439 0.492919
vt 0.042727 0.489296
vt 0.023711 0.484645
vt 0.008121 0.479146
vt 0.000231 0.474932
vt 0.009849 0.103189
vt 0.338359 0.109848
vt 0.337354 0.091497
vt 0.011555 0.087851
vt 0.010313 0.012054
vt 0.011636 0.012044
vt 0.027560 0.007175
vt 0.046578 0.003310
vt 0.068199 0.000231
vt 0.068249 0.000609
vt 0.446895 0.000232
vt 0.446844 0.006840
vt 0.468495 0.010308
vt 0.487471 0.014817
vt 0.503043 0.020192
vt 0.506569 0.022058
vt 0.529021 0.524632
vt 0.529455 0.530961
vt 0.509679 0.530961
vt 0.509383 0.524623
vt 0.529113 0.477677
vt 0.529426 0.484015
vt 0.507189 0.484004
vt 0.507032 0.477677
vt 0.530809 0.456676
vt 0.530977 0.463003
vt 0.507032 0.462973
vt 0.507032 0.456676
vt 0.507293 0.059153
vt 0.507032 0.054534
vt 0.507328 0.041767
vt 0.879332 0.041766
vt 0.879332 0.059153
vt 0.521880 0.369742
vt 0.522181 0.355357
vt 0.526022 0.355357
vt 0.526108 0.368111
vt 0.524277 0.369751
vt 0.535969 0.510159
vt 0.536487 0.516461
vt 0.519789 0.516461
vt 0.519385 0.510130
vt 0.531219 0.414639
vt 0.522494 0.414639
vt 0.522029 0.408333
vt 0.529559 0.408361
vt 0.531353 0.410016
vt 0.516452 0.453001
vt 0.516753 0.438616
vt 0.525479 0.438616
vt 0.525565 0.451387
vt 0.523734 0.453028
vt 0.509817 0.524151
vt 0.509383 0.517822
vt 0.529169 0.517822
vt 0.529465 0.524160
vt 0.507345 0.477214
vt 0.507032 0.470877
vt 0.529277 0.470887
vt 0.529434 0.477214
vt 0.515207 0.270667
vt 0.525024 0.280025
vt 0.517493 0.287105
vt 0.515089 0.287105
vt 0.507032 0.278554
vt 0.507261 0.422570
vt 0.522179 0.422570
vt 0.520270 0.435749
vt 0.507491 0.435700
vt 0.507032 0.422576
vt 0.854402 0.061067
vt 0.854894 0.065641
vt 0.853193 0.078093
vt 0.507963 0.078093
vt 0.507032 0.065631
vt 0.507752 0.059616
vt 0.519904 0.509638
vt 0.519385 0.503336
vt 0.536096 0.503336
vt 0.536500 0.509667
vt 0.529470 0.419503
vt 0.526647 0.422108
vt 0.522029 0.417789
vt 0.523980 0.416001
vt 0.526421 0.416001
vt 0.507081 0.490881
vt 0.507032 0.484477
vt 0.529154 0.484477
vt 0.529081 0.490738
vt 0.509383 0.537781
vt 0.509383 0.531520
vt 0.529292 0.531424
vt 0.528934 0.537752
vt 0.521061 0.405080
vt 0.521459 0.398753
vt 0.538075 0.398777
vt 0.537463 0.404315
vt 0.537836 0.405080
vt 0.507032 0.114371
vt 0.507032 0.096984
vt 0.833010 0.096981
vt 0.833010 0.114367
vt 0.521492 0.391903
vt 0.534832 0.391903
vt 0.535076 0.398288
vt 0.534964 0.398291
vt 0.521061 0.396569
vt 0.507032 0.337168
vt 0.521628 0.337407
vt 0.521434 0.353316
vt 0.519772 0.354894
vt 0.507032 0.353784
vt 0.521566 0.422108
vt 0.507272 0.422108
vt 0.507032 0.422081
vt 0.508581 0.408333
vt 0.521266 0.408984
vt 0.510538 0.041304
vt 0.510538 0.025252
vt 0.811997 0.025252
vt 0.811997 0.041303
vt 0.507046 0.501746
vt 0.507046 0.502590
vt 0.507032 0.502590
vt 0.507032 0.501746
vt 0.507032 0.405079
vt 0.507032 0.387693
vt 0.520598 0.387693
vt 0.520598 0.405079
vt 0.520577 0.456213
vt 0.516452 0.456213
vt 0.519964 0.454048
vt 0.524016 0.307061
vt 0.521850 0.307675
vt 0.521850 0.303549
vt 0.524370 0.184170
vt 0.522349 0.183012
vt 0.524370 0.181841
vt 0.521061 0.387693
vt 0.523081 0.388851
vt 0.521061 0.390022
vt 0.522349 0.184632
vt 0.524224 0.185570
vt 0.522349 0.186960
vt 0.523369 0.454191
vt 0.522215 0.456213
vt 0.521040 0.454191
vt 0.018305 0.516552
vt 0.008253 0.979493
vt 0.000231 0.978802
vt 0.010180 0.519101
vt 0.757768 0.138023
vt 0.507889 0.138034
vt 0.507032 0.133646
vt 0.758192 0.133646
vt 0.514856 0.151632
vt 0.725498 0.151632
vt 0.724383 0.155289
vt 0.507032 0.155289
vt 0.063345 0.993890
vt 0.405583 0.994165
vt 0.407257 0.999769
vt 0.085494 0.999767
vt 0.722490 0.151169
vt 0.507032 0.151169
vt 0.514869 0.147545
vt 0.700483 0.147290
vt 0.716159 0.146499
vt 0.532258 0.146827
vt 0.507032 0.142875
vt 0.724095 0.142848
vt 0.507032 0.436212
vt 0.577850 0.436212
vt 0.577767 0.437446
vt 0.507037 0.438153
vt 0.507032 0.405542
vt 0.583607 0.405542
vt 0.583160 0.407790
vt 0.507045 0.407871
vt 0.183096 0.604607
vt 0.502532 0.606314
vt 0.502467 0.611889
vt 0.179693 0.610164
vt 0.507032 0.155752
vt 0.719346 0.155807
vt 0.719367 0.159419
vt 0.512394 0.159420
vt 0.524685 0.163992
vt 0.524685 0.181378
vt 0.522349 0.181378
vt 0.522349 0.163992
vt 0.525546 0.501283
vt 0.507032 0.501283
vt 0.510437 0.498954
vt 0.524004 0.498954
vt 0.181508 0.592112
vt 0.183627 0.593844
vt 0.182297 0.607071
vt 0.508044 0.159885
vt 0.716602 0.159883
vt 0.716808 0.163529
vt 0.507032 0.163529
vt 0.524413 0.337330
vt 0.524430 0.354717
vt 0.522091 0.354719
vt 0.522091 0.337168
vt 0.507032 0.019955
vt 0.811972 0.019990
vt 0.502559 0.977214
vt 0.508806 0.611848
vt 0.508921 0.975060
vt 0.507500 0.138497
vt 0.730314 0.138497
vt 0.730286 0.142385
vt 0.507032 0.142385
vt 0.526759 0.372845
vt 0.526759 0.390231
vt 0.524508 0.390231
vt 0.524508 0.372845
vt 0.056666 0.991801
vt 0.035883 0.987978
vt 0.017713 0.983123
vt 0.021095 0.514433
vt 0.036800 0.509798
vt 0.055848 0.506179
vt 0.077461 0.503336
vt 0.077508 0.503714
vt 0.449127 0.507580
vt 0.449003 0.514065
vt 0.471368 0.518023
vt 0.491350 0.522994
vt 0.506054 0.528176
vt 0.502824 0.603147
vt 0.494965 0.981452
vt 0.479398 0.986492
vt 0.460460 0.990603
vt 0.438879 0.993628
vt 0.415485 0.995451
vn 0.9493 0.0064 -0.3142
vn 0.9910 0.0123 -0.1329
vn -0.7154 0.0145 -0.6986
vn -0.0902 0.0137 -0.9958
vn 0.1058 0.0142 -0.9943
vn 0.2953 0.0142 -0.9553
vn 0.5036 -0.0094 -0.8639
vn -0.7026 -0.2213 0.6763
vn 0.0909 0.0137 0.9958
vn -0.1050 0.0142 0.9944
vn -0.2945 0.0142 0.9555
vn -0.4712 0.0137 0.8819
vn -0.9626 -0.0127 0.2707
vn -0.9967 -0.0075 0.0804
vn -0.9927 -0.0445 -0.1117
vn -0.9956 -0.0501 0.0792
vn -0.8901 -0.0606 0.4517
vn -0.9614 -0.0556 0.2693
vn -0.8912 -0.0175 0.4533
vn -0.6682 0.1068 0.7363
vn 0.6980 0.0000 -0.7161
vn 0.7161 -0.0000 0.6980
vn 0.0001 1.0000 -0.0001
vn -0.1050 -0.0286 0.9941
vn -0.2944 -0.0284 0.9553
vn -0.4709 -0.0287 0.8817
vn -0.7161 0.0000 -0.6980
vn -0.2851 0.0126 -0.9584
vn 0.0907 -0.0295 0.9954
vn 0.2854 -0.0308 0.9579
vn 0.2858 0.0126 0.9582
vn 0.1058 -0.0286 -0.9940
vn 0.2951 -0.0284 -0.9550
vn -0.9938 -0.0022 -0.1107
vn 0.8564 0.0038 -0.5162
vn -0.6971 0.0054 0.7170
vn -0.0900 -0.0295 -0.9955
vn -0.2847 -0.0308 -0.9581
vn 0.9465 -0.0306 -0.3214
vn 0.9911 -0.0275 -0.1304
vn 0.9976 -0.0301 0.0631
vn -0.7122 0.0000 0.7020
vn 0.8661 -0.0455 -0.4978
vn 0.9984 0.0079 0.0568
vn 0.5012 0.0042 -0.8653
vn 0.7122 0.0000 -0.7020
vn 0.0000 0.0000 1.0000
vn -0.7020 0.0000 -0.7122
vn -0.6437 -0.6709 -0.3681
vn -0.6438 0.6709 -0.3680
vn -0.8400 0.2870 -0.4604
vn -0.8400 -0.2870 -0.4604
vn -0.4576 0.2879 -0.8413
vn -0.4760 -0.2895 -0.8304
vn 0.6835 -0.2984 0.6662
vn 0.6835 0.2985 0.6661
vn 0.4785 0.7263 -0.4936
vn 0.5348 -0.6366 -0.5556
vn -0.6000 -0.5070 0.6188
vn -0.5729 0.5717 0.5873
vn -0.7065 0.1535 -0.6909
vn -0.6835 -0.2870 -0.6712
vn -0.4747 -0.7455 0.4679
vn -0.4747 0.7455 0.4679
vn -0.8769 0.0000 -0.4807
vn -0.6699 0.2991 -0.6796
vn -0.6699 -0.2991 -0.6796
vn 0.4747 0.7455 -0.4679
vn -0.4989 0.0002 -0.8667
vn 0.4747 -0.7455 -0.4679
vn -0.6835 -0.2985 -0.6662
vn -0.6835 0.2985 -0.6662
vn -0.8682 0.0000 -0.4963
vn 0.0002 -1.0000 -0.0002
usemtl 1.004
s off
f 1/1/1 46/2/1 51/3/1 2/4/1
f 2/5/2 51/6/2 49/7/2 3/8/2
f 104/9/3 108/10/3 84/11/3 50/12/3 55/13/3 87/14/3
f 4/15/4 39/16/4 38/17/4 5/18/4
f 5/19/5 38/20/5 44/21/5 6/22/5
f 6/23/6 44/24/6 43/25/6 7/26/6
f 42/27/7 7/28/7 45/29/7 79/30/7 78/31/7
f 26/32/8 12/33/8 25/34/8 67/35/8 66/36/8
f 8/37/9 31/38/9 33/39/9 9/40/9
f 9/41/10 33/42/10 27/43/10 10/44/10
f 10/45/11 27/46/11 28/47/11 11/48/11
f 11/49/12 28/50/12 24/51/12 12/52/12
f 13/53/13 21/54/13 16/55/13 14/56/13
f 14/57/14 16/58/14 17/59/14 15/60/14
f 18/61/15 15/62/15 20/63/15 59/64/15 58/65/15
f 19/66/16 14/67/16 15/68/16 18/69/16
f 22/70/17 13/71/17 23/72/17 63/73/17 62/74/17
f 23/75/18 13/76/18 14/77/18 19/78/18
f 21/79/19 13/80/19 22/81/19 61/82/19 60/83/19
f 12/84/20 24/85/20 65/86/20 64/87/20 25/88/20
f 62/89/21 22/90/21 61/91/21 64/92/21 25/93/21 67/94/21
f 74/95/22 40/96/22 73/97/22 56/98/22 20/99/22 59/100/22
f 58/101/23 18/102/23 19/103/23 23/104/23 63/105/23 66/106/23 26/107/23 29/108/23 30/109/23 35/110/23 34/111/23 71/112/23 94/113/23 93/114/23 103/115/23 105/116/23 86/117/23 54/118/23 52/119/23 53/120/23 48/121/23 83/122/23 78/123/23 42/124/23 41/125/23 36/126/23 37/127/23 75/128/23
f 35/129/24 9/130/24 10/131/24 30/132/24
f 30/133/25 10/134/25 11/135/25 29/136/25
f 29/137/26 11/138/26 12/139/26 26/140/26
f 70/141/27 32/142/27 69/143/27 99/144/27 95/145/27
f 39/146/28 4/147/28 40/148/28 73/149/28 72/150/28
f 34/151/29 8/152/29 9/153/29 35/154/29
f 32/155/30 8/156/30 34/157/30 71/158/30 70/159/30
f 31/160/31 8/161/31 32/162/31 69/163/31 68/164/31
f 36/165/32 5/166/32 6/167/32 41/168/32
f 41/169/33 6/170/33 7/171/33 42/172/33
f 15/173/34 17/174/34 57/175/34 56/176/34 20/177/34
f 46/178/35 1/179/35 47/180/35 81/181/35 80/182/35
f 82/183/36 47/184/36 81/185/36 76/186/36 45/187/36 79/188/36
f 37/189/37 4/190/37 5/191/37 36/192/37
f 40/193/38 4/194/38 37/195/38 75/196/38 74/197/38
f 48/198/39 1/199/39 2/200/39 53/201/39
f 53/202/40 2/203/40 3/204/40 52/205/40
f 52/206/41 3/207/41 50/208/41 55/209/41 54/210/41
f 88/211/42 91/212/42 96/213/42 98/214/42
f 47/215/43 1/216/43 48/217/43 83/218/43 82/219/43
f 3/220/44 49/221/44 85/222/44 84/223/44 50/224/44
f 7/225/45 43/226/45 77/227/45 76/228/45 45/229/45
f 102/230/46 101/231/46 109/232/46 106/233/46
f 54/234/47 55/235/47 87/236/47 86/237/47
f 101/238/48 102/239/48 92/240/48 90/241/48
f 88/242/49 89/243/49 90/244/49
f 91/245/50 92/246/50 93/247/50
f 94/248/51 95/249/51 96/250/51
f 97/251/52 98/252/52 99/253/52
f 104/254/53 105/255/53 106/256/53
f 107/257/54 108/258/54 109/259/54
f 72/260/55 57/261/55 56/262/55 73/263/55
f 74/264/56 59/265/56 58/266/56 75/267/56
f 62/268/57 67/269/57 66/270/57 63/271/57
f 60/272/58 65/273/58 64/274/58 61/275/58
f 80/276/59 77/277/59 76/278/59 81/279/59
f 82/280/60 79/281/60 78/282/60 83/283/60
f 104/284/61 87/285/61 86/286/61 105/287/61
f 107/288/62 85/289/62 84/290/62 108/291/62
f 88/292/63 98/293/63 97/294/63 89/295/63
f 93/296/64 94/297/64 96/298/64 91/299/64
f 95/300/65 99/301/65 98/302/65 96/303/65
f 103/304/66 93/305/66 92/306/66 102/307/66
f 89/295/67 100/308/67 101/309/67 90/310/67
f 102/311/68 106/312/68 105/313/68 103/314/68
f 106/315/69 109/316/69 108/317/69 104/318/69
f 109/232/70 101/231/70 100/319/70 107/320/70
f 68/321/71 97/294/71 99/322/71 69/323/71
f 70/324/72 95/325/72 94/326/72 71/327/72
f 91/328/73 88/329/73 90/330/73 92/331/73
f 60/272/74 21/332/74 16/333/74 17/334/74 57/261/74 72/260/74 39/335/74 38/336/74 44/337/74 43/338/74 77/339/74 80/340/74 46/341/74 51/342/74 49/343/74 85/344/74 107/345/74 100/308/74 89/295/74 97/294/74 68/321/74 31/346/74 33/347/74 27/348/74 28/349/74 24/350/74 65/273/74
