# Blender v2.78 (sub 0) OBJ File: ''
# www.blender.org
mtllib dom.mtl
o dom_ĞšÑƒĞ±.001
v -5.232460 0.124526 -4.226716
v 1.767540 0.124526 -4.226716
v 1.767540 7.124526 -4.226716
v -5.232460 0.124526 11.773285
v 1.767540 0.124526 11.773285
v -5.232460 7.124526 11.773285
v -5.232460 7.124526 -4.226716
v 1.767540 7.124526 11.773285
v -5.357244 6.739962 -1.124611
v -5.357244 7.137096 -1.124611
v -5.357244 6.739962 -1.521745
v -5.357244 7.137096 -1.521745
v 1.871624 6.739962 -1.124611
v 1.871624 7.137096 -1.124611
v 1.871624 6.739962 -1.521745
v 1.871624 7.137096 -1.521745
v -5.357244 6.739962 -3.825069
v -5.357244 7.137096 -3.825069
v -5.357244 6.739962 -4.222203
v -5.357244 7.137096 -4.222203
v 1.871624 6.739962 -3.825069
v 1.871624 7.137096 -3.825069
v 1.871624 6.739962 -4.222203
v 1.871624 7.137096 -4.222203
v -5.357244 6.739962 9.811665
v -5.357244 7.137096 9.811665
v -5.357244 6.739962 9.414531
v -5.357244 7.137096 9.414531
v 1.871624 6.739962 9.811665
v 1.871624 7.137096 9.811665
v 1.871624 6.739962 9.414531
v 1.871624 7.137096 9.414531
v -5.357244 6.739962 7.014490
v -5.357244 7.137096 7.014490
v -5.357244 6.739962 6.617355
v -5.357244 7.137096 6.617355
v 1.871624 6.739962 7.014490
v 1.871624 7.137096 7.014490
v 1.871624 6.739962 6.617355
v 1.871624 7.137096 6.617355
v -5.349125 6.739962 1.591753
v -5.349125 7.137096 1.591753
v -5.349125 6.739962 1.194618
v -5.349125 7.137096 1.194618
v 1.879744 6.739962 1.591753
v 1.879744 7.137096 1.591753
v 1.879744 6.739962 1.194618
v 1.879744 7.137096 1.194618
v -5.357244 6.739962 4.363466
v -5.357244 7.137096 4.363466
v -5.357244 6.739962 3.966332
v -5.357244 7.137096 3.966332
v 1.871624 6.739962 4.363466
v 1.871624 7.137096 4.363466
v 1.871624 6.739962 3.966332
v 1.871624 7.137096 3.966332
vt 0.3013 0.0026
vt 0.3013 0.6843
vt 0.0026 0.6843
vt 0.0026 0.0026
vt 0.3013 0.9877
vt 0.0026 0.9877
vt 0.0026 0.6894
vt 0.3013 0.6894
vt 0.3065 0.6843
vt 0.3065 0.0026
vt 0.6052 0.0026
vt 0.6052 0.6843
vt 0.9091 0.0026
vt 0.9091 0.6843
vt 0.6104 0.6843
vt 0.6104 0.0026
vt 0.9363 0.3157
vt 0.9533 0.3157
vt 0.9533 0.6237
vt 0.9363 0.6237
vt 0.5493 0.6894
vt 0.5662 0.6894
vt 0.5662 0.9974
vt 0.5493 0.9974
vt 0.3506 0.9974
vt 0.3506 0.6894
vt 0.3676 0.6894
vt 0.3676 0.9974
vt 0.9754 0.3157
vt 0.9754 0.6237
vt 0.9584 0.6237
vt 0.9584 0.3157
vt 0.5000 0.9974
vt 0.4830 0.9974
vt 0.4830 0.6894
vt 0.5000 0.6894
vt 0.4610 0.6894
vt 0.4779 0.6894
vt 0.4779 0.9974
vt 0.4610 0.9974
vt 0.9805 0.6237
vt 0.9805 0.3157
vt 0.9974 0.3157
vt 0.9974 0.6237
vt 0.3234 0.6894
vt 0.3234 0.9974
vt 0.3065 0.9974
vt 0.3065 0.6894
vt 0.5221 0.9974
vt 0.5051 0.9974
vt 0.5051 0.6894
vt 0.5221 0.6894
vt 0.4389 0.6894
vt 0.4559 0.6894
vt 0.4559 0.9974
vt 0.4389 0.9974
vt 0.9805 0.3106
vt 0.9805 0.0026
vt 0.9974 0.0026
vt 0.9974 0.3106
vt 0.3455 0.6894
vt 0.3455 0.9974
vt 0.3285 0.9974
vt 0.3285 0.6894
vt 0.5441 0.9974
vt 0.5272 0.9974
vt 0.5272 0.6894
vt 0.5441 0.6894
vt 0.9584 0.6288
vt 0.9754 0.6288
vt 0.9754 0.9368
vt 0.9584 0.9368
vt 0.9143 0.6237
vt 0.9143 0.3157
vt 0.9312 0.3157
vt 0.9312 0.6237
vt 0.9533 0.0026
vt 0.9533 0.3106
vt 0.9363 0.3106
vt 0.9363 0.0026
vt 0.3727 0.6894
vt 0.3896 0.6894
vt 0.3896 0.9974
vt 0.3727 0.9974
vt 0.3948 0.6894
vt 0.4117 0.6894
vt 0.4117 0.9974
vt 0.3948 0.9974
vt 0.9143 0.9368
vt 0.9143 0.6288
vt 0.9312 0.6288
vt 0.9312 0.9368
vt 0.9312 0.0026
vt 0.9312 0.3106
vt 0.9143 0.3106
vt 0.9143 0.0026
vt 0.9974 0.9368
vt 0.9805 0.9368
vt 0.9805 0.6288
vt 0.9974 0.6288
vt 0.4168 0.6894
vt 0.4338 0.6894
vt 0.4338 0.9974
vt 0.4168 0.9974
vt 0.9584 0.3106
vt 0.9584 0.0026
vt 0.9754 0.0026
vt 0.9754 0.3106
vt 0.9533 0.6288
vt 0.9533 0.9368
vt 0.9363 0.9368
vt 0.9363 0.6288
vn 0.7071 0.7071 0.0000
vn 0.5773 0.5773 0.5773
vn 0.5773 -0.5773 0.5773
vn 0.7071 -0.7071 0.0000
vn 0.0000 0.7071 0.7071
vn 0.0000 -0.7071 0.7071
vn 0.0000 1.0000 0.0000
vn 0.0000 -1.0000 0.0000
vn 0.0000 -0.7071 -0.7071
vn 0.0000 0.7071 -0.7071
usemtl Dom
s 1
f 4/1/1 1/2/2 7/3/3 6/4/4
f 1/5/2 2/6/5 3/7/6 7/8/3
f 1/9/2 4/10/1 5/11/7 2/12/5
f 3/13/6 8/14/8 6/15/4 7/16/3
f 11/17/9 12/18/10 16/19/10 15/20/9
f 13/21/6 14/22/5 10/23/5 9/24/6
f 11/25/9 15/26/9 13/27/6 9/28/6
f 16/29/10 12/30/10 10/31/5 14/32/5
f 19/33/9 20/34/10 24/35/10 23/36/9
f 21/37/6 22/38/5 18/39/5 17/40/6
f 19/41/9 23/42/9 21/43/6 17/44/6
f 24/45/10 20/46/10 18/47/5 22/48/5
f 27/49/9 28/50/10 32/51/10 31/52/9
f 29/53/6 30/54/5 26/55/5 25/56/6
f 27/57/9 31/58/9 29/59/6 25/60/6
f 32/61/10 28/62/10 26/63/5 30/64/5
f 35/65/9 36/66/10 40/67/10 39/68/9
f 37/69/6 38/70/5 34/71/5 33/72/6
f 35/73/9 39/74/9 37/75/6 33/76/6
f 40/77/10 36/78/10 34/79/5 38/80/5
f 43/81/9 44/82/10 48/83/10 47/84/9
f 45/85/6 46/86/5 42/87/5 41/88/6
f 43/89/9 47/90/9 45/91/6 41/92/6
f 48/93/10 44/94/10 42/95/5 46/96/5
f 51/97/9 52/98/10 56/99/10 55/100/9
f 53/101/6 54/102/5 50/103/5 49/104/6
f 51/105/9 55/106/9 53/107/6 49/108/6
f 56/109/10 52/110/10 50/111/5 54/112/5
