# Blender v2.78 (sub 0) OBJ File: ''
# www.blender.org
mtllib kartina.mtl
o kartina_Куб
v -5.219324 4.210801 3.922411
v -5.129732 4.210801 3.922411
v -5.219324 5.286613 3.922411
v -5.129732 5.286613 3.922411
v -5.219324 4.210801 2.481379
v -5.129731 4.210801 2.481379
v -5.219324 5.286613 2.481379
v -5.129732 5.286613 2.481379
v -5.129732 4.323659 3.774090
v -5.219324 4.323659 3.774090
v -5.129731 4.323659 2.631856
v -5.129732 5.176106 3.774090
v -5.129732 5.176106 2.631856
v -5.219325 4.323659 2.631856
v -5.219325 5.176106 3.774090
v -5.219325 5.176106 2.631856
vt 0.6622 0.9599
vt 0.6241 0.9599
vt 0.6241 0.5125
vt 0.6622 0.5125
vt 0.9491 0.0125
vt 0.9872 0.0125
vt 0.9872 0.6118
vt 0.9491 0.6118
vt 0.6878 0.5125
vt 0.7260 0.5125
vt 0.7260 0.9599
vt 0.6878 0.9599
vt 0.8853 0.0125
vt 0.9235 0.0125
vt 0.9235 0.6118
vt 0.8853 0.6118
vt 0.0128 0.6118
vt 0.0599 0.5492
vt 0.4230 0.5492
vt 0.4230 0.0742
vt 0.4711 0.0125
vt 0.4711 0.6118
vt 0.7897 0.8670
vt 0.7515 0.8670
vt 0.7515 0.5125
vt 0.7897 0.5125
vt 0.4966 0.5125
vt 0.5348 0.5125
vt 0.5348 0.9875
vt 0.4966 0.9875
vt 0.0599 0.0742
vt 0.0128 0.0125
vt 0.8153 0.5125
vt 0.8534 0.5125
vt 0.8534 0.8670
vt 0.8153 0.8670
vt 0.5604 0.5125
vt 0.5985 0.5125
vt 0.5985 0.9875
vt 0.5604 0.9875
vt 0.8598 0.4875
vt 0.4966 0.4875
vt 0.4966 0.0125
vt 0.8598 0.0125
vn 0.0000 -0.7071 0.7071
vn 0.5773 -0.5773 0.5773
vn 0.5773 0.5773 0.5773
vn 0.0000 0.7071 0.7071
vn 0.5773 0.5773 -0.5773
vn 0.0000 0.7071 -0.7071
vn 0.5773 -0.5773 -0.5773
vn 0.0000 -0.7071 -0.7071
vn 0.9045 -0.3015 0.3015
vn 0.9045 0.3015 -0.3015
usemtl kartina
s 1
f 1/1/1 2/2/2 4/3/3 3/4/4
f 3/5/4 4/6/3 8/7/5 7/8/6
f 7/9/6 8/10/5 6/11/7 5/12/8
f 5/13/8 6/14/7 2/15/2 1/16/1
f 8/17/5 13/18/9 11/19/3 9/20/10 2/21/2 6/22/7
f 14/23/3 11/24/3 13/25/9 16/26/2
f 16/27/2 13/28/9 12/29/7 15/30/7
f 2/21/2 9/20/10 12/31/7 13/18/9 8/17/5 4/32/3
f 15/33/7 12/34/7 9/35/10 10/36/5
f 10/37/5 9/38/10 11/39/3 14/40/3
f 14/41/3 16/42/2 15/43/7 10/44/5
