# Blender v2.80 (sub 51) OBJ File: 'disk.blend'
# www.blender.org
mtllib disk.mtl
o Cylinder.006_Cylinder.012
v -0.135829 -0.000000 2.418767
v -0.133219 -0.026499 2.418767
v -0.125490 -0.051979 2.418767
v -0.112938 -0.075463 2.418767
v -0.096046 -0.096046 2.418767
v -0.075462 -0.112938 2.418767
v -0.051979 -0.125490 2.418767
v -0.026499 -0.133219 2.418767
v -0.000000 -0.135829 2.418767
v 0.026499 -0.133219 2.418767
v 0.051979 -0.125490 2.418767
v 0.075463 -0.112938 2.418767
v 0.096046 -0.096046 2.418767
v 0.112938 -0.075462 2.418767
v 0.125490 -0.051979 2.418767
v 0.133219 -0.026499 2.418767
v 0.135829 0.000000 2.418767
v 0.133219 0.026499 2.418767
v 0.125490 0.051980 2.418767
v 0.112938 0.075463 2.418767
v 0.096045 0.096046 2.418767
v 0.075462 0.112938 2.418767
v 0.051979 0.125490 2.418767
v 0.026499 0.133219 2.418767
v -0.000000 0.135829 2.418767
v -0.026499 0.133219 2.418767
v -0.051980 0.125490 2.418767
v -0.075463 0.112938 2.418767
v -0.096046 0.096045 2.418767
v -0.112938 0.075462 2.418767
v -0.125490 0.051979 2.418767
v -0.133219 0.026499 2.418767
v -1.044060 -0.000000 2.486434
v -1.044060 -0.000000 2.638864
v -1.023999 -0.203686 2.486434
v -1.023999 -0.203686 2.638864
v -0.964586 -0.399545 2.486434
v -0.964586 -0.399545 2.638864
v -0.868104 -0.580049 2.486434
v -0.868104 -0.580049 2.638864
v -0.738262 -0.738262 2.486434
v -0.738262 -0.738262 2.638864
v -0.580049 -0.868105 2.486434
v -0.580049 -0.868105 2.638864
v -0.399545 -0.964586 2.486434
v -0.399545 -0.964586 2.638864
v -0.203686 -1.023999 2.486434
v -0.203686 -1.023999 2.638864
v -0.000000 -1.044060 2.486434
v -0.000000 -1.044060 2.638864
v 0.203686 -1.023999 2.486434
v 0.203686 -1.023999 2.638864
v 0.399545 -0.964586 2.486434
v 0.399545 -0.964586 2.638864
v 0.580049 -0.868105 2.486434
v 0.580049 -0.868105 2.638864
v 0.738262 -0.738262 2.486434
v 0.738262 -0.738262 2.638864
v 0.868105 -0.580049 2.486434
v 0.868105 -0.580049 2.638864
v 0.964586 -0.399544 2.486434
v 0.964586 -0.399544 2.638864
v 1.023999 -0.203686 2.486434
v 1.023999 -0.203686 2.638864
v 1.044060 0.000000 2.486434
v 1.044060 0.000000 2.638864
v 1.023999 0.203687 2.486434
v 1.023999 0.203687 2.638864
v 0.964586 0.399545 2.486434
v 0.964586 0.399545 2.638864
v 0.868104 0.580050 2.486434
v 0.868104 0.580050 2.638864
v 0.738262 0.738263 2.486434
v 0.738262 0.738263 2.638864
v 0.580048 0.868105 2.486434
v 0.580048 0.868105 2.638864
v 0.399544 0.964586 2.486434
v 0.399544 0.964586 2.638864
v 0.203685 1.023999 2.486434
v 0.203685 1.023999 2.638864
v -0.000001 1.044060 2.486434
v -0.000001 1.044060 2.638864
v -0.203687 1.023999 2.486434
v -0.203687 1.023999 2.638864
v -0.399546 0.964586 2.486434
v -0.399546 0.964586 2.638864
v -0.580050 0.868104 2.486434
v -0.580050 0.868104 2.638864
v -0.738263 0.738261 2.486434
v -0.738263 0.738261 2.638864
v -0.868105 0.580048 2.486434
v -0.868105 0.580048 2.638864
v -0.964587 0.399543 2.486434
v -0.964587 0.399543 2.638864
v -1.023999 0.203684 2.486434
v -1.023999 0.203684 2.638864
v 0.075463 -0.112938 2.486434
v -0.135829 -0.000000 2.486434
v -0.133219 0.026499 2.486434
v -0.125490 0.051979 2.486434
v 0.051979 0.125490 2.486434
v 0.075462 0.112938 2.486434
v 0.026499 0.133219 2.486434
v 0.096045 0.096046 2.486434
v 0.133219 0.026499 2.486434
v 0.135829 0.000000 2.486434
v 0.125490 0.051980 2.486434
v -0.026499 -0.133219 2.486434
v -0.112938 -0.075463 2.486434
v 0.000000 -0.135829 2.486434
v -0.051979 -0.125490 2.486434
v 0.133219 -0.026499 2.486434
v -0.096046 0.096045 2.486434
v -0.112938 0.075462 2.486434
v -0.075463 0.112938 2.486434
v 0.026499 -0.133219 2.486434
v 0.112938 -0.075462 2.486434
v 0.096046 -0.096046 2.486434
v 0.051979 -0.125490 2.486434
v -0.000000 0.135829 2.486434
v 0.112938 0.075463 2.486434
v -0.026499 0.133219 2.486434
v -0.096046 -0.096046 2.486434
v 0.125490 -0.051979 2.486434
v -0.075462 -0.112938 2.486434
v -0.051980 0.125490 2.486434
v -0.125490 -0.051979 2.486434
v -0.133219 -0.026499 2.486434
vt 0.131501 0.308089
vt 0.121816 0.308089
vt 0.121816 0.691911
vt 0.131501 0.691911
vt 0.112693 0.308089
vt 0.112693 0.691911
vt 0.104483 0.308088
vt 0.104483 0.691911
vt 0.097501 0.308089
vt 0.097501 0.691911
vt 0.090519 0.308088
vt 0.090519 0.691911
vt 0.082309 0.308088
vt 0.082309 0.691911
vt 0.073186 0.308089
vt 0.073186 0.691911
vt 0.063501 0.308089
vt 0.063501 0.691911
vt 0.053627 0.308089
vt 0.053627 0.691911
vt 0.043942 0.308089
vt 0.043942 0.691911
vt 0.034820 0.308089
vt 0.034819 0.691911
vt 0.026609 0.308089
vt 0.026609 0.691911
vt 0.019627 0.308089
vt 0.019627 0.691911
vt 0.303194 0.308089
vt 0.294984 0.308089
vt 0.294984 0.691911
vt 0.303194 0.691911
vt 0.285861 0.308089
vt 0.285861 0.691911
vt 0.276176 0.308089
vt 0.276176 0.691911
vt 0.266302 0.308089
vt 0.266302 0.691911
vt 0.256617 0.308088
vt 0.256617 0.691911
vt 0.247495 0.308089
vt 0.247495 0.691911
vt 0.239284 0.308089
vt 0.239284 0.691911
vt 0.231074 0.308089
vt 0.231074 0.691911
vt 0.221951 0.308088
vt 0.221952 0.691911
vt 0.212267 0.308089
vt 0.212267 0.691911
vt 0.202393 0.308089
vt 0.202393 0.691911
vt 0.192708 0.308089
vt 0.192708 0.691911
vt 0.183585 0.308089
vt 0.183585 0.691911
vt 0.175375 0.308089
vt 0.175375 0.691911
vt 0.168393 0.308089
vt 0.168393 0.691911
vt 0.160182 0.308089
vt 0.160182 0.691911
vt 0.151060 0.308089
vt 0.151060 0.691911
vt 0.141375 0.308089
vt 0.141375 0.691911
vt 0.303194 0.358547
vt 0.303194 0.369573
vt 0.305120 0.380386
vt 0.308899 0.390573
vt 0.314385 0.399740
vt 0.321367 0.407536
vt 0.329577 0.413662
vt 0.338700 0.417881
vt 0.348385 0.420032
vt 0.358259 0.420032
vt 0.367944 0.417881
vt 0.377066 0.413662
vt 0.385277 0.407536
vt 0.392259 0.399740
vt 0.397745 0.390573
vt 0.401524 0.380387
vt 0.403450 0.369573
vt 0.403450 0.358548
vt 0.401524 0.347734
vt 0.397745 0.337548
vt 0.392259 0.328380
vt 0.385277 0.320584
vt 0.377067 0.314459
vt 0.367944 0.310239
vt 0.358259 0.308088
vt 0.348385 0.308088
vt 0.338700 0.310239
vt 0.329578 0.314459
vt 0.321367 0.320584
vt 0.314385 0.328380
vt 0.308899 0.337548
vt 0.305120 0.347734
vt 0.790572 0.753870
vt 0.809314 0.753870
vt 0.809314 0.519668
vt 0.790572 0.519668
vt 0.826969 0.753870
vt 0.826969 0.519668
vt 0.842857 0.753870
vt 0.842857 0.519668
vt 0.856370 0.753870
vt 0.856370 0.519668
vt 0.856370 0.285466
vt 0.842858 0.285466
vt 0.842858 0.519668
vt 0.826969 0.285466
vt 0.826969 0.519668
vt 0.809314 0.285466
vt 0.809314 0.519668
vt 0.790572 0.285466
vt 0.790572 0.519668
vt 0.771463 0.285466
vt 0.771463 0.519668
vt 0.752721 0.285466
vt 0.752721 0.519668
vt 0.735066 0.285466
vt 0.735066 0.519668
vt 0.719177 0.285466
vt 0.719177 0.519668
vt 0.705665 0.285466
vt 0.705665 0.519668
vt 0.856370 0.753870
vt 0.872259 0.753870
vt 0.872259 0.519668
vt 0.856370 0.519668
vt 0.889913 0.753870
vt 0.889913 0.519668
vt 0.908655 0.753870
vt 0.908655 0.519668
vt 0.927765 0.753870
vt 0.927765 0.519668
vt 0.946507 0.753870
vt 0.946507 0.519668
vt 0.964161 0.753870
vt 0.964161 0.519668
vt 0.980050 0.753870
vt 0.980050 0.519668
vt 0.856370 0.519668
vt 0.872259 0.519668
vt 0.872259 0.285466
vt 0.856370 0.285466
vt 0.889913 0.519668
vt 0.889913 0.285466
vt 0.908655 0.519668
vt 0.908655 0.285466
vt 0.927765 0.519668
vt 0.927765 0.285466
vt 0.946507 0.519668
vt 0.946507 0.285466
vt 0.964161 0.519668
vt 0.964161 0.285466
vt 0.980050 0.519668
vt 0.980050 0.285466
vt 0.705665 0.753870
vt 0.719177 0.753870
vt 0.719177 0.519668
vt 0.705665 0.519668
vt 0.735066 0.753870
vt 0.735066 0.519668
vt 0.752721 0.753870
vt 0.752721 0.519668
vt 0.599101 0.518540
vt 0.618210 0.518540
vt 0.636952 0.514062
vt 0.654607 0.505277
vt 0.670495 0.492523
vt 0.684008 0.476291
vt 0.694624 0.457204
vt 0.701937 0.435996
vt 0.705665 0.413481
vt 0.705665 0.390525
vt 0.701937 0.368010
vt 0.694624 0.346802
vt 0.684008 0.327715
vt 0.670495 0.311482
vt 0.654607 0.298729
vt 0.636952 0.289944
vt 0.618210 0.285466
vt 0.599101 0.285466
vt 0.580359 0.289944
vt 0.562704 0.298729
vt 0.546815 0.311483
vt 0.533303 0.327715
vt 0.522686 0.346802
vt 0.515374 0.368010
vt 0.511646 0.390525
vt 0.511646 0.413481
vt 0.515374 0.435996
vt 0.522686 0.457204
vt 0.533303 0.476291
vt 0.546815 0.492523
vt 0.562704 0.505277
vt 0.580359 0.514062
vt 0.771463 0.753870
vt 0.771463 0.519668
vt 0.636952 0.747136
vt 0.654607 0.738351
vt 0.670495 0.725598
vt 0.684008 0.709365
vt 0.694624 0.690278
vt 0.701937 0.669070
vt 0.705665 0.646555
vt 0.705665 0.623599
vt 0.701937 0.601085
vt 0.620791 0.630655
vt 0.621276 0.633584
vt 0.621276 0.636571
vt 0.620791 0.639500
vt 0.619840 0.642259
vt 0.618458 0.644742
vt 0.616701 0.646854
vt 0.614633 0.648513
vt 0.612337 0.649656
vt 0.609898 0.650238
vt 0.607412 0.650238
vt 0.604974 0.649656
vt 0.602677 0.648513
vt 0.600610 0.646854
vt 0.598852 0.644742
vt 0.597471 0.642259
vt 0.596520 0.639500
vt 0.515374 0.669070
vt 0.522686 0.690279
vt 0.533303 0.709366
vt 0.546815 0.725598
vt 0.562704 0.738351
vt 0.580359 0.747136
vt 0.599101 0.751615
vt 0.618210 0.751615
vt 0.694624 0.579876
vt 0.684008 0.560789
vt 0.670495 0.544557
vt 0.654607 0.531803
vt 0.636952 0.523019
vt 0.618210 0.518540
vt 0.599101 0.518540
vt 0.580359 0.523019
vt 0.562704 0.531803
vt 0.546815 0.544557
vt 0.533303 0.560789
vt 0.522686 0.579876
vt 0.515374 0.601085
vt 0.511646 0.623600
vt 0.511646 0.646555
vt 0.596035 0.636571
vt 0.596035 0.633584
vt 0.596520 0.630655
vt 0.597471 0.627896
vt 0.598852 0.625413
vt 0.600610 0.623301
vt 0.602677 0.621642
vt 0.604974 0.620499
vt 0.607412 0.619916
vt 0.609898 0.619916
vt 0.612337 0.620499
vt 0.614633 0.621642
vt 0.616701 0.623301
vt 0.618458 0.625413
vt 0.619840 0.627896
vn -0.9952 -0.0980 0.0000
vn -0.9569 -0.2903 0.0000
vn -0.8819 -0.4714 0.0000
vn -0.7730 -0.6344 0.0000
vn -0.6344 -0.7730 0.0000
vn -0.4714 -0.8819 0.0000
vn -0.2903 -0.9569 0.0000
vn -0.0980 -0.9952 0.0000
vn 0.0980 -0.9952 0.0000
vn 0.2903 -0.9569 0.0000
vn 0.4714 -0.8819 0.0000
vn 0.6344 -0.7730 -0.0000
vn 0.7730 -0.6344 -0.0000
vn 0.8819 -0.4714 -0.0000
vn 0.9569 -0.2903 0.0000
vn 0.9952 -0.0980 0.0000
vn 0.9952 0.0980 0.0000
vn 0.9569 0.2903 0.0000
vn 0.8819 0.4714 -0.0000
vn 0.7730 0.6344 -0.0000
vn 0.6344 0.7730 -0.0000
vn 0.4714 0.8819 0.0000
vn 0.2903 0.9569 0.0000
vn 0.0980 0.9952 0.0000
vn -0.0980 0.9952 0.0000
vn -0.2903 0.9569 0.0000
vn -0.4714 0.8819 -0.0000
vn -0.6344 0.7730 0.0000
vn -0.7730 0.6344 0.0000
vn -0.8819 0.4714 0.0000
vn -0.9569 0.2903 0.0000
vn -0.9952 0.0980 0.0000
vn -0.0000 0.0000 -1.0000
vn 0.0000 0.0000 1.0000
usemtl Material.001
s off
f 1/1/1 2/2/1 128/3/1 98/4/1
f 2/2/2 3/5/2 127/6/2 128/3/2
f 3/5/3 4/7/3 109/8/3 127/6/3
f 4/7/4 5/9/4 123/10/4 109/8/4
f 5/9/5 6/11/5 125/12/5 123/10/5
f 6/11/6 7/13/6 111/14/6 125/12/6
f 7/13/7 8/15/7 108/16/7 111/14/7
f 8/15/8 9/17/8 110/18/8 108/16/8
f 9/17/9 10/19/9 116/20/9 110/18/9
f 10/19/10 11/21/10 119/22/10 116/20/10
f 11/21/11 12/23/11 97/24/11 119/22/11
f 12/23/12 13/25/12 118/26/12 97/24/12
f 13/25/13 14/27/13 117/28/13 118/26/13
f 14/29/14 15/30/14 124/31/14 117/32/14
f 15/30/15 16/33/15 112/34/15 124/31/15
f 16/33/16 17/35/16 106/36/16 112/34/16
f 17/35/17 18/37/17 105/38/17 106/36/17
f 18/37/18 19/39/18 107/40/18 105/38/18
f 19/39/19 20/41/19 121/42/19 107/40/19
f 20/41/20 21/43/20 104/44/20 121/42/20
f 21/43/21 22/45/21 102/46/21 104/44/21
f 22/45/22 23/47/22 101/48/22 102/46/22
f 23/47/23 24/49/23 103/50/23 101/48/23
f 24/49/24 25/51/24 120/52/24 103/50/24
f 25/51/25 26/53/25 122/54/25 120/52/25
f 26/53/26 27/55/26 126/56/26 122/54/26
f 27/55/27 28/57/27 115/58/27 126/56/27
f 28/57/28 29/59/28 113/60/28 115/58/28
f 29/59/29 30/61/29 114/62/29 113/60/29
f 30/61/30 31/63/30 100/64/30 114/62/30
f 31/63/31 32/65/31 99/66/31 100/64/31
f 32/65/32 1/1/32 98/4/32 99/66/32
f 1/67/33 32/68/33 31/69/33 30/70/33 29/71/33 28/72/33 27/73/33 26/74/33 25/75/33 24/76/33 23/77/33 22/78/33 21/79/33 20/80/33 19/81/33 18/82/33 17/83/33 16/84/33 15/85/33 14/86/33 13/87/33 12/88/33 11/89/33 10/90/33 9/91/33 8/92/33 7/93/33 6/94/33 5/95/33 4/96/33 3/97/33 2/98/33
f 33/99/1 35/100/1 36/101/1 34/102/1
f 35/100/2 37/103/2 38/104/2 36/101/2
f 37/103/3 39/105/3 40/106/3 38/104/3
f 39/105/4 41/107/4 42/108/4 40/106/4
f 41/109/5 43/110/5 44/111/5 42/108/5
f 43/110/6 45/112/6 46/113/6 44/111/6
f 45/112/7 47/114/7 48/115/7 46/113/7
f 47/114/8 49/116/8 50/117/8 48/115/8
f 49/116/9 51/118/9 52/119/9 50/117/9
f 51/118/10 53/120/10 54/121/10 52/119/10
f 53/120/11 55/122/11 56/123/11 54/121/11
f 55/122/12 57/124/12 58/125/12 56/123/12
f 57/124/13 59/126/13 60/127/13 58/125/13
f 59/128/14 61/129/14 62/130/14 60/131/14
f 61/129/15 63/132/15 64/133/15 62/130/15
f 63/132/16 65/134/16 66/135/16 64/133/16
f 65/134/17 67/136/17 68/137/17 66/135/17
f 67/136/18 69/138/18 70/139/18 68/137/18
f 69/138/19 71/140/19 72/141/19 70/139/19
f 71/140/20 73/142/20 74/143/20 72/141/20
f 73/144/21 75/145/21 76/146/21 74/147/21
f 75/145/22 77/148/22 78/149/22 76/146/22
f 77/148/23 79/150/23 80/151/23 78/149/23
f 79/150/24 81/152/24 82/153/24 80/151/24
f 81/152/25 83/154/25 84/155/25 82/153/25
f 83/154/26 85/156/26 86/157/26 84/155/26
f 85/156/27 87/158/27 88/159/27 86/157/27
f 87/160/28 89/161/28 90/162/28 88/163/28
f 89/161/29 91/164/29 92/165/29 90/162/29
f 91/164/30 93/166/30 94/167/30 92/165/30
f 36/168/34 38/169/34 40/170/34 42/171/34 44/172/34 46/173/34 48/174/34 50/175/34 52/176/34 54/177/34 56/178/34 58/179/34 60/180/34 62/181/34 64/182/34 66/183/34 68/184/34 70/185/34 72/186/34 74/187/34 76/188/34 78/189/34 80/190/34 82/191/34 84/192/34 86/193/34 88/194/34 90/195/34 92/196/34 94/197/34 96/198/34 34/199/34
f 93/166/31 95/200/31 96/201/31 94/167/31
f 95/200/32 33/99/32 34/102/32 96/201/32
f 33/202/33 95/203/33 93/204/33 91/205/33 89/206/33 87/207/33 85/208/33 83/209/33 81/210/33 120/211/33 122/212/33 126/213/33 115/214/33 113/215/33 114/216/33 100/217/33 99/218/33 98/219/33 128/220/33 127/221/33 109/222/33 123/223/33 125/224/33 111/225/33 108/226/33 110/227/33 49/228/33 47/229/33 45/230/33 43/231/33 41/232/33 39/233/33 37/234/33 35/235/33
f 81/210/33 79/236/33 77/237/33 75/238/33 73/239/33 71/240/33 69/241/33 67/242/33 65/243/33 63/244/33 61/245/33 59/246/33 57/247/33 55/248/33 53/249/33 51/250/33 49/228/33 110/227/33 116/251/33 119/252/33 97/253/33 118/254/33 117/255/33 124/256/33 112/257/33 106/258/33 105/259/33 107/260/33 121/261/33 104/262/33 102/263/33 101/264/33 103/265/33 120/211/33
