# Blender v2.78 (sub 0) OBJ File: ''
# www.blender.org
mtllib podstavka.mtl
o Куб.007
v 0.581552 0.345524 -1.396805
v 0.581552 0.492416 -1.396805
v 0.581552 0.492416 -1.829133
v 0.581552 0.345524 -1.829133
v 0.845325 0.492416 -1.829133
v 0.845325 0.345524 -1.829133
v 0.845325 0.492416 -1.396805
v 0.845325 0.345524 -1.396805
vn -1.0000 0.0000 0.0000
vn 0.0000 0.0000 -1.0000
vn 1.0000 0.0000 0.0000
vn 0.0000 -0.0000 1.0000
vn 0.0000 -1.0000 -0.0000
vn 0.0000 1.0000 0.0000
usemtl Материал.007
s off
f 1//1 2//1 3//1 4//1
f 4//2 3//2 5//2 6//2
f 6//3 5//3 7//3 8//3
f 8//4 7//4 2//4 1//4
f 4//5 6//5 8//5 1//5
f 5//6 3//6 2//6 7//6
o Куб.006
v -0.848557 0.345524 1.479909
v -0.848557 0.492416 1.479909
v -0.848557 0.492416 1.047581
v -0.848557 0.345524 1.047581
v -0.584784 0.492416 1.047581
v -0.584784 0.345524 1.047581
v -0.584784 0.492416 1.479909
v -0.584784 0.345524 1.479909
vn -1.0000 -0.0000 0.0000
vn 0.0000 0.0000 -1.0000
vn 1.0000 -0.0000 0.0000
vn 0.0000 -0.0000 1.0000
vn 0.0000 -1.0000 -0.0000
vn 0.0000 1.0000 0.0000
usemtl Материал.005
s off
f 9//7 10//7 11//7 12//7
f 12//8 11//8 13//8 14//8
f 14//9 13//9 15//9 16//9
f 16//10 15//10 10//10 9//10
f 12//11 14//11 16//11 9//11
f 13//12 11//12 10//12 15//12
o kvaka2_Cube.000
v -1.195000 0.738400 1.594055
v -1.195000 0.738400 2.090965
v -0.022809 6.579618 2.042844
v -0.022809 6.579618 1.545934
v -0.950189 0.738400 2.090965
v -1.195000 0.445514 2.090965
v -0.950189 0.445514 2.090965
v 0.950189 0.445514 2.090965
v 1.195000 0.445514 2.090965
v 1.195000 0.738400 2.090965
v 0.950189 0.738400 2.090965
v -0.018136 6.579618 1.545934
v -0.018136 6.579618 2.042844
v 1.195000 0.738400 1.594055
v 0.022809 6.579618 1.545934
v 0.022809 6.579618 2.042844
v -0.950189 0.738400 1.594055
v 0.018136 6.579618 2.042844
v 0.950189 0.738400 1.594055
v 0.018136 6.579618 1.545934
v 0.950189 0.738400 -1.884315
v -0.950189 0.738400 -1.884315
v -1.195000 0.738400 -1.884315
v -1.195000 0.738400 -1.596143
v -0.950189 0.738400 -1.596143
v 0.950189 0.738400 -1.596143
v 1.195000 0.738400 -1.596143
v 1.195000 0.738400 -1.884315
v -1.195000 0.445514 -1.884315
v -1.195000 0.445514 -1.596143
v -1.195000 0.445514 -0.890495
v -1.195000 0.445514 0.103325
v -1.195000 0.445514 1.097145
v -1.195000 0.445514 1.313801
v -1.195000 0.445514 1.594055
v -1.195000 0.738400 1.313801
v -1.195000 0.738400 1.097145
v -1.195000 0.738400 0.103325
v -1.195000 0.738400 -0.890495
v 0.950189 0.738400 0.103325
v 0.950189 0.738400 1.097145
v 0.950189 0.738400 1.313801
v 1.195000 0.738400 1.313801
v 1.195000 0.738400 1.097145
v 1.195000 0.738400 0.103325
v 1.195000 0.738400 -0.890495
v 0.950189 0.738400 -0.890495
v -0.950189 0.738400 1.313801
v 1.195000 0.445514 -1.884315
v 0.950189 0.445514 -1.884315
v -0.950189 0.445514 -1.884315
v 1.195000 0.445514 1.594055
v 0.950189 0.445514 1.594055
v 0.950189 0.445514 1.313801
v 0.950189 0.445514 1.097145
v 0.950189 0.445514 0.103325
v 0.950189 0.445514 -0.890495
v 0.950189 0.445514 -1.596143
v 1.195000 0.445514 -1.596143
v 1.195000 0.445514 -0.890495
v 1.195000 0.445514 0.103325
v 1.195000 0.445514 1.097145
v 1.195000 0.445514 1.313801
v -0.950189 0.445514 1.594055
v -0.950189 0.445514 1.313801
v -0.950189 0.445514 1.097145
v -0.950189 0.445514 0.103325
v -0.950189 0.445514 -0.890495
v -0.950189 0.445514 -1.596143
v -0.950189 0.738400 -0.890495
v -0.950189 0.738400 0.103325
v -0.950189 0.738400 1.097145
vt 0.7208 0.0244
vt 0.7689 0.0244
vt 0.7642 0.5175
vt 0.7162 0.5175
vt 0.7925 0.0245
vt 0.7689 0.0245
vt 0.7689 0.0000
vt 0.7925 0.0000
vt 0.9763 0.0000
vt 1.0000 0.0000
vt 1.0000 0.0245
vt 0.9763 0.0245
vt 0.6042 0.5590
vt 0.6038 0.5590
vt 0.6038 0.5175
vt 0.6042 0.5175
vt 0.0000 0.0244
vt 0.0481 0.0244
vt 0.0527 0.5175
vt 0.0047 0.5175
vt 0.9763 0.5122
vt 1.0000 0.5122
vt 0.8866 1.0000
vt 0.8862 1.0000
vt 0.8866 0.5122
vt 0.8862 0.5122
vt 0.8827 0.5122
vt 0.8822 0.5122
vt 0.7689 0.5122
vt 0.7925 0.5122
vt 0.8827 1.0000
vt 0.8822 1.0000
vt 0.6082 0.5590
vt 0.6077 0.5590
vt 0.6077 0.5175
vt 0.6082 0.5175
vt 0.2548 0.5175
vt 0.4386 0.5175
vt 0.4623 0.5175
vt 0.4623 0.5416
vt 0.4386 0.5416
vt 0.2548 0.5416
vt 0.2311 0.5416
vt 0.2311 0.5175
vt 0.4123 0.0244
vt 0.3844 0.0244
vt 0.3844 0.0000
vt 0.4123 0.0000
vt 0.4805 0.0000
vt 0.5767 0.0000
vt 0.6728 0.0000
vt 0.6937 0.0000
vt 0.7208 0.0000
vt 0.6937 0.0244
vt 0.6728 0.0244
vt 0.5767 0.0244
vt 0.4805 0.0244
vt 0.2548 0.6835
vt 0.2548 0.7665
vt 0.2548 0.7846
vt 0.2311 0.7846
vt 0.2311 0.7665
vt 0.2311 0.6835
vt 0.2311 0.6005
vt 0.2548 0.6005
vt 0.4386 0.7846
vt 0.4623 0.7846
vt 0.4623 0.8080
vt 0.4386 0.8080
vt 0.2548 0.8080
vt 0.2311 0.8080
vt 0.5188 0.5380
vt 0.5188 0.5175
vt 0.5471 0.5175
vt 0.5471 0.5380
vt 0.5471 0.6967
vt 0.5471 0.7171
vt 0.5188 0.7171
vt 0.5188 0.6967
vt 0.0000 0.5590
vt 0.0000 0.5175
vt 0.0237 0.5175
vt 0.0237 0.5590
vt 0.0237 0.5824
vt 0.0237 0.6005
vt 0.0237 0.6835
vt 0.0237 0.7665
vt 0.0237 0.8254
vt 0.0237 0.8495
vt 0.0000 0.8495
vt 0.0000 0.8254
vt 0.0000 0.7665
vt 0.0000 0.6835
vt 0.0000 0.6005
vt 0.0000 0.5824
vt 0.2075 0.5175
vt 0.2075 0.5590
vt 0.2075 0.5824
vt 0.2075 0.6005
vt 0.2075 0.6835
vt 0.2075 0.7665
vt 0.2075 0.8254
vt 0.2075 0.8495
vt 0.5471 0.5175
vt 0.5754 0.5175
vt 0.5754 0.6762
vt 0.5471 0.6762
vt 0.5754 0.5175
vt 0.6038 0.5175
vt 0.6038 0.6762
vt 0.5754 0.6762
vt 0.4623 0.6595
vt 0.4623 0.5765
vt 0.4623 0.5175
vt 0.4905 0.5175
vt 0.4905 0.5765
vt 0.4905 0.6595
vt 0.4905 0.7424
vt 0.4905 0.7605
vt 0.4623 0.7605
vt 0.4623 0.7424
vt 0.5188 0.5765
vt 0.5188 0.6595
vt 0.5188 0.7424
vt 0.5188 0.7605
vt 0.4905 0.7605
vt 0.4905 0.7424
vt 0.4905 0.6595
vt 0.4905 0.5765
vt 0.4905 0.5175
vt 0.5188 0.5175
vt 0.4623 0.6005
vt 0.4623 0.6835
vt 0.4623 0.7665
vt 0.4386 0.7665
vt 0.4386 0.6835
vt 0.4386 0.6005
vt 0.2311 0.5175
vt 0.2311 0.5590
vt 0.2311 0.5824
vt 0.2311 0.6005
vt 0.2311 0.6835
vt 0.2311 0.7665
vt 0.2311 0.8254
vt 0.2311 0.8495
vt 0.0000 0.0000
vt 0.0481 0.0000
vt 0.0752 0.0000
vt 0.0961 0.0000
vt 0.1922 0.0000
vt 0.2883 0.0000
vt 0.3566 0.0000
vt 0.3844 0.0000
vt 0.3844 0.0244
vt 0.3566 0.0244
vt 0.2883 0.0244
vt 0.1922 0.0244
vt 0.0961 0.0244
vt 0.0752 0.0244
vn -0.9805 0.1968 0.0000
vn 0.0000 0.0000 1.0000
vn 0.0000 1.0000 0.0000
vn 0.9805 0.1968 0.0000
vn 0.0000 -0.0082 -1.0000
vn 0.0000 0.0082 1.0000
vn -1.0000 -0.0000 0.0000
vn 0.0000 0.0000 -1.0000
vn -0.0000 -1.0000 -0.0000
vn 1.0000 0.0000 0.0000
usemtl Материал.002
s off
f 17/1/13 18/2/13 19/3/13 20/4/13
f 21/5/14 18/6/14 22/7/14 23/8/14 24/9/14 25/10/14 26/11/14 27/12/14
f 28/13/15 20/14/15 19/15/15 29/16/15
f 26/17/16 30/18/16 31/19/16 32/20/16
f 33/21/17 17/22/17 20/23/17 28/24/17
f 27/12/18 26/11/18 32/25/18 34/26/18
f 18/6/18 21/5/18 29/27/18 19/28/18
f 21/5/18 27/12/18 34/26/18 29/27/18
f 30/29/17 35/30/17 36/31/17 31/32/17
f 35/30/17 33/21/17 28/24/17 36/31/17
f 31/33/15 36/34/15 34/35/15 32/36/15
f 36/34/15 28/13/15 29/16/15 34/35/15
f 37/37/15 38/38/15 39/39/15 40/40/15 41/41/15 42/42/15 43/43/15 44/44/15
f 40/45/19 39/46/19 45/47/19 46/48/19 47/49/19 48/50/19 49/51/19 50/52/19 51/53/19 22/7/19 18/2/19 17/1/19 52/54/19 53/55/19 54/56/19 55/57/19
f 56/58/15 57/59/15 58/60/15 59/61/15 60/62/15 61/63/15 62/64/15 43/43/15 42/42/15 63/65/15
f 64/66/15 52/67/15 17/68/15 33/69/15 35/70/15 30/71/15 59/61/15 58/60/15
f 37/72/20 44/73/20 65/74/20 66/75/20 67/76/20 45/77/20 39/78/20 38/79/20
f 68/80/21 25/81/21 24/82/21 69/83/21 70/84/21 71/85/21 72/86/21 73/87/21 74/88/21 66/89/21 65/90/21 75/91/21 76/92/21 77/93/21 78/94/21 79/95/21
f 70/84/21 69/83/21 24/82/21 23/96/21 80/97/21 81/98/21 82/99/21 83/100/21 84/101/21 85/102/21 67/103/21 66/89/21 74/88/21 73/87/21 72/86/21 71/85/21
f 58/104/20 70/105/20 81/106/20 64/107/20
f 74/108/14 42/109/14 41/110/14 85/111/14
f 83/112/22 84/113/22 85/114/22 41/115/22 86/116/22 87/117/22 88/118/22 64/119/22 81/120/22 82/121/22
f 73/122/19 72/123/19 71/124/19 70/125/19 58/126/19 57/127/19 56/128/19 63/129/19 42/130/19 74/131/19
f 41/41/15 40/40/15 55/132/15 54/133/15 53/134/15 52/67/15 64/66/15 88/135/15 87/136/15 86/137/15
f 81/98/21 80/97/21 23/96/21 22/138/21 51/139/21 50/140/21 49/141/21 48/142/21 47/143/21 46/144/21 45/145/21 67/103/21 85/102/21 84/101/21 83/100/21 82/99/21
f 30/18/22 26/17/22 25/146/22 68/147/22 79/148/22 78/149/22 77/150/22 76/151/22 75/152/22 65/153/22 44/154/22 43/155/22 62/156/22 61/157/22 60/158/22 59/159/22
o Куб.005
v 0.573301 0.345524 1.479909
v 0.573301 0.492416 1.479909
v 0.573301 0.492416 1.047581
v 0.573301 0.345524 1.047581
v 0.837075 0.492416 1.047581
v 0.837075 0.345524 1.047581
v 0.837075 0.492416 1.479909
v 0.837075 0.345524 1.479909
vn -1.0000 -0.0000 0.0000
vn 0.0000 0.0000 -1.0000
vn 1.0000 0.0000 0.0000
vn 0.0000 -0.0000 1.0000
vn 0.0000 -1.0000 -0.0000
vn 0.0000 1.0000 0.0000
usemtl Материал.008
s off
f 89//23 90//23 91//23 92//23
f 92//24 91//24 93//24 94//24
f 94//25 93//25 95//25 96//25
f 96//26 95//26 90//26 89//26
f 92//27 94//27 96//27 89//27
f 93//28 91//28 90//28 95//28
o Плоскость.001
v -0.942843 0.573684 1.205088
v 0.959819 0.573684 1.205088
v 0.959819 0.573684 -1.709130
v -0.942843 0.573684 -1.709130
vt 0.0000 0.0000
vt 1.0000 0.0000
vt 1.0000 1.0000
vt 0.0000 1.0000
vn 0.0000 1.0000 0.0000
usemtl Материал.004
s off
f 97/160/29 98/161/29 99/162/29 100/163/29
o Куб.004
v -0.840307 0.345524 -1.396805
v -0.840307 0.492416 -1.396805
v -0.840307 0.492416 -1.829133
v -0.840307 0.345524 -1.829133
v -0.576533 0.492416 -1.829133
v -0.576533 0.345524 -1.829133
v -0.576533 0.492416 -1.396805
v -0.576533 0.345524 -1.396805
vn -1.0000 -0.0000 0.0000
vn 0.0000 0.0000 -1.0000
vn 1.0000 0.0000 0.0000
vn 0.0000 -0.0000 1.0000
vn 0.0000 -1.0000 -0.0000
vn 0.0000 1.0000 0.0000
usemtl Материал.006
s off
f 101//30 102//30 103//30 104//30
f 104//31 103//31 105//31 106//31
f 106//32 105//32 107//32 108//32
f 108//33 107//33 102//33 101//33
f 104//34 106//34 108//34 101//34
f 105//35 103//35 102//35 107//35
