# Blender v2.79 (sub 0) OBJ File: ''
# www.blender.org
mtllib untitled4.mtl
o Cube_Cube.003
v -0.630476 -0.373718 1.003574
v -0.630476 -0.324183 1.003574
v -0.630476 -0.373718 -0.996426
v -0.630476 -0.324183 -0.996426
v 0.235724 -0.373718 1.003574
v 0.235724 -0.324183 1.003574
v 0.235724 -0.373718 -0.996426
v 0.235724 -0.324183 -0.996426
vn 0.0000 0.0000 1.0000
vn -1.0000 0.0000 0.0000
vn 1.0000 0.0000 0.0000
vn 0.0000 0.0000 -1.0000
vn 0.0000 1.0000 0.0000
vn 0.0000 -1.0000 0.0000
usemtl Material.005
s off
f 5//1 6//1 2//1 1//1
f 2//2 4//2 3//2 1//2
f 5//3 7//3 8//3 6//3
f 4//4 8//4 7//4 3//4
f 2//5 6//5 8//5 4//5
f 5//6 1//6 3//6 7//6
o Cube.001
v -0.506118 -0.361437 0.689802
v -0.506118 0.658563 0.689802
v -0.506118 -0.361437 -0.700198
v -0.506118 0.658563 -0.700198
v -0.476118 -0.361437 0.689802
v -0.476118 0.658563 0.689802
v -0.476118 -0.361437 -0.700198
v -0.476118 0.658563 -0.700198
vn -1.0000 0.0000 0.0000
vn 0.0000 0.0000 -1.0000
vn 1.0000 0.0000 0.0000
vn 0.0000 0.0000 1.0000
vn 0.0000 -1.0000 0.0000
vn 0.0000 1.0000 0.0000
usemtl Material.004
s off
f 9//7 10//7 12//7 11//7
f 11//8 12//8 16//8 15//8
f 15//9 16//9 14//9 13//9
f 13//10 14//10 10//10 9//10
f 11//11 15//11 13//11 9//11
f 16//12 12//12 10//12 14//12
o Cube.002
v -0.505850 0.640780 0.801050
v -0.505850 0.666464 0.801050
v -0.505850 0.640780 -0.818950
v -0.505850 0.666464 -0.818950
v 0.050350 0.640780 0.801050
v 0.050350 0.666464 0.801050
v 0.050350 0.640780 -0.818950
v 0.050350 0.666464 -0.818950
v -0.402761 0.640780 -0.818950
v -0.402761 0.666464 -0.818950
v -0.402761 0.640780 0.801050
v -0.402761 0.666464 0.801050
v -0.099469 0.666464 -0.818950
v -0.099469 0.640780 0.801050
v -0.099469 0.640780 -0.818950
v -0.099469 0.666464 0.801050
v -0.505850 0.640780 0.144748
v -0.505850 0.666464 0.144748
v 0.050350 0.640780 0.144748
v 0.050350 0.666464 0.144748
v -0.402761 0.666464 0.144748
v -0.402761 0.640780 0.144748
v -0.099469 0.666464 0.144748
v -0.099469 0.640780 0.144748
v -0.505850 0.666464 -0.108098
v 0.050350 0.640780 -0.108098
v -0.505850 0.640780 -0.329147
v 0.050350 0.666464 -0.329147
v -0.402761 0.666464 -0.329147
v -0.402761 0.640780 -0.329147
v -0.099469 0.666464 -0.329147
v -0.099469 0.640780 -0.329147
v -0.099469 0.640780 0.365797
v -0.402761 0.640780 0.365797
v -0.099469 0.666464 0.365797
v 0.050350 0.666464 0.365797
v -0.505850 0.640780 0.365797
v -0.402761 0.666464 0.365797
v -0.505850 0.666464 0.365797
v 0.050350 0.640780 0.365797
v 0.050350 0.666464 -0.108098
v 0.050350 0.640780 -0.329147
v -0.099469 0.640780 -0.108098
v -0.505850 0.666464 -0.329147
v -0.402761 0.666464 -0.108098
v -0.099469 0.666464 -0.108098
v -0.402761 0.640780 -0.108098
v -0.505850 0.640780 -0.108098
vn -1.0000 0.0000 0.0000
vn 0.0000 0.0000 -1.0000
vn 1.0000 0.0000 0.0000
vn 0.0000 0.0000 1.0000
vn 0.0000 -1.0000 0.0000
vn 0.0000 1.0000 0.0000
usemtl Material.005
s off
f 43//13 60//13 20//13 19//13
f 31//14 29//14 24//14 23//14
f 56//15 52//15 22//15 21//15
f 27//16 28//16 18//16 17//16
f 49//17 56//17 21//17 30//17
f 54//18 55//18 18//18 28//18
f 51//18 54//18 28//18 32//18
f 53//17 50//17 27//17 17//17
f 30//16 32//16 28//16 27//16
f 19//14 20//14 26//14 25//14
f 21//16 22//16 32//16 30//16
f 52//18 51//18 32//18 22//18
f 50//17 49//17 30//17 27//17
f 25//14 26//14 29//14 31//14
f 63//17 59//17 40//17 38//17
f 57//18 62//18 39//18 36//18
f 64//17 63//17 38//17 33//17
f 62//18 61//18 37//18 39//18
f 61//18 41//18 34//18 37//18
f 59//17 42//17 35//17 40//17
f 42//15 57//15 36//15 35//15
f 17//13 18//13 55//13 53//13
f 23//15 24//15 44//15 58//15
f 31//17 23//17 58//17 48//17
f 26//18 20//18 60//18 45//18
f 29//18 26//18 45//18 47//18
f 19//17 25//17 46//17 43//17
f 24//18 29//18 47//18 44//18
f 25//17 31//17 48//17 46//17
f 33//13 34//13 41//13 64//13
f 38//17 40//17 49//17 50//17
f 36//18 39//18 51//18 52//18
f 33//17 38//17 50//17 53//17
f 39//18 37//18 54//18 51//18
f 37//18 34//18 55//18 54//18
f 40//17 35//17 56//17 49//17
f 35//15 36//15 52//15 56//15
f 34//13 33//13 53//13 55//13
f 57//15 42//15 58//15 44//15
f 42//17 59//17 48//17 58//17
f 41//18 61//18 45//18 60//18
f 61//18 62//18 47//18 45//18
f 63//17 64//17 43//17 46//17
f 62//18 57//18 44//18 47//18
f 59//17 63//17 46//17 48//17
f 64//13 41//13 60//13 43//13
