# Blender v2.79 (sub 0) OBJ File: '123456.blend'
# www.blender.org
mtllib wall.mtl
o Cube.001_Cube
v -0.506118 -0.361437 0.695000
v -0.506118 0.658563 0.695000
v -0.506118 -0.361437 -0.695000
v -0.506118 0.658563 -0.695000
v -0.476118 -0.361437 0.695000
v -0.476118 0.658563 0.695000
v -0.476118 -0.361437 -0.695000
v -0.476118 0.658563 -0.695000
vt 0.000000 0.000000
vt 1.000000 0.000000
vt 1.000000 1.000000
vt 0.000000 1.000000
vt 0.000000 0.000000
vt 1.000000 0.000000
vt 1.000000 1.000000
vt 0.000000 1.000000
vt 0.000000 0.000000
vt 1.000000 0.000000
vt 1.000000 1.000000
vt 0.000000 1.000000
vt 0.000000 0.000000
vt 1.000000 0.000000
vt 1.000000 1.000000
vt 0.000000 1.000000
vt 1.000000 0.000000
vt 1.000000 1.000000
vt 0.000000 0.000000
vt 0.000000 1.000000
vn -0.5773 -0.5773 0.5773
vn -0.5773 0.5773 0.5773
vn -0.5773 0.5773 -0.5773
vn -0.5773 -0.5773 -0.5773
vn 0.5773 0.5773 -0.5773
vn 0.5773 -0.5773 -0.5773
vn 0.5773 0.5773 0.5773
vn 0.5773 -0.5773 0.5773
usemtl None
s 1
f 1/1/1 2/2/2 4/3/3 3/4/4
f 3/5/4 4/6/3 8/7/5 7/8/6
f 7/9/6 8/10/5 6/11/7 5/12/8
f 5/13/8 6/14/7 2/15/2 1/16/1
f 3/5/4 7/17/6 5/18/8 1/16/1
f 8/19/5 4/6/3 2/15/2 6/20/7
